<svg width="212" height="156" viewBox="0 0 212 156" fill="none" xmlns="http://www.w3.org/2000/svg">
<g filter="url(#filter0_d_19_277)">
<ellipse cx="93" cy="79" rx="61" ry="31" fill="#FDFDFD" shape-rendering="crispEdges"/>
<path d="M93 110.25C109.876 110.25 125.166 106.774 136.247 101.143C147.314 95.519 154.25 87.704 154.25 79C154.25 70.296 147.314 62.481 136.247 56.8568C125.166 51.2256 109.876 47.75 93 47.75C76.1244 47.75 60.8339 51.2256 49.7532 56.8568C38.6863 62.481 31.75 70.296 31.75 79C31.75 87.704 38.6863 95.519 49.7532 101.143C60.8339 106.774 76.1244 110.25 93 110.25Z" stroke="#8C8C8C" stroke-opacity="0.78" stroke-width="0.5" shape-rendering="crispEdges"/>
</g>
<path d="M93.5 96.5C105.838 96.5 117.031 94.4219 125.158 91.0432C129.221 89.3542 132.541 87.3305 134.853 85.0576C137.168 82.7831 138.5 80.2289 138.5 77.5C138.5 74.7711 137.168 72.2169 134.853 69.9424C132.541 67.6695 129.221 65.6458 125.158 63.9568C117.031 60.5781 105.838 58.5 93.5 58.5C81.1623 58.5 69.9691 60.5781 61.8418 63.9568C57.7793 65.6458 54.4589 67.6695 52.1465 69.9424C49.8324 72.2169 48.5 74.7711 48.5 77.5C48.5 80.2289 49.8324 82.7831 52.1465 85.0576C54.4589 87.3305 57.7793 89.3542 61.8418 91.0432C69.9691 94.4219 81.1623 96.5 93.5 96.5Z" stroke="#C7C5C5"/>
<path d="M99.7215 19.0213C100.46 18.4211 101.52 18.426 102.256 19.033L138.134 48.6268C139.496 49.7503 138.847 51.9548 137.096 52.155L52.9991 61.7656C51.0128 61.9926 49.9526 59.4855 51.5021 58.2257L99.7215 19.0213Z" fill="#EABAF2"/>
<path d="M53.0579 61.4578L136.601 51.6858L133.74 81.0019L53.0579 92.9455V61.4578Z" fill="#F4D8A1"/>
<path d="M126.353 70.8467C129.966 68.6572 134.436 71.8807 133.5 76V76V81L103 85L126.353 70.8467Z" fill="#FFCB66"/>
<path d="M53.0579 83.1734L60.5984 78.8639C63.3184 77.3094 66.3971 76.4917 69.5299 76.4917H76.4404H85.2693C87.5466 76.4917 89.8032 76.0596 91.9194 75.2182L98.9582 72.4198C101.074 71.5784 103.331 71.1463 105.608 71.1463H114.437H120.525C124.174 71.1463 127.737 70.0371 130.742 67.9657L135.457 64.7151" stroke="#FC4CCA" stroke-width="3"/>
<g filter="url(#filter1_d_19_277)">
<ellipse cx="105.702" cy="37.0277" rx="8.01099" ry="7.05758" fill="#FC4CCA"/>
</g>
<path d="M90.3075 60.7051L80.8267 60.2537C77.3639 60.0888 73.9371 61.0193 71.0333 62.9131L68.7449 64.4056C65.7637 66.3498 62.0324 66.7504 58.7064 65.4834L54.4993 63.8807C53.8703 63.6411 53.3911 63.119 53.2062 62.4718C52.8391 61.1869 53.729 59.8843 55.0594 59.7591L137.5 52C138.312 52 138.662 53.0292 138.018 53.5243L133.706 56.8414C133.569 56.9469 133.422 57.039 133.267 57.1163L132.4 57.5502C129.271 59.1145 125.638 59.3272 122.348 58.1386L119.413 57.0784C114.649 55.3569 109.409 55.5033 104.748 57.4881L102.204 58.5712C98.4499 60.1697 94.3831 60.8992 90.3075 60.7051Z" fill="#EA7AFC" stroke="#EA7AFC" stroke-width="3"/>
<g filter="url(#filter2_d_19_277)">
<mask id="path-10-inside-1_19_277" fill="white">
<path fill-rule="evenodd" clip-rule="evenodd" d="M149.815 28.9303C150.754 28.3571 151.615 27.8946 152.407 27.5333L162.877 44.1119L165.063 42.3575L155.129 26.6266C159.129 25.8849 161.064 28.6462 163.841 32.6108L163.841 32.6108C164.123 33.0135 164.414 33.4287 164.717 33.8538C168.566 39.2623 169.043 46.2219 166.232 50.7906L194.918 87.4046L187.583 93.5249L161.656 54.7038C157.024 56.5335 151.143 54.3857 147.348 49.0524C143.952 44.2811 140.806 39.2474 143.466 34.5183L153.524 50.4454L155.711 48.691L145.293 32.1939C145.903 31.5999 146.624 31.0126 147.469 30.4331L157.544 46.386L159.73 44.6316L149.815 28.9303Z"/>
</mask>
<path fill-rule="evenodd" clip-rule="evenodd" d="M149.815 28.9303C150.754 28.3571 151.615 27.8946 152.407 27.5333L162.877 44.1119L165.063 42.3575L155.129 26.6266C159.129 25.8849 161.064 28.6462 163.841 32.6108L163.841 32.6108C164.123 33.0135 164.414 33.4287 164.717 33.8538C168.566 39.2623 169.043 46.2219 166.232 50.7906L194.918 87.4046L187.583 93.5249L161.656 54.7038C157.024 56.5335 151.143 54.3857 147.348 49.0524C143.952 44.2811 140.806 39.2474 143.466 34.5183L153.524 50.4454L155.711 48.691L145.293 32.1939C145.903 31.5999 146.624 31.0126 147.469 30.4331L157.544 46.386L159.73 44.6316L149.815 28.9303Z" fill="#D9D9D9"/>
<path d="M152.407 27.5333L152.853 27.2632L152.629 26.9076L152.211 27.0983L152.407 27.5333ZM149.815 28.9303L149.558 28.5274L149.114 28.798L149.368 29.2004L149.815 28.9303ZM162.877 44.1119L162.43 44.382L162.725 44.8487L163.193 44.473L162.877 44.1119ZM165.063 42.3575L165.38 42.7186L165.731 42.4371L165.51 42.0874L165.063 42.3575ZM155.129 26.6266L155.065 26.1499L154.3 26.2916L154.682 26.8967L155.129 26.6266ZM163.841 32.6108L163.406 32.8983L163.411 32.9044L163.841 32.6108ZM163.841 32.6108L164.276 32.3232L164.272 32.3171L163.841 32.6108ZM164.717 33.8538L165.15 33.5636L165.15 33.5636L164.717 33.8538ZM166.232 50.7907L165.792 50.569L165.619 50.8511L165.811 51.0971L166.232 50.7907ZM194.918 87.4046L195.243 87.7589L195.614 87.4492L195.339 87.0982L194.918 87.4046ZM187.583 93.5249L187.142 93.8044L187.448 94.2625L187.908 93.8792L187.583 93.5249ZM161.656 54.7038L162.097 54.4243L161.881 54.1016L161.487 54.2573L161.656 54.7038ZM147.348 49.0524L147.781 48.7622L147.348 49.0524ZM143.466 34.5183L143.912 34.2482L143.458 33.528L143.015 34.3143L143.466 34.5183ZM153.524 50.4454L153.078 50.7155L153.372 51.1822L153.841 50.8065L153.524 50.4454ZM155.711 48.691L156.027 49.0521L156.378 48.7706L156.157 48.421L155.711 48.691ZM145.293 32.1939L144.936 31.8683L144.647 32.1493L144.846 32.464L145.293 32.1939ZM147.469 30.4331L147.916 30.163L147.644 29.733L147.187 30.0467L147.469 30.4331ZM157.544 46.386L157.097 46.6561L157.392 47.1228L157.86 46.7471L157.544 46.386ZM159.73 44.6316L160.047 44.9927L160.398 44.7112L160.177 44.3615L159.73 44.6316ZM152.211 27.0983C151.393 27.471 150.513 27.945 149.558 28.5274L150.071 29.3332C150.996 28.7692 151.836 28.3181 152.603 27.9683L152.211 27.0983ZM163.323 43.8418L152.853 27.2632L151.96 27.8034L162.43 44.382L163.323 43.8418ZM164.747 41.9964L162.56 43.7508L163.193 44.473L165.38 42.7186L164.747 41.9964ZM154.682 26.8967L164.617 42.6276L165.51 42.0874L155.575 26.3565L154.682 26.8967ZM164.276 32.3232C162.9 30.3585 161.685 28.6184 160.296 27.4776C158.872 26.3078 157.241 25.7465 155.065 26.1499L155.193 27.1032C157.018 26.765 158.354 27.2135 159.591 28.2301C160.864 29.2757 162.005 30.8985 163.406 32.8983L164.276 32.3232ZM164.272 32.3171L164.272 32.3171L163.411 32.9044L163.411 32.9045L164.272 32.3171ZM165.15 33.5636C164.848 33.14 164.558 32.7262 164.276 32.3233L163.406 32.8983C163.688 33.3009 163.98 33.7173 164.284 34.144L165.15 33.5636ZM166.672 51.0123C169.61 46.2369 169.075 39.0788 165.15 33.5636L164.284 34.144C168.057 39.4459 168.476 46.2069 165.792 50.569L166.672 51.0123ZM165.811 51.0971L194.497 87.7111L195.339 87.0982L166.653 50.4842L165.811 51.0971ZM194.593 87.0504L187.258 93.1707L187.908 93.8792L195.243 87.7589L194.593 87.0504ZM188.023 93.2454L162.097 54.4243L161.216 54.9832L187.142 93.8044L188.023 93.2454ZM146.915 49.3426C150.781 54.7749 156.881 57.1034 161.825 55.1503L161.487 54.2573C157.167 55.9635 151.506 53.9965 147.781 48.7622L146.915 49.3426ZM143.015 34.3143C141.593 36.8438 141.743 39.4338 142.648 41.9541C143.549 44.4633 145.218 46.9588 146.915 49.3426L147.781 48.7622C146.082 46.3747 144.48 43.9677 143.624 41.585C142.773 39.2133 142.679 36.9219 143.916 34.7222L143.015 34.3143ZM153.971 50.1754L143.912 34.2482L143.019 34.7884L153.078 50.7155L153.971 50.1754ZM155.394 48.33L153.208 50.0844L153.841 50.8065L156.027 49.0521L155.394 48.33ZM144.846 32.464L155.264 48.9611L156.157 48.421L145.739 31.9238L144.846 32.464ZM147.187 30.0467C146.319 30.6421 145.572 31.2494 144.936 31.8683L145.649 32.5195C146.234 31.9505 146.93 31.3831 147.751 30.8194L147.187 30.0467ZM157.99 46.1159L147.916 30.163L147.022 30.7032L157.097 46.6561L157.99 46.1159ZM159.414 44.2706L157.227 46.025L157.86 46.7471L160.047 44.9927L159.414 44.2706ZM149.368 29.2004L159.284 44.9017L160.177 44.3615L150.261 28.6602L149.368 29.2004Z" fill="#4E4E4E" fill-opacity="0.75" mask="url(#path-10-inside-1_19_277)"/>
</g>
<ellipse cx="3.73797" cy="1.18155" rx="3.73797" ry="1.18155" transform="matrix(-0.296312 0.948655 -0.987792 -0.201827 167.387 43.1333)" fill="#ECEBEB" fill-opacity="0.9"/>
<ellipse cx="3.24579" cy="0.968105" rx="3.24579" ry="0.968105" transform="matrix(0.506397 0.819734 -0.80967 0.639371 161.404 30.0421)" fill="#ECEBEB" fill-opacity="0.9"/>
<g filter="url(#filter3_d_19_277)">
<mask id="path-14-outside-2_19_277" maskUnits="userSpaceOnUse" x="160.626" y="9.75524" width="52.8256" height="79.033" fill="black">
<rect fill="white" x="160.626" y="9.75524" width="52.8256" height="79.033"/>
<path fill-rule="evenodd" clip-rule="evenodd" d="M185.92 42.2961C189.109 38.2526 189.235 30.8633 185.925 24.4894C182.114 17.1509 175.191 13.9375 170.463 17.3119C165.734 20.6864 164.99 29.3709 168.801 36.7094C172.107 43.0758 177.755 46.3376 182.281 44.8868L199.38 84.0343L206.748 78.7769L185.92 42.2961Z"/>
</mask>
<path fill-rule="evenodd" clip-rule="evenodd" d="M185.92 42.2961C189.109 38.2526 189.235 30.8633 185.925 24.4894C182.114 17.1509 175.191 13.9375 170.463 17.3119C165.734 20.6864 164.99 29.3709 168.801 36.7094C172.107 43.0758 177.755 46.3376 182.281 44.8868L199.38 84.0343L206.748 78.7769L185.92 42.2961Z" fill="#E2DFDF"/>
<path d="M185.92 42.2961L185.58 41.957L185.332 42.2713L185.522 42.6041L185.92 42.2961ZM182.281 44.8868L182.702 44.6274L182.542 44.2612L182.181 44.3771L182.281 44.8868ZM199.38 84.0343L198.959 84.2937L199.175 84.7891L199.611 84.478L199.38 84.0343ZM206.748 78.7769L206.978 79.2206L207.402 78.9183L207.145 78.4689L206.748 78.7769ZM185.518 24.7798C188.774 31.0502 188.571 38.1646 185.58 41.957L186.259 42.6352C189.646 38.3407 189.696 30.6763 186.332 24.199L185.518 24.7798ZM170.693 17.7556C172.889 16.1887 175.635 16.1215 178.337 17.376C181.039 18.6299 183.654 21.1908 185.518 24.7798L186.332 24.199C184.385 20.4495 181.634 17.7344 178.739 16.3906C175.845 15.0474 172.765 15.0606 170.232 16.8682L170.693 17.7556ZM169.208 36.419C167.344 32.8299 166.605 28.9303 166.895 25.5416C167.185 22.151 168.497 19.3226 170.693 17.7556L170.232 16.8682C167.699 18.6757 166.275 21.8768 165.964 25.5067C165.653 29.1385 166.447 33.2504 168.394 36.9998L169.208 36.419ZM182.181 44.3771C177.935 45.738 172.46 42.6818 169.208 36.419L168.394 36.9998C171.754 43.4697 177.574 46.9372 182.381 45.3966L182.181 44.3771ZM199.802 83.7749L182.702 44.6274L181.859 45.1462L198.959 84.2937L199.802 83.7749ZM206.517 78.3331L199.15 83.5906L199.611 84.478L206.978 79.2206L206.517 78.3331ZM185.522 42.6041L206.35 79.0848L207.145 78.4689L186.317 41.9882L185.522 42.6041Z" fill="#4E4E4E" mask="url(#path-14-outside-2_19_277)"/>
</g>
<ellipse cx="7.1008" cy="2.81804" rx="7.1008" ry="2.81804" transform="matrix(0.587121 0.809499 -0.741784 0.670639 173.281 22.8049)" fill="#F7F5F5" fill-opacity="0.9"/>
<g filter="url(#filter4_d_19_277)">
<path d="M30.4695 95.5338C29.7411 95.2903 29.0731 95.2019 28.4653 95.2687C27.8576 95.3355 27.4924 95.5508 27.3699 95.9147C26.3125 97.4507 24.361 102.444 21.5154 110.895C18.6835 119.306 17.0771 124.01 16.6963 125.008C17.0567 126.478 18.0462 127.483 19.6648 128.024C22.5378 128.985 25.2337 128.131 27.7524 125.464C30.2848 122.757 32.3543 119.018 33.9608 114.246C35.581 109.434 36.1595 105.376 35.6963 102.072C35.2467 98.7279 33.5044 96.5484 30.4695 95.5338ZM5.41762 131.629C4.83787 131.345 4.59565 131.062 4.69095 130.779L5.11812 130.112C6.86497 128.267 10.0189 120.571 14.58 107.025C16.7584 100.555 17.9378 96.4506 18.1182 94.7114C18.3391 92.9857 18.4233 91.8667 18.3707 91.3543L18.2714 90.6463C18.164 90.4304 18.158 90.1809 18.2533 89.8979C18.3622 89.5744 18.6935 89.3927 19.2472 89.3529C22.8255 89.1545 27.1843 89.9143 32.3234 91.6323C43.1277 95.2442 46.2152 103.924 41.5861 117.672C39.7753 123.05 37.1701 127.646 33.7706 131.458C32.4299 132.899 31.0427 134.077 29.609 134.993C28.1889 135.868 26.5064 136.452 24.5614 136.747C22.6705 137.014 20.7336 136.817 18.7508 136.154C18.3598 135.978 17.8541 135.742 17.2339 135.444C16.6542 135.161 15.8256 134.546 14.7481 133.601C13.7112 132.67 13.1131 131.705 12.9539 130.707C10.7623 132.269 8.2502 132.576 5.41762 131.629Z" fill="white"/>
<path d="M28.4653 95.2687L28.3576 94.2754L28.3576 94.2754L28.4653 95.2687ZM27.3699 95.9147L28.1942 96.4799L28.2736 96.3645L28.3183 96.2318L27.3699 95.9147ZM16.6963 125.008L15.7614 124.653L15.6501 124.944L15.7243 125.247L16.6963 125.008ZM27.7524 125.464L28.4798 126.149L28.4831 126.146L27.7524 125.464ZM35.6963 102.072L34.7045 102.207L34.7053 102.213L35.6963 102.072ZM5.41762 131.629L4.97597 132.527L5.03557 132.556L5.09852 132.577L5.41762 131.629ZM4.69095 130.779L3.84825 130.242L3.78183 130.345L3.74254 130.462L4.69095 130.779ZM5.11812 130.112L4.39153 129.426L4.32646 129.495L4.27542 129.575L5.11812 130.112ZM18.1182 94.7114L17.1257 94.5864L17.1241 94.5982L17.1229 94.6101L18.1182 94.7114ZM18.3707 91.3543L19.3662 91.2507L19.3643 91.2323L19.3617 91.214L18.3707 91.3543ZM18.2714 90.6463L19.2624 90.506L19.2399 90.3454L19.1677 90.2003L18.2714 90.6463ZM19.2472 89.3529L19.1934 88.3551L19.1852 88.3555L19.177 88.3561L19.2472 89.3529ZM33.7706 131.458L34.5032 132.137L34.5103 132.129L34.5173 132.122L33.7706 131.458ZM29.609 134.993L30.1333 135.843L30.1402 135.839L30.1469 135.834L29.609 134.993ZM24.5614 136.747L24.7001 137.736L24.7097 137.735L24.5614 136.747ZM18.7508 136.154L18.3389 137.065L18.3844 137.086L18.4317 137.102L18.7508 136.154ZM17.2339 135.444L16.7922 136.342L16.7996 136.345L17.2339 135.444ZM14.7481 133.601L14.0782 134.345L14.0871 134.353L14.7481 133.601ZM12.9539 130.707L13.9421 130.548L13.6883 128.957L12.3736 129.894L12.9539 130.707ZM30.7886 94.5861C29.9572 94.3082 29.1413 94.1893 28.3576 94.2754L28.573 96.2621C29.0048 96.2146 29.525 96.2725 30.1504 96.4815L30.7886 94.5861ZM28.3576 94.2754C27.615 94.3569 26.7332 94.6721 26.4215 95.5977L28.3183 96.2318C28.3095 96.2579 28.2939 96.2869 28.2727 96.312C28.2526 96.3359 28.2382 96.3436 28.2434 96.3406C28.2618 96.3297 28.3527 96.2863 28.573 96.2621L28.3576 94.2754ZM26.5456 95.3495C25.941 96.2278 25.1509 97.9684 24.1811 100.45C23.1971 102.968 21.992 106.346 20.567 110.578L22.4638 111.212C23.8844 106.994 25.0779 103.649 26.0453 101.174C27.027 98.6618 27.7414 97.1376 28.1942 96.4799L26.5456 95.3495ZM20.567 110.578C17.73 119.004 16.1329 123.68 15.7614 124.653L17.6312 125.362C18.0213 124.34 19.637 119.608 22.4638 111.212L20.567 110.578ZM15.7243 125.247C16.1777 127.096 17.4507 128.339 19.3457 128.972L19.9839 127.077C18.6416 126.628 17.9356 125.859 17.6682 124.768L15.7243 125.247ZM19.3457 128.972C20.9676 129.514 22.5773 129.553 24.1423 129.057C25.6942 128.566 27.1373 127.571 28.4798 126.149L27.025 124.779C25.8489 126.025 24.6846 126.79 23.5407 127.152C22.4097 127.51 21.235 127.495 19.9839 127.077L19.3457 128.972ZM28.4831 126.146C31.1418 123.303 33.2725 119.424 34.9092 114.563L33.0124 113.929C31.436 118.611 29.4278 122.211 27.0217 124.783L28.4831 126.146ZM34.9092 114.563C36.5555 109.674 37.1803 105.449 36.6873 101.932L34.7053 102.213C35.1387 105.304 34.6066 109.195 33.0124 113.929L34.9092 114.563ZM36.688 101.938C36.4442 100.124 35.8403 98.5629 34.8348 97.305C33.8269 96.0442 32.4612 95.1452 30.7886 94.5861L30.1504 96.4815C31.5127 96.9369 32.5356 97.635 33.2699 98.5537C34.0067 99.4753 34.4988 100.676 34.7045 102.207L36.688 101.938ZM5.85927 130.732C5.74673 130.677 5.66806 130.63 5.61588 130.594C5.56191 130.557 5.55184 130.542 5.56272 130.554C5.57437 130.568 5.62291 130.629 5.65147 130.739C5.68277 130.86 5.67614 130.987 5.63936 131.096L3.74254 130.462C3.55386 131.022 3.75623 131.522 4.03956 131.853C4.29151 132.148 4.64013 132.362 4.97597 132.527L5.85927 130.732ZM5.53365 131.316L5.96082 130.649L4.27542 129.575L3.84825 130.242L5.53365 131.316ZM5.8447 130.798C6.38542 130.227 6.96333 129.291 7.58226 128.086C8.21294 126.858 8.92559 125.271 9.71971 123.333C11.3085 119.457 13.2451 114.123 15.5284 107.342L13.6316 106.708C11.3538 113.473 9.43287 118.76 7.86773 122.579C7.08488 124.489 6.39644 126.019 5.80191 127.176C5.19564 128.356 4.72424 129.075 4.39153 129.426L5.8447 130.798ZM15.5284 107.342C16.6199 104.1 17.4646 101.441 18.0602 99.3683C18.6496 97.3171 19.0132 95.7797 19.1136 94.8127L17.1229 94.6101C17.0428 95.3823 16.7266 96.7667 16.1366 98.82C15.5527 100.852 14.7185 103.48 13.6316 106.708L15.5284 107.342ZM19.1108 94.8364C19.3279 93.1405 19.4327 91.8998 19.3662 91.2507L17.3753 91.4578C17.4138 91.8335 17.3503 92.831 17.1257 94.5864L19.1108 94.8364ZM19.3617 91.214L19.2624 90.506L17.2805 90.7865L17.3797 91.4945L19.3617 91.214ZM19.1677 90.2003C19.1736 90.2122 19.1787 90.2258 19.1822 90.2401C19.1856 90.2542 19.1866 90.2652 19.1867 90.2714C19.187 90.2834 19.1842 90.2671 19.2017 90.2149L17.3049 89.5808C17.1463 90.052 17.1231 90.5855 17.3752 91.0922L19.1677 90.2003ZM19.2017 90.2149C19.1879 90.2559 19.164 90.2994 19.131 90.3372C19.0992 90.3737 19.0716 90.3906 19.0639 90.3948C19.0578 90.3981 19.0714 90.3897 19.1153 90.3787C19.1591 90.3677 19.2249 90.3563 19.3174 90.3496L19.177 88.3561C18.5008 88.4048 17.6133 88.6648 17.3049 89.5808L19.2017 90.2149ZM19.3009 90.3507C22.7053 90.162 26.9297 90.8836 32.0043 92.58L32.6425 90.6846C27.4389 88.945 22.9458 88.1471 19.1934 88.3551L19.3009 90.3507ZM32.0043 92.58C37.1909 94.3139 40.3823 97.2036 41.7993 101.187C43.2359 105.226 42.9192 110.58 40.6377 117.355L42.5345 117.99C44.8822 111.017 45.3363 105.157 43.6853 100.515C42.0147 95.8188 38.2601 92.5626 32.6425 90.6846L32.0043 92.58ZM40.6377 117.355C38.8652 122.62 36.3238 127.093 33.0238 130.794L34.5173 132.122C38.0164 128.198 40.6854 123.481 42.5345 117.99L40.6377 117.355ZM33.038 130.778C31.7462 132.167 30.4231 133.288 29.0711 134.151L30.1469 135.834C31.6623 134.867 33.1136 133.631 34.5032 132.137L33.038 130.778ZM29.0847 134.142C27.7981 134.935 26.2483 135.481 24.413 135.759L24.7097 137.735C26.7644 137.424 28.5797 136.8 30.1333 135.843L29.0847 134.142ZM24.4227 135.757C22.6999 136.001 20.9198 135.825 19.0699 135.206L18.4317 137.102C20.5474 137.809 22.641 138.028 24.7001 137.736L24.4227 135.757ZM19.1627 135.242C18.7822 135.072 18.2848 134.839 17.6682 134.543L16.7996 136.345C17.4234 136.645 17.9373 136.885 18.3389 137.065L19.1627 135.242ZM17.6756 134.547C17.2244 134.326 16.4808 133.79 15.4092 132.85L14.0871 134.353C15.1703 135.303 16.0839 135.995 16.7923 136.342L17.6756 134.547ZM15.418 132.858C14.4872 132.022 14.0538 131.248 13.9421 130.548L11.9657 130.866C12.1724 132.162 12.9351 133.318 14.0782 134.345L15.418 132.858ZM12.3736 129.894C10.475 131.247 8.30452 131.54 5.73672 130.681L5.09852 132.577C8.19588 133.612 11.0496 133.291 13.5342 131.52L12.3736 129.894Z" fill="#EA7AFC"/>
<path d="M46.8391 125.88L46.6049 127.464C46.5573 127.715 46.7013 127.872 47.0368 127.935C48.4025 128.061 49.64 127.946 50.7495 127.59C51.8668 127.192 52.7445 126.684 53.3824 126.065C54.682 124.703 55.4806 123.464 55.7784 122.348L55.984 121.605C56.4118 119.341 55.7241 118.04 53.9209 117.701C52.579 117.45 51.3778 117.832 50.3172 118.848C48.5848 120.433 47.4254 122.777 46.8391 125.88ZM58.9711 136.816C58.6701 138.41 58.0691 139.751 57.1684 140.841C56.3176 141.897 55.4173 142.64 54.4677 143.069C53.5679 143.465 52.5412 143.728 51.3875 143.859C49.9244 144.018 48.5639 143.98 47.3058 143.744C43.7833 143.083 41.4329 141.275 40.2547 138.319C39.0764 135.363 38.8716 131.851 39.6401 127.785C40.4166 123.676 42.1333 120.221 44.7902 117.421C47.4891 114.628 50.9144 113.621 55.0659 114.4C58.8401 115.108 61.1485 116.909 61.9913 119.802C62.3463 120.91 62.4366 121.925 62.2623 122.848C62.0959 123.728 61.9193 124.433 61.7324 124.962C61.5535 125.45 61.1134 126.17 60.4121 127.124C59.7108 128.078 58.8615 128.895 57.8644 129.576C56.8672 130.257 55.3957 130.806 53.4499 131.222C51.5041 131.639 49.2913 131.744 46.8116 131.54C46.4761 131.477 46.2806 131.592 46.2251 131.885C46.1538 132.263 46.1727 132.852 46.2817 133.654C46.4405 134.422 46.6401 135.089 46.8806 135.655C47.5813 137.002 48.8332 137.845 50.6364 138.183C52.4396 138.521 54.0812 138.221 55.5611 137.284C56.3509 136.781 57.0426 136.107 57.6363 135.264C57.8674 134.96 58.1088 134.831 58.3604 134.879C58.6539 134.934 58.841 135.208 58.9216 135.7C59.0021 136.193 59.0187 136.565 58.9711 136.816Z" fill="white"/>
<path d="M46.8391 125.88L45.8562 125.695L45.8525 125.715L45.8496 125.735L46.8391 125.88ZM46.6049 127.464L47.5877 127.648L47.5914 127.628L47.5943 127.609L46.6049 127.464ZM47.0368 127.935L46.8511 128.918L46.897 128.927L46.9436 128.931L47.0368 127.935ZM50.7495 127.59L51.0543 128.542L51.0694 128.537L51.0843 128.532L50.7495 127.59ZM53.3824 126.065L54.0782 126.783L54.0923 126.769L54.1059 126.755L53.3824 126.065ZM55.7784 122.348L54.8144 122.082L54.812 122.091L55.7784 122.348ZM55.984 121.605L56.948 121.87L56.9591 121.83L56.9668 121.789L55.984 121.605ZM50.3172 118.848L50.9921 119.585L51.0007 119.578L51.0091 119.57L50.3172 118.848ZM57.1684 140.841L56.3975 140.205L56.3898 140.214L57.1684 140.841ZM54.4677 143.069L54.8695 143.984L54.8792 143.98L54.4677 143.069ZM51.3875 143.859L51.4948 144.853L51.4991 144.852L51.3875 143.859ZM40.2547 138.319L41.1839 137.948L40.2547 138.319ZM44.7902 117.421L44.0712 116.727L44.0648 116.733L44.7902 117.421ZM61.9913 119.802L61.0309 120.082L61.0346 120.095L61.0386 120.107L61.9913 119.802ZM61.7324 124.962L62.6714 125.306L62.6756 125.294L61.7324 124.962ZM57.8644 129.576L57.3007 128.751L57.3007 128.751L57.8644 129.576ZM53.4499 131.222L53.2417 130.245L53.2417 130.245L53.4499 131.222ZM46.8116 131.54L46.6259 132.522L46.6766 132.532L46.728 132.536L46.8116 131.54ZM46.2817 133.654L45.2905 133.79L45.2952 133.824L45.3021 133.858L46.2817 133.654ZM46.8806 135.655L45.9598 136.046L45.975 136.082L45.993 136.117L46.8806 135.655ZM55.5611 137.284L56.0959 138.128L56.0978 138.127L55.5611 137.284ZM57.6363 135.264L56.8402 134.659L56.829 134.674L56.8184 134.689L57.6363 135.264ZM58.9216 135.7L59.9087 135.538L59.9087 135.538L58.9216 135.7ZM45.8496 125.735L45.6154 127.319L47.5943 127.609L47.8286 126.025L45.8496 125.735ZM45.622 127.279C45.5529 127.645 45.6109 128.087 45.9389 128.446C46.2213 128.754 46.5888 128.869 46.8511 128.918L47.2225 126.953C47.1492 126.939 47.2771 126.944 47.4155 127.095C47.4928 127.179 47.551 127.286 47.5787 127.404C47.6049 127.515 47.5963 127.603 47.5877 127.648L45.622 127.279ZM46.9436 128.931C48.42 129.067 49.7958 128.946 51.0543 128.542L50.4446 126.638C49.4843 126.947 48.3849 127.056 47.1299 126.94L46.9436 128.931ZM51.0843 128.532C52.2937 128.101 53.309 127.528 54.0782 126.783L52.6865 125.348C52.1799 125.839 51.44 126.283 50.4146 126.648L51.0843 128.532ZM54.1059 126.755C55.4564 125.339 56.3847 123.954 56.7449 122.604L54.812 122.091C54.5766 122.973 53.9075 124.067 52.6588 125.376L54.1059 126.755ZM56.7425 122.613L56.948 121.87L55.0199 121.339L54.8144 122.082L56.7425 122.613ZM56.9668 121.789C57.2004 120.553 57.1682 119.399 56.6736 118.463C56.1531 117.478 55.2267 116.929 54.1066 116.719L53.7352 118.684C54.4183 118.812 54.7374 119.082 54.9045 119.399C55.0977 119.764 55.1953 120.393 55.0011 121.42L56.9668 121.789ZM54.1066 116.719C52.4203 116.402 50.8986 116.907 49.6254 118.127L51.0091 119.57C51.8569 118.757 52.7377 118.497 53.7352 118.684L54.1066 116.719ZM49.6424 118.111C47.703 119.886 46.469 122.453 45.8562 125.695L47.8219 126.064C48.3818 123.101 49.4665 120.981 50.9921 119.585L49.6424 118.111ZM57.9883 136.632C57.7139 138.084 57.1756 139.263 56.3976 140.205L57.9393 141.477C58.9627 140.239 59.6262 138.735 59.954 137.001L57.9883 136.632ZM56.3898 140.214C55.6087 141.184 54.8264 141.81 54.0562 142.158L54.8792 143.98C56.0082 143.469 57.0264 142.61 57.9471 141.468L56.3898 140.214ZM54.0659 142.154C53.2734 142.502 52.3472 142.744 51.2759 142.865L51.4991 144.852C52.7352 144.712 53.8624 144.427 54.8694 143.984L54.0659 142.154ZM51.2802 142.865C49.9005 143.015 48.6398 142.977 47.4915 142.761L47.1201 144.727C48.4879 144.983 49.9483 145.021 51.4948 144.853L51.2802 142.865ZM47.4915 142.761C44.2554 142.154 42.2178 140.541 41.1839 137.948L39.3254 138.69C40.648 142.008 43.3112 144.012 47.1201 144.727L47.4915 142.761ZM41.1839 137.948C40.0941 135.214 39.8793 131.904 40.623 127.969L38.6573 127.6C37.8639 131.798 38.0587 135.512 39.3254 138.69L41.1839 137.948ZM40.623 127.969C41.3668 124.033 43.0022 120.758 45.5157 118.108L44.0648 116.733C41.2644 119.685 39.4663 123.319 38.6573 127.6L40.623 127.969ZM45.5093 118.115C47.9507 115.588 51.0248 114.659 54.8802 115.382L55.2516 113.417C50.8039 112.583 47.0276 113.667 44.0712 116.727L45.5093 118.115ZM54.8802 115.382C58.4044 116.044 60.3236 117.654 61.0309 120.082L62.9516 119.521C61.9734 116.163 59.2757 114.172 55.2516 113.417L54.8802 115.382ZM61.0386 120.107C61.3549 121.095 61.4163 121.939 61.2795 122.663L63.2452 123.032C63.4569 121.912 63.3376 120.725 62.9439 119.496L61.0386 120.107ZM61.2795 122.663C61.1177 123.52 60.9522 124.169 60.7892 124.631L62.6756 125.294C62.8864 124.697 63.0742 123.937 63.2452 123.032L61.2795 122.663ZM60.7935 124.619C60.6677 124.961 60.3046 125.583 59.6064 126.532L61.2178 127.715C61.9221 126.758 62.4392 125.938 62.6714 125.306L60.7935 124.619ZM59.6064 126.532C58.9733 127.393 58.2065 128.132 57.3007 128.751L58.428 130.401C59.5166 129.658 60.4482 128.762 61.2178 127.715L59.6064 126.532ZM57.3007 128.751C56.4585 129.326 55.1321 129.84 53.2417 130.245L53.6581 132.2C55.6594 131.772 57.276 131.188 58.428 130.401L57.3007 128.751ZM53.2417 130.245C51.4122 130.636 49.3006 130.742 46.8951 130.543L46.728 132.536C49.282 132.747 51.596 132.641 53.6581 132.2L53.2417 130.245ZM46.9972 130.557C46.7079 130.503 46.2958 130.488 45.9059 130.718C45.4867 130.965 45.3056 131.366 45.2423 131.701L47.208 132.07C47.2002 132.111 47.1445 132.308 46.9208 132.44C46.7263 132.554 46.5798 132.514 46.6259 132.522L46.9972 130.557ZM45.2423 131.701C45.1391 132.247 45.1794 132.973 45.2905 133.79L47.2728 133.518C47.1659 132.732 47.1685 132.278 47.208 132.07L45.2423 131.701ZM45.3021 133.858C45.4709 134.673 45.6878 135.406 45.9598 136.046L47.8013 135.263C47.5925 134.772 47.4102 134.17 47.2612 133.451L45.3021 133.858ZM45.993 136.117C46.865 137.793 48.4156 138.784 50.4507 139.165L50.8221 137.2C49.2509 136.905 48.2976 136.211 47.7681 135.193L45.993 136.117ZM50.4507 139.165C52.4898 139.548 54.3909 139.208 56.0959 138.128L55.0262 136.439C53.7714 137.235 52.3895 137.494 50.8221 137.2L50.4507 139.165ZM56.0978 138.127C57.0087 137.546 57.7929 136.778 58.4542 135.838L56.8184 134.689C56.2923 135.437 55.693 136.015 55.0243 136.441L56.0978 138.127ZM58.4323 135.868C58.4928 135.789 58.507 135.797 58.4596 135.822C58.4328 135.836 58.3905 135.853 58.3349 135.863C58.2786 135.872 58.2234 135.87 58.1747 135.861L58.5461 133.896C57.7542 133.747 57.1747 134.219 56.8402 134.659L58.4323 135.868ZM58.1747 135.861C58.1153 135.85 58.052 135.825 57.9948 135.786C57.9394 135.748 57.908 135.709 57.8945 135.69C57.8822 135.672 57.886 135.671 57.8967 135.702C57.9074 135.733 57.9216 135.784 57.9344 135.863L59.9087 135.538C59.8115 134.944 59.4958 134.074 58.5461 133.896L58.1747 135.861ZM57.9344 135.863C58.0106 136.328 58.0022 136.558 57.9883 136.632L59.954 137.001C60.0351 136.572 59.9937 136.057 59.9087 135.538L57.9344 135.863Z" fill="#EA7AFC"/>
<path d="M83.6072 137.639C83.4732 139.469 82.9947 141.038 82.1715 142.347C81.391 143.659 80.5305 144.602 79.5901 145.175C78.6497 145.749 77.5485 146.182 76.2864 146.475C74.6319 146.868 73.1451 147.017 71.8259 146.921C69.0599 146.72 66.8009 146.021 65.0489 144.824C63.3001 143.585 62.5129 141.774 62.6874 139.391C62.7903 137.986 63.2574 136.865 64.0888 136.027C65.3769 134.795 66.8508 134.239 68.5104 134.36C69.021 134.397 69.2592 134.649 69.225 135.117C69.2218 135.16 69.0905 135.493 68.831 136.115C68.6172 136.699 68.476 137.459 68.4074 138.395C68.3389 139.331 68.6398 140.187 69.3103 140.963C70.0233 141.742 70.9117 142.17 71.9756 142.248C73.0394 142.325 73.903 142.217 74.5662 141.923C75.2326 141.586 75.7137 141.15 76.0095 140.616C76.4486 139.878 76.6931 139.168 76.7429 138.487C76.8333 137.253 76.2941 136.145 75.1255 135.161C73.9569 134.178 72.6465 133.377 71.1945 132.758C69.7425 132.139 68.4431 131.189 67.2962 129.908C66.1494 128.627 65.6414 127.092 65.7723 125.305C65.9966 122.241 67.1224 120.013 69.1495 118.62C71.2192 117.231 73.9136 116.657 77.2329 116.898C78.6797 117.003 80.1748 117.326 81.7182 117.866C83.3072 118.366 84.0659 119.106 83.9942 120.085C83.9257 121.021 83.6916 121.881 83.2919 122.665C82.9348 123.451 82.5222 123.828 82.0541 123.794C81.7988 123.775 81.6348 123.678 81.5622 123.501C81.4927 123.282 81.3609 123.037 81.1668 122.767C80.9727 122.496 80.4854 122.14 79.7049 121.698C78.9276 121.214 78.241 120.95 77.6452 120.906C77.092 120.866 76.7075 120.86 76.4916 120.887C76.3214 120.874 75.9975 120.915 75.5201 121.009C75.0458 121.06 74.6093 121.178 74.2107 121.363C73.1915 121.845 72.6429 122.618 72.565 123.681C72.5152 124.362 72.6267 124.884 72.8997 125.246C73.1757 125.565 73.3926 125.816 73.5504 125.999C73.7082 126.182 73.9905 126.416 74.3973 126.702C74.8073 126.946 75.0942 127.117 75.2582 127.214C75.4222 127.311 75.7912 127.531 76.3651 127.872C76.9422 128.171 77.3127 128.369 77.4767 128.466C81.8317 130.922 83.8752 133.979 83.6072 137.639Z" fill="white"/>
<path d="M82.1715 142.347L81.325 141.815L81.3184 141.826L81.3121 141.836L82.1715 142.347ZM79.5901 145.175L79.0698 144.322L79.0698 144.322L79.5901 145.175ZM76.2864 146.475L76.0605 145.501L76.0557 145.502L76.2864 146.475ZM65.0489 144.824L64.4704 145.64L64.4774 145.645L64.4845 145.65L65.0489 144.824ZM64.0888 136.027L63.3976 135.305L63.3882 135.314L63.3791 135.323L64.0888 136.027ZM68.831 136.115L67.9079 135.731L67.8996 135.751L67.8921 135.772L68.831 136.115ZM69.3103 140.963L68.5534 141.617L68.5627 141.628L68.5724 141.638L69.3103 140.963ZM74.5662 141.923L74.9712 142.837L74.9942 142.826L75.0168 142.815L74.5662 141.923ZM76.0095 140.616L75.1501 140.105L75.1421 140.118L75.1346 140.132L76.0095 140.616ZM75.1255 135.161L75.7696 134.396L75.7696 134.396L75.1255 135.161ZM71.1945 132.758L71.5871 131.838L71.5871 131.838L71.1945 132.758ZM67.2962 129.908L66.5509 130.575L66.5509 130.575L67.2962 129.908ZM69.1495 118.62L68.5923 117.79L68.5835 117.796L69.1495 118.62ZM81.7182 117.866L81.3874 118.81L81.4023 118.815L81.4172 118.82L81.7182 117.866ZM83.2919 122.665L82.401 122.211L82.3907 122.231L82.3813 122.252L83.2919 122.665ZM81.5622 123.501L80.609 123.804L80.6216 123.844L80.6375 123.882L81.5622 123.501ZM81.1668 122.767L81.9797 122.184L81.9797 122.184L81.1668 122.767ZM79.7049 121.698L79.1758 122.547L79.1937 122.558L79.212 122.568L79.7049 121.698ZM76.4916 120.887L76.4186 121.884L76.5173 121.891L76.6156 121.879L76.4916 120.887ZM75.5201 121.009L75.6267 122.003L75.6696 121.998L75.7121 121.99L75.5201 121.009ZM74.2107 121.363L73.7902 120.456L73.7836 120.459L74.2107 121.363ZM72.8997 125.246L72.101 125.848L72.121 125.875L72.1428 125.9L72.8997 125.246ZM73.5504 125.999L72.7935 126.653L72.7935 126.653L73.5504 125.999ZM74.3973 126.702L73.8215 127.52L73.8529 127.542L73.886 127.562L74.3973 126.702ZM75.2582 127.214L74.7469 128.074L74.7469 128.074L75.2582 127.214ZM76.3651 127.872L75.8538 128.732L75.879 128.747L75.9051 128.76L76.3651 127.872ZM77.4767 128.466L76.9654 129.326L76.9752 129.332L76.9852 129.337L77.4767 128.466ZM82.6098 137.566C82.4856 139.263 82.0462 140.668 81.325 141.815L83.0181 142.879C83.9432 141.408 84.4609 139.674 84.6046 137.711L82.6098 137.566ZM81.3121 141.836C80.5844 143.059 79.8276 143.86 79.0698 144.322L80.1104 146.029C81.2334 145.344 82.1975 144.259 83.031 142.858L81.3121 141.836ZM79.0698 144.322C78.235 144.831 77.2366 145.228 76.0605 145.501L76.5122 147.449C77.8604 147.136 79.0645 146.667 80.1104 146.029L79.0698 144.322ZM76.0557 145.502C74.4738 145.878 73.0919 146.01 71.8989 145.924L71.7529 147.918C73.1982 148.023 74.79 147.858 76.5171 147.448L76.0557 145.502ZM71.8989 145.924C69.2564 145.732 67.1814 145.07 65.6134 143.998L64.4845 145.65C66.4203 146.972 68.8634 147.708 71.7529 147.918L71.8989 145.924ZM65.6275 144.008C64.2013 142.997 63.5324 141.545 63.6848 139.463L61.6901 139.318C61.4935 142.002 62.399 144.172 64.4704 145.64L65.6275 144.008ZM63.6848 139.463C63.7737 138.249 64.1665 137.368 64.7985 136.731L63.3791 135.323C62.3483 136.362 61.8068 137.724 61.6901 139.318L63.6848 139.463ZM64.78 136.75C65.88 135.697 67.0817 135.258 68.4374 135.357L68.5834 133.362C66.6199 133.219 64.8738 133.893 63.3976 135.305L64.78 136.75ZM68.4374 135.357C68.5594 135.366 68.4627 135.389 68.3442 135.263C68.285 135.2 68.2521 135.132 68.2373 135.079C68.2242 135.033 68.2297 135.016 68.2276 135.045L70.2223 135.19C70.2524 134.779 70.1718 134.285 69.7998 133.891C69.4431 133.512 68.972 133.39 68.5834 133.362L68.4374 135.357ZM68.2276 135.045C68.2335 134.964 68.2486 134.903 68.2511 134.893C68.2561 134.873 68.2603 134.859 68.2614 134.855C68.2636 134.848 68.2632 134.85 68.2571 134.867C68.2457 134.899 68.2254 134.952 68.1939 135.032C68.1318 135.19 68.037 135.421 67.9079 135.731L69.7541 136.5C69.8846 136.186 69.9851 135.941 70.0543 135.765C70.0885 135.679 70.1179 135.602 70.14 135.54C70.1508 135.51 70.1631 135.475 70.1742 135.439C70.1744 135.438 70.2125 135.324 70.2223 135.19L68.2276 135.045ZM67.8921 135.772C67.6344 136.475 67.4823 137.335 67.4101 138.322L69.4048 138.467C69.4696 137.582 69.5999 136.923 69.7699 136.459L67.8921 135.772ZM67.4101 138.322C67.3203 139.549 67.7273 140.661 68.5534 141.617L70.0672 140.309C69.5524 139.713 69.3575 139.113 69.4048 138.467L67.4101 138.322ZM68.5724 141.638C69.4596 142.608 70.5868 143.149 71.9026 143.245L72.0486 141.25C71.2367 141.191 70.587 140.876 70.0482 140.288L68.5724 141.638ZM71.9026 143.245C73.0587 143.329 74.1037 143.221 74.9712 142.837L74.1613 141.008C73.7023 141.212 73.0202 141.321 72.0486 141.25L71.9026 143.245ZM75.0168 142.815C75.8222 142.408 76.4717 141.846 76.8845 141.1L75.1346 140.132C74.9557 140.455 74.643 140.764 74.1157 141.03L75.0168 142.815ZM76.8689 141.127C77.3674 140.289 77.6766 139.43 77.7403 138.56L75.7456 138.415C75.7096 138.906 75.5298 139.467 75.1501 140.105L76.8689 141.127ZM77.7403 138.56C77.8596 136.93 77.119 135.531 75.7696 134.396L74.4814 135.927C75.4692 136.758 75.807 137.576 75.7456 138.415L77.7403 138.56ZM75.7696 134.396C74.5227 133.347 73.1271 132.494 71.5871 131.838L70.802 133.678C72.166 134.259 73.391 135.009 74.4814 135.927L75.7696 134.396ZM71.5871 131.838C70.2814 131.282 69.0996 130.423 68.0416 129.241L66.5509 130.575C67.7866 131.955 69.2036 132.997 70.802 133.678L71.5871 131.838ZM68.0416 129.241C67.0839 128.171 66.6577 126.907 66.7697 125.378L64.7749 125.233C64.6252 127.278 65.2149 129.082 66.5509 130.575L68.0416 129.241ZM66.7697 125.378C66.9779 122.534 68.0002 120.623 69.7155 119.445L68.5835 117.796C66.2446 119.403 65.0154 121.949 64.7749 125.233L66.7697 125.378ZM69.7067 119.451C71.5371 118.222 73.9889 117.665 77.1598 117.895L77.3059 115.901C73.8384 115.649 70.9013 116.24 68.5923 117.79L69.7067 119.451ZM77.1598 117.895C78.5085 117.993 79.9169 118.295 81.3874 118.81L82.0489 116.922C80.4328 116.356 78.851 116.013 77.3059 115.901L77.1598 117.895ZM81.4172 118.82C82.1393 119.047 82.5594 119.296 82.7806 119.512C82.968 119.695 83.0092 119.843 82.9968 120.012L84.9916 120.157C85.0508 119.348 84.7485 118.637 84.1772 118.08C83.6398 117.556 82.8861 117.185 82.0191 116.912L81.4172 118.82ZM82.9968 120.012C82.9374 120.824 82.7361 121.554 82.401 122.211L84.1828 123.118C84.647 122.208 84.9139 121.217 84.9916 120.157L82.9968 120.012ZM82.3813 122.252C82.2313 122.582 82.1073 122.738 82.0408 122.798C82.0126 122.824 82.0091 122.82 82.0329 122.81C82.0602 122.8 82.0952 122.794 82.1272 122.796L81.9811 124.791C83.1468 124.876 83.828 123.903 84.2025 123.077L82.3813 122.252ZM82.1272 122.796C82.1039 122.795 82.162 122.794 82.251 122.847C82.355 122.909 82.4409 123.008 82.4869 123.12L80.6375 123.882C80.904 124.53 81.4986 124.756 81.9811 124.791L82.1272 122.796ZM82.5153 123.198C82.4033 122.845 82.21 122.505 81.9797 122.184L80.3538 123.349C80.5118 123.57 80.5821 123.719 80.609 123.804L82.5153 123.198ZM81.9797 122.184C81.7899 121.919 81.5179 121.688 81.2463 121.489C80.9603 121.28 80.6074 121.059 80.1979 120.828L79.212 122.568C79.583 122.778 79.8639 122.957 80.0652 123.104C80.1653 123.177 80.2381 123.237 80.2888 123.284C80.3416 123.332 80.3572 123.354 80.3538 123.349L81.9797 122.184ZM80.2341 120.849C79.3859 120.321 78.5396 119.969 77.7183 119.909L77.5722 121.904C77.9424 121.931 78.4692 122.106 79.1758 122.547L80.2341 120.849ZM77.7183 119.909C77.1697 119.869 76.6937 119.854 76.3676 119.895L76.6156 121.879C76.7212 121.866 77.0144 121.863 77.5722 121.904L77.7183 119.909ZM76.5646 119.889C76.2403 119.866 75.7877 119.937 75.3281 120.027L75.7121 121.99C75.938 121.946 76.114 121.917 76.245 121.9C76.3893 121.882 76.4341 121.885 76.4186 121.884L76.5646 119.889ZM75.4135 120.014C74.8398 120.076 74.2962 120.221 73.7902 120.456L74.6313 122.27C74.9225 122.135 75.2517 122.043 75.6267 122.003L75.4135 120.014ZM73.7836 120.459C72.4611 121.084 71.6737 122.161 71.5676 123.609L73.5624 123.754C73.6122 123.074 73.9219 122.605 74.6379 122.267L73.7836 120.459ZM71.5676 123.609C71.5088 124.413 71.624 125.215 72.101 125.848L73.6984 124.644C73.6294 124.552 73.5216 124.311 73.5624 123.754L71.5676 123.609ZM72.1428 125.9C72.4189 126.219 72.6358 126.47 72.7935 126.653L74.3073 125.345C74.1495 125.162 73.9326 124.911 73.6566 124.592L72.1428 125.9ZM72.7935 126.653C73.0357 126.933 73.4028 127.225 73.8215 127.52L74.9731 125.884C74.5781 125.606 74.3806 125.43 74.3073 125.345L72.7935 126.653ZM73.886 127.562C74.2959 127.806 74.5829 127.976 74.7469 128.074L75.7696 126.354C75.6056 126.257 75.3186 126.086 74.9087 125.843L73.886 127.562ZM74.7469 128.074C74.9109 128.171 75.2798 128.39 75.8538 128.732L76.8765 127.012C76.3078 126.674 75.9283 126.449 75.7696 126.354L74.7469 128.074ZM75.9051 128.76C76.489 129.062 76.8316 129.246 76.9654 129.326L77.9881 127.607C77.7939 127.491 77.3954 127.279 76.8251 126.984L75.9051 128.76ZM76.9852 129.337C81.1465 131.684 82.8392 134.434 82.6098 137.566L84.6046 137.711C84.9111 133.525 82.5169 130.16 77.9683 127.595L76.9852 129.337Z" fill="#EA7AFC"/>
<path d="M106.967 136.759C107.034 138.592 106.73 140.204 106.055 141.595C105.423 142.984 104.671 144.015 103.799 144.687C102.927 145.359 101.879 145.909 100.657 146.338C99.0554 146.909 97.5937 147.218 96.2719 147.266C93.5004 147.366 91.1784 146.917 89.306 145.918C87.432 144.876 86.4514 143.161 86.3641 140.773C86.3126 139.366 86.6543 138.201 87.389 137.277C88.5346 135.912 89.9388 135.2 91.6017 135.139C92.1134 135.121 92.3778 135.346 92.3949 135.815C92.3965 135.858 92.3024 136.203 92.1126 136.85C91.9638 137.453 91.9066 138.224 91.9409 139.162C91.9752 140.1 92.368 140.918 93.1194 141.616C93.9134 142.313 94.8434 142.643 95.9093 142.604C96.9753 142.565 97.8218 142.364 98.4489 141.999C99.0745 141.592 99.505 141.107 99.7406 140.544C100.096 139.762 100.262 139.03 100.237 138.348C100.192 137.112 99.5343 136.068 98.265 135.218C96.9958 134.367 95.6056 133.713 94.0945 133.256C92.5835 132.798 91.1879 131.995 89.9077 130.846C88.6275 129.697 87.9547 128.227 87.8892 126.436C87.777 123.366 88.6522 121.029 90.5148 119.424C92.42 117.818 95.0356 116.955 98.3614 116.834C99.8111 116.781 101.333 116.94 102.926 117.309C104.56 117.634 105.395 118.286 105.431 119.267C105.465 120.205 105.327 121.085 105.015 121.908C104.746 122.729 104.377 123.148 103.908 123.165C103.653 123.174 103.479 123.095 103.387 122.928C103.294 122.718 103.137 122.488 102.914 122.24C102.691 121.992 102.168 121.691 101.344 121.337C100.518 120.94 99.8068 120.752 99.2099 120.774C98.6556 120.794 98.2726 120.829 98.061 120.88C97.8904 120.886 97.573 120.961 97.1086 121.106C96.6427 121.209 96.2218 121.373 95.8458 121.6C94.8854 122.19 94.4247 123.018 94.4637 124.084C94.4886 124.766 94.6566 125.273 94.9675 125.603C95.2769 125.89 95.52 126.116 95.6968 126.281C95.8736 126.445 96.1798 126.648 96.6156 126.888C97.0497 127.086 97.3537 127.224 97.5273 127.303C97.701 127.382 98.0918 127.56 98.6996 127.837C99.3059 128.071 99.6959 128.228 99.8696 128.307C104.467 130.275 106.833 133.092 106.967 136.759Z" fill="white"/>
<path d="M106.055 141.595L105.156 141.158L105.15 141.169L105.145 141.181L106.055 141.595ZM103.799 144.687L103.188 143.895L103.188 143.895L103.799 144.687ZM100.657 146.338L100.326 145.394L100.321 145.396L100.657 146.338ZM89.306 145.918L88.8202 146.792L88.8277 146.796L88.8353 146.8L89.306 145.918ZM87.389 137.277L86.6229 136.635L86.6146 136.645L86.6065 136.655L87.389 137.277ZM92.1126 136.85L91.1529 136.568L91.1468 136.589L91.1416 136.61L92.1126 136.85ZM93.1194 141.616L92.4386 142.349L92.4491 142.358L92.4598 142.368L93.1194 141.616ZM98.4489 141.999L98.9515 142.864L98.9733 142.851L98.9944 142.838L98.4489 141.999ZM99.7406 140.544L98.8304 140.129L98.824 140.143L98.8179 140.158L99.7406 140.544ZM98.265 135.218L98.8216 134.387L98.8216 134.387L98.265 135.218ZM94.0945 133.256L94.3841 132.298L94.3841 132.298L94.0945 133.256ZM89.9077 130.846L89.2399 131.59L89.2399 131.59L89.9077 130.846ZM90.5148 119.424L89.8701 118.66L89.862 118.667L90.5148 119.424ZM102.926 117.309L102.7 118.283L102.716 118.286L102.731 118.289L102.926 117.309ZM105.015 121.908L104.08 121.554L104.072 121.575L104.065 121.596L105.015 121.908ZM103.387 122.928L102.473 123.332L102.49 123.371L102.51 123.407L103.387 122.928ZM102.914 122.24L103.658 121.573L103.658 121.573L102.914 122.24ZM101.344 121.337L100.911 122.238L100.93 122.247L100.949 122.255L101.344 121.337ZM98.061 120.88L98.0975 121.879L98.1965 121.875L98.2928 121.852L98.061 120.88ZM97.1086 121.106L97.3234 122.083L97.3656 122.074L97.4068 122.061L97.1086 121.106ZM95.8458 121.6L95.3286 120.744L95.3223 120.748L95.8458 121.6ZM94.9675 125.603L94.2395 126.288L94.2623 126.312L94.2867 126.335L94.9675 125.603ZM95.6968 126.281L95.016 127.013L95.016 127.013L95.6968 126.281ZM96.6156 126.888L96.1327 127.764L96.1664 127.782L96.2013 127.798L96.6156 126.888ZM97.5273 127.303L97.1131 128.213L97.1131 128.213L97.5273 127.303ZM98.6996 127.837L98.2854 128.747L98.3121 128.759L98.3396 128.77L98.6996 127.837ZM99.8696 128.307L99.4553 129.217L99.4658 129.222L99.4763 129.226L99.8696 128.307ZM105.968 136.795C106.03 138.496 105.747 139.94 105.156 141.158L106.955 142.032C107.714 140.469 108.038 138.689 107.966 136.723L105.968 136.795ZM105.145 141.181C104.556 142.476 103.891 143.353 103.188 143.895L104.409 145.479C105.451 144.677 106.29 143.493 106.965 142.01L105.145 141.181ZM103.188 143.895C102.414 144.492 101.465 144.995 100.326 145.394L100.988 147.282C102.294 146.824 103.439 146.227 104.409 145.479L103.188 143.895ZM100.321 145.396C98.7899 145.942 97.4308 146.223 96.2354 146.266L96.3085 148.265C97.7567 148.213 99.3209 147.876 100.993 147.28L100.321 145.396ZM96.2354 146.266C93.5876 146.363 91.4526 145.93 89.7767 145.035L88.8353 146.8C90.9043 147.904 93.4132 148.37 96.3085 148.265L96.2354 146.266ZM89.7918 145.044C88.2635 144.194 87.4397 142.823 87.3634 140.737L85.3647 140.809C85.4631 143.499 86.6005 145.557 88.8202 146.792L89.7918 145.044ZM87.3634 140.737C87.3189 139.52 87.613 138.602 88.1716 137.9L86.6065 136.655C85.6956 137.799 85.3063 139.212 85.3647 140.809L87.3634 140.737ZM88.1551 137.92C89.1334 136.755 90.2799 136.188 91.6382 136.139L91.5652 134.14C89.5977 134.211 87.9357 135.07 86.6229 136.635L88.1551 137.92ZM91.6382 136.139C91.7605 136.134 91.6669 136.167 91.5354 136.055C91.4696 135.999 91.4294 135.935 91.409 135.884C91.3909 135.84 91.3945 135.822 91.3956 135.851L93.3943 135.779C93.3792 135.367 93.2451 134.885 92.8321 134.533C92.4362 134.196 91.9545 134.126 91.5652 134.14L91.6382 136.139ZM91.3956 135.851C91.3926 135.77 91.401 135.708 91.4023 135.698C91.4051 135.677 91.4078 135.663 91.4084 135.659C91.4099 135.651 91.4096 135.654 91.4055 135.671C91.3976 135.704 91.3833 135.76 91.3608 135.842C91.3162 136.005 91.2473 136.246 91.1529 136.568L93.0722 137.131C93.1676 136.806 93.2407 136.551 93.2903 136.369C93.3148 136.279 93.3356 136.2 93.3508 136.136C93.3582 136.105 93.3666 136.068 93.3736 136.031C93.3738 136.03 93.3992 135.913 93.3943 135.779L91.3956 135.851ZM91.1416 136.61C90.9624 137.337 90.9054 138.209 90.9416 139.198L92.9403 139.125C92.9078 138.238 92.9652 137.569 93.0835 137.089L91.1416 136.61ZM90.9416 139.198C90.9865 140.427 91.5128 141.488 92.4386 142.349L93.8002 140.884C93.2233 140.348 92.9639 139.772 92.9403 139.125L90.9416 139.198ZM92.4598 142.368C93.4478 143.235 94.6275 143.651 95.9459 143.603L95.8728 141.605C95.0592 141.634 94.379 141.392 93.779 140.865L92.4598 142.368ZM95.9459 143.603C97.1043 143.561 98.1313 143.341 98.9515 142.864L97.9464 141.135C97.5124 141.387 96.8463 141.569 95.8728 141.605L95.9459 143.603ZM98.9944 142.838C99.7505 142.346 100.335 141.716 100.663 140.929L98.8179 140.158C98.6755 140.498 98.3984 140.839 97.9035 141.161L98.9944 142.838ZM100.651 140.958C101.055 140.071 101.268 139.184 101.236 138.312L99.2374 138.384C99.2554 138.877 99.138 139.453 98.8304 140.129L100.651 140.958ZM101.236 138.312C101.176 136.679 100.287 135.369 98.8216 134.387L97.7085 136.048C98.7814 136.767 99.2067 137.544 99.2374 138.384L101.236 138.312ZM98.8216 134.387C97.4673 133.479 95.9867 132.784 94.3841 132.298L93.805 134.213C95.2245 134.642 96.5242 135.255 97.7085 136.048L98.8216 134.387ZM94.3841 132.298C93.0254 131.887 91.7566 131.162 90.5756 130.102L89.2399 131.59C90.6191 132.828 92.1416 133.709 93.805 134.213L94.3841 132.298ZM90.5756 130.102C89.5066 129.142 88.9446 127.932 88.8886 126.4L86.8899 126.472C86.9648 128.522 87.7485 130.251 89.2399 131.59L90.5756 130.102ZM88.8886 126.4C88.7844 123.551 89.5914 121.54 91.1676 120.182L89.862 118.667C87.7129 120.518 86.7696 123.182 86.8899 126.472L88.8886 126.4ZM91.1595 120.189C92.8444 118.768 95.2207 117.949 98.3979 117.833L98.3248 115.835C94.8505 115.961 91.9956 116.868 89.8701 118.66L91.1595 120.189ZM98.3979 117.833C99.7492 117.784 101.182 117.931 102.7 118.283L103.151 116.335C101.483 115.948 99.873 115.778 98.3248 115.835L98.3979 117.833ZM102.731 118.289C103.474 118.437 103.919 118.639 104.162 118.83C104.368 118.991 104.425 119.134 104.432 119.303L106.43 119.231C106.401 118.42 106.022 117.746 105.394 117.254C104.802 116.792 104.012 116.505 103.121 116.328L102.731 118.289ZM104.432 119.303C104.461 120.117 104.341 120.864 104.08 121.554L105.95 122.262C106.312 121.307 106.469 120.293 106.43 119.231L104.432 119.303ZM104.065 121.596C103.952 121.941 103.846 122.109 103.786 122.177C103.761 122.206 103.757 122.201 103.78 122.19C103.806 122.176 103.84 122.167 103.872 122.166L103.945 124.164C105.113 124.122 105.684 123.081 105.966 122.219L104.065 121.596ZM103.872 122.166C103.849 122.166 103.906 122.16 104.001 122.203C104.111 122.253 104.207 122.342 104.265 122.448L102.51 123.407C102.846 124.021 103.461 124.182 103.945 124.164L103.872 122.166ZM104.302 122.523C104.152 122.184 103.922 121.867 103.658 121.573L102.17 122.908C102.351 123.11 102.437 123.251 102.473 123.332L104.302 122.523ZM103.658 121.573C103.441 121.33 103.145 121.13 102.853 120.962C102.546 120.785 102.171 120.604 101.739 120.418L100.949 122.255C101.341 122.424 101.64 122.571 101.856 122.695C101.963 122.757 102.042 122.809 102.098 122.849C102.156 122.892 102.173 122.912 102.17 122.908L103.658 121.573ZM101.777 120.436C100.876 120.002 99.9963 119.745 99.1734 119.774L99.2464 121.773C99.6174 121.76 100.16 121.877 100.911 122.238L101.777 120.436ZM99.1734 119.774C98.6237 119.794 98.1489 119.831 97.8292 119.907L98.2928 121.852C98.3964 121.828 98.6875 121.793 99.2464 121.773L99.1734 119.774ZM98.0244 119.88C97.6995 119.892 97.2574 120.012 96.8104 120.152L97.4068 122.061C97.6266 121.992 97.7983 121.944 97.9268 121.914C98.0682 121.88 98.1131 121.878 98.0975 121.879L98.0244 119.88ZM96.8939 120.13C96.3304 120.253 95.8058 120.456 95.3286 120.744L96.3631 122.456C96.6378 122.29 96.9551 122.164 97.3234 122.083L96.8939 120.13ZM95.3223 120.748C94.0762 121.514 93.4113 122.67 93.4643 124.12L95.463 124.048C95.4381 123.367 95.6947 122.867 96.3694 122.452L95.3223 120.748ZM93.4643 124.12C93.4938 124.926 93.6961 125.711 94.2395 126.288L95.6955 124.917C95.617 124.834 95.4834 124.606 95.463 124.048L93.4643 124.12ZM94.2867 126.335C94.5961 126.623 94.8392 126.849 95.016 127.013L96.3776 125.549C96.2008 125.384 95.9577 125.158 95.6483 124.871L94.2867 126.335ZM95.016 127.013C95.2873 127.265 95.6843 127.516 96.1327 127.764L97.0984 126.012C96.6754 125.779 96.4598 125.625 96.3776 125.549L95.016 127.013ZM96.2013 127.798C96.6355 127.996 96.9394 128.134 97.1131 128.213L97.9416 126.393C97.7679 126.314 97.464 126.176 97.0298 125.978L96.2013 127.798ZM97.1131 128.213C97.2868 128.292 97.6775 128.47 98.2854 128.747L99.1139 126.927C98.5116 126.653 98.1097 126.47 97.9416 126.393L97.1131 128.213ZM98.3396 128.77C98.953 129.007 99.3137 129.152 99.4553 129.217L100.284 127.397C100.078 127.303 99.6589 127.136 99.0597 126.904L98.3396 128.77ZM99.4763 129.226C103.869 131.106 105.853 133.656 105.968 136.795L107.966 136.723C107.813 132.528 105.065 129.443 100.263 127.388L99.4763 129.226Z" fill="#EA7AFC"/>
<path d="M115.749 127.878L116.052 129.451C116.09 129.704 116.278 129.805 116.616 129.754C117.947 129.425 119.077 128.91 120.006 128.209C120.93 127.467 121.59 126.698 121.988 125.905C122.764 124.192 123.108 122.76 123.02 121.608L122.969 120.839C122.624 118.561 121.544 117.558 119.73 117.831C118.38 118.034 117.372 118.79 116.707 120.098C115.596 122.163 115.276 124.757 115.749 127.878ZM130.82 134.221C131.063 135.824 130.939 137.288 130.449 138.613C129.995 139.889 129.391 140.886 128.636 141.603C127.918 142.272 127.036 142.858 125.99 143.36C124.661 143.991 123.364 144.402 122.098 144.592C118.554 145.125 115.737 144.189 113.647 141.785C111.557 139.381 110.202 136.133 109.583 132.041C108.957 127.907 109.435 124.081 111.017 120.565C112.641 117.041 115.542 114.966 119.719 114.338C123.516 113.767 126.291 114.709 128.044 117.164C128.746 118.094 129.167 119.023 129.307 119.951C129.441 120.837 129.508 121.561 129.506 122.122C129.499 122.641 129.321 123.465 128.975 124.596C128.628 125.727 128.097 126.778 127.38 127.748C126.664 128.719 125.457 129.72 123.757 130.752C122.058 131.784 120.004 132.611 117.595 133.231C117.257 133.282 117.111 133.455 117.156 133.751C117.213 134.13 117.426 134.681 117.794 135.402C118.198 136.075 118.607 136.639 119.021 137.094C120.128 138.136 121.589 138.521 123.403 138.248C125.218 137.975 126.668 137.153 127.755 135.782C128.334 135.047 128.765 134.185 129.046 133.193C129.164 132.83 129.349 132.63 129.602 132.592C129.898 132.547 130.165 132.744 130.404 133.183C130.643 133.622 130.782 133.968 130.82 134.221Z" fill="white"/>
<path d="M115.749 127.878L114.76 128.027L114.763 128.047L114.767 128.066L115.749 127.878ZM116.052 129.451L117.041 129.302L117.038 129.282L117.034 129.263L116.052 129.451ZM116.616 129.754L116.765 130.743L116.811 130.736L116.857 130.725L116.616 129.754ZM120.006 128.209L120.609 129.008L120.622 128.998L120.634 128.988L120.006 128.209ZM121.988 125.905L122.882 126.354L122.891 126.336L122.899 126.319L121.988 125.905ZM123.02 121.608L122.022 121.674L122.023 121.683L123.02 121.608ZM122.969 120.839L123.967 120.773L123.964 120.732L123.958 120.691L122.969 120.839ZM116.707 120.098L117.588 120.572L117.594 120.562L117.599 120.551L116.707 120.098ZM130.449 138.613L129.511 138.265L129.507 138.277L130.449 138.613ZM128.636 141.603L129.318 142.336L129.326 142.328L128.636 141.603ZM125.99 143.36L126.42 144.263L126.423 144.262L125.99 143.36ZM113.647 141.785L114.401 141.13L113.647 141.785ZM111.017 120.565L110.108 120.145L110.105 120.154L111.017 120.565ZM128.044 117.164L127.23 117.744L127.238 117.755L127.246 117.766L128.044 117.164ZM129.506 122.122L130.506 122.138L130.506 122.125L129.506 122.122ZM127.38 127.748L126.575 127.154L126.575 127.154L127.38 127.748ZM123.757 130.752L123.237 129.897L123.237 129.897L123.757 130.752ZM117.595 133.231L117.745 134.22L117.796 134.213L117.846 134.2L117.595 133.231ZM117.794 135.402L116.903 135.856L116.919 135.886L116.937 135.916L117.794 135.402ZM119.021 137.094L118.281 137.767L118.308 137.795L118.336 137.822L119.021 137.094ZM127.755 135.782L128.539 136.403L128.541 136.401L127.755 135.782ZM129.046 133.193L128.095 132.884L128.089 132.901L128.084 132.919L129.046 133.193ZM130.404 133.183L131.282 132.706L131.282 132.706L130.404 133.183ZM114.767 128.066L115.07 129.639L117.034 129.263L116.731 127.69L114.767 128.066ZM115.063 129.6C115.119 129.967 115.32 130.366 115.748 130.597C116.116 130.795 116.501 130.783 116.765 130.743L116.466 128.766C116.392 128.777 116.514 128.739 116.695 128.836C116.796 128.891 116.886 128.973 116.951 129.075C117.013 129.171 117.034 129.257 117.041 129.302L115.063 129.6ZM116.857 130.725C118.296 130.369 119.555 129.803 120.609 129.008L119.404 127.411C118.599 128.017 117.597 128.481 116.374 128.784L116.857 130.725ZM120.634 128.988C121.633 128.184 122.402 127.311 122.882 126.354L121.094 125.456C120.778 126.086 120.226 126.749 119.379 127.43L120.634 128.988ZM122.899 126.319C123.706 124.538 124.124 122.926 124.018 121.533L122.023 121.683C122.093 122.593 121.823 123.846 121.077 125.492L122.899 126.319ZM124.018 121.542L123.967 120.773L121.971 120.905L122.022 121.674L124.018 121.542ZM123.958 120.691C123.769 119.447 123.357 118.368 122.581 117.646C121.764 116.888 120.707 116.673 119.58 116.842L119.88 118.82C120.567 118.717 120.958 118.867 121.22 119.111C121.523 119.392 121.823 119.954 121.98 120.988L123.958 120.691ZM119.58 116.842C117.884 117.097 116.614 118.073 115.815 119.644L117.599 120.551C118.13 119.506 118.876 118.971 119.88 118.82L119.58 116.842ZM115.826 119.623C114.582 121.935 114.266 124.765 114.76 128.027L116.738 127.73C116.287 124.749 116.609 122.391 117.588 120.572L115.826 119.623ZM129.831 134.369C130.052 135.83 129.934 137.121 129.511 138.265L131.387 138.96C131.944 137.455 132.073 135.817 131.809 134.072L129.831 134.369ZM129.507 138.277C129.09 139.448 128.559 140.297 127.947 140.879L129.326 142.328C130.223 141.475 130.9 140.33 131.392 138.949L129.507 138.277ZM127.954 140.871C127.321 141.461 126.527 141.993 125.556 142.459L126.423 144.262C127.544 143.723 128.514 143.084 129.318 142.335L127.954 140.871ZM125.56 142.457C124.307 143.052 123.104 143.43 121.948 143.604L122.248 145.581C123.624 145.374 125.015 144.931 126.42 144.263L125.56 142.457ZM121.948 143.604C118.692 144.093 116.235 143.239 114.401 141.13L112.892 142.441C115.238 145.139 118.415 146.157 122.248 145.581L121.948 143.604ZM114.401 141.13C112.468 138.906 111.171 135.852 110.571 131.893L108.594 132.19C109.233 136.414 110.645 139.856 112.892 142.441L114.401 141.13ZM110.571 131.893C109.972 127.932 110.432 124.302 111.929 120.975L110.105 120.154C108.437 123.86 107.942 127.882 108.594 132.19L110.571 131.893ZM111.925 120.984C113.395 117.797 115.99 115.91 119.869 115.327L119.569 113.349C115.094 114.022 111.888 116.286 110.109 120.145L111.925 120.984ZM119.869 115.327C123.415 114.794 125.759 115.684 127.23 117.744L128.858 116.584C126.823 113.734 123.618 112.741 119.569 113.349L119.869 115.327ZM127.246 117.766C127.871 118.594 128.208 119.371 128.318 120.1L130.296 119.803C130.125 118.675 129.62 117.594 128.842 116.562L127.246 117.766ZM128.318 120.1C128.449 120.961 128.507 121.629 128.506 122.118L130.506 122.125C130.508 121.492 130.434 120.713 130.296 119.803L128.318 120.1ZM128.506 122.106C128.501 122.47 128.364 123.177 128.018 124.302L129.931 124.89C130.279 123.754 130.496 122.811 130.506 122.138L128.506 122.106ZM128.018 124.302C127.705 125.323 127.226 126.273 126.575 127.154L128.186 128.342C128.967 127.283 129.551 126.131 129.931 124.89L128.018 124.302ZM126.575 127.154C125.971 127.974 124.888 128.895 123.237 129.897L124.277 131.607C126.025 130.545 127.358 129.464 128.186 128.342L126.575 127.154ZM123.237 129.897C121.64 130.868 119.681 131.661 117.344 132.263L117.846 134.2C120.327 133.56 122.476 132.7 124.277 131.607L123.237 129.897ZM117.445 132.243C117.154 132.287 116.76 132.408 116.468 132.753C116.154 133.124 116.116 133.562 116.167 133.899L118.145 133.602C118.151 133.644 118.163 133.848 117.996 134.046C117.85 134.218 117.698 134.227 117.745 134.22L117.445 132.243ZM116.167 133.899C116.25 134.449 116.528 135.121 116.903 135.856L118.685 134.948C118.324 134.241 118.176 133.812 118.145 133.602L116.167 133.899ZM116.937 135.916C117.366 136.631 117.813 137.251 118.281 137.767L119.761 136.422C119.401 136.027 119.03 135.519 118.652 134.888L116.937 135.916ZM118.336 137.822C119.714 139.118 121.505 139.544 123.553 139.237L123.254 137.259C121.673 137.497 120.543 137.154 119.706 136.367L118.336 137.822ZM123.553 139.237C125.604 138.928 127.287 137.983 128.539 136.403L126.971 135.16C126.049 136.323 124.831 137.022 123.254 137.259L123.553 139.237ZM128.541 136.401C129.209 135.555 129.695 134.571 130.008 133.467L128.084 132.919C127.835 133.798 127.46 134.54 126.97 135.162L128.541 136.401ZM129.998 133.502C130.028 133.407 130.045 133.41 130.008 133.45C129.988 133.472 129.953 133.502 129.904 133.529C129.854 133.556 129.801 133.573 129.752 133.58L129.453 131.603C128.656 131.723 128.265 132.359 128.095 132.884L129.998 133.502ZM129.752 133.58C129.692 133.589 129.624 133.587 129.557 133.569C129.493 133.551 129.45 133.525 129.431 133.511C129.413 133.498 129.417 133.496 129.437 133.522C129.457 133.547 129.488 133.591 129.526 133.661L131.282 132.706C130.994 132.177 130.408 131.459 129.453 131.603L129.752 133.58ZM129.526 133.661C129.752 134.075 129.82 134.295 129.831 134.369L131.809 134.072C131.744 133.64 131.534 133.168 131.282 132.706L129.526 133.661Z" fill="#EA7AFC"/>
<path d="M152.212 118.762L153.048 120.857C153.261 121.639 152.626 122.231 151.143 122.632C148.136 123.445 146.325 122.719 145.708 120.455C145.562 119.92 145.504 119.14 145.535 118.115C145.565 117.09 145.485 116.228 145.295 115.528C145.104 114.828 144.735 114.287 144.189 113.904C143.631 113.481 142.961 113.375 142.179 113.586C141.396 113.798 140.795 114.27 140.375 115.002C139.986 115.682 139.808 116.327 139.841 116.937L139.829 117.868C139.93 119.211 140.389 121.385 141.208 124.39C142.015 127.354 142.696 129.69 143.249 131.396C143.791 133.062 144.193 134.213 144.455 134.849C144.706 135.445 144.848 135.804 144.881 135.927C145.162 136.957 144.747 137.953 143.639 138.915C142.541 139.919 141.354 140.594 140.078 140.939C138.801 141.285 138.089 141.19 137.944 140.654L137.731 138.657C137.332 134.919 136.348 130.169 134.778 124.405C133.208 118.642 131.937 114.787 130.964 112.84C130.83 112.346 131.195 111.982 132.06 111.748C134.284 111.147 135.974 111.507 137.13 112.83C137.216 112.983 137.301 113.049 137.383 113.027C137.507 112.993 137.744 112.73 138.097 112.237C139.153 110.758 140.608 109.768 142.461 109.267C143.615 108.955 144.829 108.869 146.106 109.01C148.712 109.322 150.424 110.981 151.242 113.986L152.212 118.762Z" fill="white"/>
<path d="M152.212 118.762L151.231 118.96L151.249 119.048L151.282 119.131L152.212 118.762ZM153.048 120.857L154.013 120.596L153.998 120.541L153.977 120.488L153.048 120.857ZM145.535 118.115L146.535 118.146L146.535 118.146L145.535 118.115ZM144.189 113.904L143.584 114.7L143.6 114.711L143.616 114.723L144.189 113.904ZM140.375 115.002L139.507 114.504L139.507 114.504L140.375 115.002ZM139.841 116.937L140.841 116.951L140.842 116.917L140.84 116.884L139.841 116.937ZM139.829 117.868L138.829 117.854L138.828 117.898L138.832 117.941L139.829 117.868ZM143.249 131.396L142.297 131.703L142.298 131.704L143.249 131.396ZM144.455 134.849L143.53 135.228L143.533 135.236L144.455 134.849ZM143.639 138.915L142.982 138.161L142.972 138.169L142.963 138.178L143.639 138.915ZM137.944 140.654L136.949 140.759L136.957 140.838L136.978 140.916L137.944 140.654ZM137.731 138.657L138.726 138.553L138.726 138.552L137.731 138.657ZM130.964 112.84L129.999 113.101L130.025 113.197L130.069 113.285L130.964 112.84ZM137.13 112.83L138.003 112.343L137.952 112.252L137.884 112.173L137.13 112.83ZM138.097 112.237L137.282 111.656L137.282 111.656L138.097 112.237ZM146.106 109.01L146.224 108.018L146.214 108.017L146.106 109.01ZM151.242 113.986L152.223 113.789L152.216 113.757L152.208 113.725L151.242 113.986ZM151.282 119.131L152.118 121.226L153.977 120.488L153.141 118.394L151.282 119.131ZM152.082 121.118C152.092 121.155 152.082 121.144 152.092 121.113C152.1 121.086 152.106 121.102 152.048 121.156C151.909 121.285 151.568 121.481 150.88 121.667L151.406 123.596C152.201 123.382 152.919 123.081 153.414 122.619C153.674 122.376 153.891 122.073 154.005 121.702C154.12 121.328 154.109 120.95 154.013 120.596L152.082 121.118ZM150.88 121.667C149.47 122.048 148.516 122.016 147.9 121.77C147.347 121.548 146.918 121.092 146.673 120.194L144.743 120.716C145.115 122.082 145.9 123.121 147.158 123.625C148.355 124.104 149.809 124.028 151.406 123.596L150.88 121.667ZM146.673 120.194C146.567 119.803 146.505 119.141 146.535 118.146L144.535 118.084C144.504 119.139 144.558 120.037 144.743 120.716L146.673 120.194ZM146.535 118.146C146.567 117.06 146.485 116.092 146.26 115.267L144.329 115.789C144.486 116.364 144.563 117.12 144.535 118.084L146.535 118.146ZM146.26 115.267C146.014 114.363 145.518 113.615 144.762 113.086L143.616 114.723C143.953 114.959 144.194 115.294 144.329 115.789L146.26 115.267ZM144.794 113.109C143.948 112.466 142.944 112.343 141.916 112.621L142.441 114.551C142.978 114.406 143.315 114.495 143.584 114.7L144.794 113.109ZM141.916 112.621C140.866 112.905 140.052 113.553 139.507 114.504L141.244 115.5C141.538 114.987 141.927 114.69 142.441 114.551L141.916 112.621ZM139.507 114.504C139.048 115.305 138.795 116.14 138.842 116.99L140.84 116.884C140.82 116.514 140.923 116.06 141.244 115.5L139.507 114.504ZM138.841 116.923L138.829 117.854L140.83 117.882L140.841 116.951L138.841 116.923ZM138.832 117.941C138.94 119.388 139.423 121.643 140.243 124.651L142.173 124.129C141.356 121.127 140.92 119.034 140.827 117.795L138.832 117.941ZM140.243 124.651C141.052 127.622 141.737 129.974 142.297 131.703L144.201 131.09C143.655 129.405 142.979 127.087 142.173 124.129L140.243 124.651ZM142.298 131.704C142.839 133.368 143.252 134.552 143.53 135.228L145.38 134.471C145.135 133.873 144.743 132.756 144.2 131.089L142.298 131.704ZM143.533 135.236C143.657 135.53 143.752 135.761 143.819 135.931C143.894 136.12 143.916 136.189 143.916 136.188L145.847 135.666C145.791 135.462 145.614 135.026 145.377 134.463L143.533 135.236ZM143.916 136.188C144.058 136.709 143.928 137.339 142.982 138.161L144.296 139.67C145.567 138.566 146.265 137.204 145.847 135.666L143.916 136.188ZM142.963 138.178C141.968 139.088 140.919 139.676 139.815 139.974L140.34 141.904C141.79 141.512 143.115 140.751 144.315 139.653L142.963 138.178ZM139.815 139.974C139.215 140.137 138.873 140.157 138.717 140.136C138.651 140.127 138.684 140.119 138.751 140.169C138.835 140.23 138.889 140.319 138.909 140.393L136.978 140.916C137.071 141.257 137.269 141.559 137.567 141.778C137.849 141.985 138.167 142.079 138.456 142.118C139.011 142.192 139.664 142.087 140.34 141.904L139.815 139.974ZM138.939 140.55L138.726 138.553L136.736 138.761L136.949 140.759L138.939 140.55ZM138.726 138.552C138.319 134.74 137.32 129.933 135.743 124.144L133.813 124.667C135.376 130.405 136.345 135.098 136.736 138.761L138.726 138.552ZM135.743 124.144C134.176 118.391 132.883 114.443 131.859 112.395L130.069 113.285C130.991 115.131 132.24 118.893 133.813 124.667L135.743 124.144ZM131.93 112.579C131.935 112.6 131.947 112.666 131.923 112.755C131.9 112.842 131.857 112.892 131.844 112.905C131.837 112.912 131.859 112.888 131.944 112.847C132.027 112.807 132.15 112.76 132.323 112.713L131.797 110.783C131.304 110.917 130.796 111.124 130.43 111.488C129.996 111.921 129.837 112.505 129.999 113.101L131.93 112.579ZM132.323 112.713C134.314 112.175 135.554 112.545 136.377 113.487L137.884 112.173C136.394 110.469 134.254 110.119 131.797 110.783L132.323 112.713ZM136.258 113.317C136.329 113.444 136.45 113.631 136.644 113.782C136.865 113.955 137.225 114.105 137.646 113.992L137.12 112.062C137.269 112.022 137.425 112.022 137.572 112.06C137.711 112.096 137.811 112.159 137.873 112.207C137.982 112.292 138.018 112.369 138.003 112.343L136.258 113.317ZM137.646 113.992C137.884 113.927 138.054 113.796 138.133 113.731C138.231 113.651 138.32 113.561 138.397 113.475C138.553 113.302 138.726 113.078 138.911 112.819L137.282 111.656C137.115 111.89 136.993 112.043 136.911 112.134C136.87 112.18 136.854 112.192 136.861 112.186C136.866 112.182 136.886 112.166 136.92 112.145C136.952 112.126 137.021 112.089 137.12 112.062L137.646 113.992ZM138.911 112.819C139.826 111.538 141.08 110.676 142.724 110.232L142.199 108.302C140.136 108.86 138.48 109.978 137.282 111.656L138.911 112.819ZM142.724 110.232C143.748 109.955 144.836 109.876 145.998 110.004L146.214 108.017C144.823 107.863 143.481 107.955 142.199 108.302L142.724 110.232ZM145.989 110.003C147.097 110.135 147.966 110.544 148.648 111.205C149.341 111.876 149.901 112.866 150.277 114.247L152.208 113.725C151.765 112.101 151.059 110.758 150.04 109.771C149.011 108.774 147.721 108.197 146.224 108.018L145.989 110.003ZM150.262 114.183L151.231 118.96L153.192 118.565L152.223 113.789L150.262 114.183Z" fill="#EA7AFC"/>
<path d="M152.082 110.286L151.351 107.826C151.255 107.452 151.466 107.167 151.985 106.971L154.081 106.18L152.022 101.484L151.931 101.245C151.582 100.328 151.947 99.1866 153.025 97.8217C154.104 96.4568 155.222 95.5559 156.38 95.1189C156.739 94.9833 156.979 95.075 157.101 95.3941L157.123 95.4539C157.373 96.591 158.267 99.423 159.806 103.95C161.562 103.287 162.665 102.825 163.114 102.565C163.562 102.304 163.806 102.166 163.846 102.151C164.126 102.046 164.357 102.232 164.538 102.711C164.72 103.189 164.736 103.89 164.585 104.814C164.419 105.697 164.084 106.257 163.58 106.493L161.065 107.442C161.541 108.813 162.393 111.114 163.621 114.344C164.834 117.535 165.855 120.16 166.683 122.218C167.552 124.262 168.23 125.807 168.72 126.854C169.194 127.861 169.592 128.668 169.914 129.276C170.277 129.869 170.531 130.297 170.677 130.561C170.863 130.81 170.971 130.975 171.001 131.055C171.153 131.453 170.977 131.771 170.473 132.006C168.917 132.594 167.276 132.962 165.553 133.111C163.869 133.245 162.823 132.774 162.413 131.697C160.704 124.681 158.386 117.324 155.46 109.627C154.382 110.034 153.579 110.382 153.05 110.673L152.99 110.696C152.631 110.831 152.328 110.695 152.082 110.286Z" fill="white"/>
<path d="M152.082 110.286L151.122 110.569L151.158 110.691L151.225 110.801L152.082 110.286ZM151.351 107.826L150.382 108.073L150.387 108.091L150.392 108.108L151.351 107.826ZM154.081 106.18L154.436 107.114L155.42 106.743L154.997 105.78L154.081 106.18ZM152.022 101.484L151.086 101.837L151.095 101.861L151.105 101.884L152.022 101.484ZM153.025 97.8217L152.239 97.2019L152.239 97.2019L153.025 97.8217ZM157.123 95.4539L158.101 95.2415L158.085 95.1696L158.059 95.1007L157.123 95.4539ZM159.806 103.95L158.858 104.27L159.192 105.251L160.161 104.885L159.806 103.95ZM164.585 104.814L165.569 105L165.571 104.988L165.573 104.977L164.585 104.814ZM163.58 106.493L163.935 107.428L163.971 107.414L164.006 107.398L163.58 106.493ZM161.065 107.442L160.71 106.508L159.801 106.85L160.12 107.768L161.065 107.442ZM166.683 122.218L165.755 122.589L165.758 122.598L165.762 122.607L166.683 122.218ZM168.72 126.854L167.813 127.275L167.814 127.278L168.72 126.854ZM169.914 129.276L169.03 129.742L169.044 129.769L169.06 129.795L169.914 129.276ZM170.677 130.561L169.801 131.043L169.834 131.103L169.875 131.158L170.677 130.561ZM170.473 132.006L170.829 132.941L170.865 132.928L170.899 132.911L170.473 132.006ZM165.553 133.111L165.634 134.108L165.641 134.107L165.553 133.111ZM162.413 131.697L161.441 131.932L161.456 131.992L161.478 132.05L162.413 131.697ZM155.46 109.627L156.395 109.274L156.04 108.339L155.104 108.692L155.46 109.627ZM153.05 110.673L153.406 111.608L153.472 111.583L153.534 111.548L153.05 110.673ZM153.041 110.004L152.311 107.543L150.392 108.108L151.122 110.569L153.041 110.004ZM152.32 107.578C152.326 107.601 152.336 107.657 152.323 107.734C152.309 107.814 152.276 107.881 152.242 107.927C152.211 107.968 152.19 107.979 152.206 107.969C152.221 107.958 152.262 107.935 152.34 107.905L151.63 106.036C151.283 106.167 150.899 106.376 150.633 106.736C150.33 107.144 150.266 107.624 150.382 108.073L152.32 107.578ZM152.34 107.905L154.436 107.114L153.725 105.245L151.63 106.036L152.34 107.905ZM154.997 105.78L152.938 101.085L151.105 101.884L153.164 106.579L154.997 105.78ZM152.957 101.131L152.866 100.892L150.995 101.598L151.086 101.837L152.957 101.131ZM152.866 100.892C152.715 100.495 152.782 99.7447 153.812 98.4416L152.239 97.2019C151.112 98.6286 150.448 100.16 150.995 101.598L152.866 100.892ZM153.812 98.4416C154.821 97.1636 155.803 96.4057 156.735 96.0536L156.024 94.1842C154.642 94.7061 153.387 95.75 152.239 97.2019L153.812 98.4416ZM156.735 96.0536C156.796 96.0307 156.673 96.0953 156.474 96.0192C156.246 95.9324 156.171 95.7622 156.165 95.7472L158.036 95.0409C157.909 94.7069 157.653 94.3313 157.185 94.1527C156.746 93.9849 156.323 94.0715 156.024 94.1842L156.735 96.0536ZM156.165 95.7472L156.188 95.8071L158.059 95.1007L158.036 95.0409L156.165 95.7472ZM156.146 95.6663C156.41 96.8703 157.327 99.7633 158.858 104.27L160.754 103.63C159.208 99.0827 158.336 96.3116 158.101 95.2415L156.146 95.6663ZM160.161 104.885C161.894 104.231 163.083 103.739 163.618 103.429L162.609 101.701C162.247 101.911 161.231 102.343 159.451 103.015L160.161 104.885ZM163.618 103.429C163.841 103.299 164.01 103.202 164.127 103.136C164.186 103.103 164.227 103.08 164.254 103.065C164.268 103.058 164.273 103.055 164.273 103.055C164.273 103.055 164.268 103.058 164.26 103.061C164.255 103.064 164.233 103.074 164.202 103.086L163.491 101.216C163.405 101.249 163.318 101.297 163.302 101.306C163.258 101.329 163.203 101.36 163.14 101.396C163.012 101.468 162.835 101.57 162.609 101.701L163.618 103.429ZM164.202 103.086C164.135 103.111 164.025 103.135 163.891 103.114C163.757 103.092 163.658 103.035 163.6 102.988C163.547 102.945 163.532 102.915 163.542 102.932C163.552 102.947 163.574 102.987 163.603 103.064L165.474 102.358C165.36 102.058 165.178 101.695 164.858 101.436C164.463 101.117 163.96 101.039 163.491 101.216L164.202 103.086ZM163.603 103.064C163.689 103.292 163.74 103.779 163.597 104.651L165.573 104.977C165.732 104.002 165.751 103.087 165.474 102.358L163.603 103.064ZM163.601 104.628C163.457 105.393 163.223 105.556 163.154 105.588L164.006 107.398C164.944 106.959 165.38 106.002 165.569 105L163.601 104.628ZM163.225 105.558L160.71 106.508L161.421 108.377L163.935 107.428L163.225 105.558ZM160.12 107.768C160.601 109.154 161.457 111.467 162.686 114.698L164.557 113.991C163.328 110.761 162.481 108.472 162.011 107.117L160.12 107.768ZM162.686 114.698C163.9 117.891 164.923 120.522 165.755 122.589L167.612 121.847C166.787 119.797 165.768 117.179 164.557 113.991L162.686 114.698ZM165.762 122.607C166.632 124.654 167.316 126.212 167.813 127.275L169.626 126.433C169.145 125.402 168.472 123.87 167.604 121.829L165.762 122.607ZM167.814 127.278C168.291 128.291 168.697 129.114 169.03 129.742L170.799 128.81C170.487 128.221 170.096 127.43 169.625 126.43L167.814 127.278ZM169.06 129.795C169.422 130.388 169.667 130.8 169.801 131.043L171.553 130.08C171.395 129.795 171.131 129.35 170.768 128.757L169.06 129.795ZM169.875 131.158C169.962 131.274 170.023 131.36 170.061 131.419C170.081 131.448 170.09 131.465 170.094 131.47C170.099 131.481 170.084 131.456 170.066 131.408L171.937 130.701C171.879 130.55 171.79 130.409 171.734 130.324C171.664 130.219 171.578 130.098 171.479 129.965L169.875 131.158ZM170.066 131.408C170.065 131.406 170.051 131.368 170.054 131.303C170.056 131.232 170.076 131.163 170.108 131.106C170.137 131.054 170.163 131.034 170.157 131.039C170.149 131.045 170.118 131.069 170.047 131.102L170.899 132.911C171.247 132.749 171.628 132.494 171.859 132.077C172.115 131.616 172.097 131.123 171.937 130.701L170.066 131.408ZM170.118 131.072C168.65 131.626 167.1 131.975 165.465 132.116L165.641 134.107C167.452 133.95 169.183 133.563 170.829 132.941L170.118 131.072ZM165.472 132.115C164.724 132.175 164.229 132.089 163.915 131.948C163.636 131.822 163.46 131.636 163.349 131.344L161.478 132.05C161.776 132.835 162.328 133.424 163.095 133.769C163.828 134.099 164.698 134.182 165.634 134.107L165.472 132.115ZM163.386 131.463C161.665 124.401 159.334 117.004 156.395 109.274L154.524 109.98C157.438 117.643 159.743 124.96 161.441 131.932L163.386 131.463ZM155.104 108.692C154.014 109.103 153.158 109.472 152.566 109.798L153.534 111.548C154 111.293 154.749 110.964 155.815 110.561L155.104 108.692ZM152.695 109.738L152.635 109.761L153.346 111.63L153.406 111.608L152.695 109.738ZM152.635 109.761C152.641 109.759 152.675 109.747 152.731 109.747C152.79 109.747 152.851 109.76 152.904 109.784C153.003 109.829 153.001 109.875 152.938 109.772L151.225 110.801C151.409 111.106 151.681 111.425 152.083 111.606C152.515 111.8 152.96 111.776 153.346 111.63L152.635 109.761Z" fill="#EA7AFC"/>
</g>
<defs>
<filter id="filter0_d_19_277" x="29.5" y="47.5" width="127" height="69" filterUnits="userSpaceOnUse" color-interpolation-filters="sRGB">
<feFlood flood-opacity="0" result="BackgroundImageFix"/>
<feColorMatrix in="SourceAlpha" type="matrix" values="0 0 0 0 0 0 0 0 0 0 0 0 0 0 0 0 0 0 127 0" result="hardAlpha"/>
<feOffset dy="4"/>
<feGaussianBlur stdDeviation="1"/>
<feComposite in2="hardAlpha" operator="out"/>
<feColorMatrix type="matrix" values="0 0 0 0 0 0 0 0 0 0 0 0 0 0 0 0 0 0 0.4 0"/>
<feBlend mode="normal" in2="BackgroundImageFix" result="effect1_dropShadow_19_277"/>
<feBlend mode="normal" in="SourceGraphic" in2="effect1_dropShadow_19_277" result="shape"/>
</filter>
<filter id="filter1_d_19_277" x="96.6906" y="29.9701" width="18.022" height="17.1152" filterUnits="userSpaceOnUse" color-interpolation-filters="sRGB">
<feFlood flood-opacity="0" result="BackgroundImageFix"/>
<feColorMatrix in="SourceAlpha" type="matrix" values="0 0 0 0 0 0 0 0 0 0 0 0 0 0 0 0 0 0 127 0" result="hardAlpha"/>
<feOffset dy="2"/>
<feGaussianBlur stdDeviation="0.5"/>
<feComposite in2="hardAlpha" operator="out"/>
<feColorMatrix type="matrix" values="0 0 0 0 0.87407 0 0 0 0 0.228472 0 0 0 0 0.979167 0 0 0 1 0"/>
<feBlend mode="normal" in2="BackgroundImageFix" result="effect1_dropShadow_19_277"/>
<feBlend mode="normal" in="SourceGraphic" in2="effect1_dropShadow_19_277" result="shape"/>
</filter>
<filter id="filter2_d_19_277" x="138.471" y="26.5059" width="60.4469" height="75.019" filterUnits="userSpaceOnUse" color-interpolation-filters="sRGB">
<feFlood flood-opacity="0" result="BackgroundImageFix"/>
<feColorMatrix in="SourceAlpha" type="matrix" values="0 0 0 0 0 0 0 0 0 0 0 0 0 0 0 0 0 0 127 0" result="hardAlpha"/>
<feOffset dy="4"/>
<feGaussianBlur stdDeviation="2"/>
<feComposite in2="hardAlpha" operator="out"/>
<feColorMatrix type="matrix" values="0 0 0 0 0 0 0 0 0 0 0 0 0 0 0 0 0 0 0.25 0"/>
<feBlend mode="normal" in2="BackgroundImageFix" result="effect1_dropShadow_19_277"/>
<feBlend mode="normal" in="SourceGraphic" in2="effect1_dropShadow_19_277" result="shape"/>
</filter>
<filter id="filter3_d_19_277" x="161.898" y="15.4407" width="49.5035" height="77.3484" filterUnits="userSpaceOnUse" color-interpolation-filters="sRGB">
<feFlood flood-opacity="0" result="BackgroundImageFix"/>
<feColorMatrix in="SourceAlpha" type="matrix" values="0 0 0 0 0 0 0 0 0 0 0 0 0 0 0 0 0 0 127 0" result="hardAlpha"/>
<feOffset dy="4"/>
<feGaussianBlur stdDeviation="2"/>
<feComposite in2="hardAlpha" operator="out"/>
<feColorMatrix type="matrix" values="0 0 0 0 0 0 0 0 0 0 0 0 0 0 0 0 0 0 0.25 0"/>
<feBlend mode="normal" in2="BackgroundImageFix" result="effect1_dropShadow_19_277"/>
<feBlend mode="normal" in="SourceGraphic" in2="effect1_dropShadow_19_277" result="shape"/>
</filter>
<filter id="filter4_d_19_277" x="0.304626" y="87.2291" width="178.719" height="68.4947" filterUnits="userSpaceOnUse" color-interpolation-filters="sRGB">
<feFlood flood-opacity="0" result="BackgroundImageFix"/>
<feColorMatrix in="SourceAlpha" type="matrix" values="0 0 0 0 0 0 0 0 0 0 0 0 0 0 0 0 0 0 127 0" result="hardAlpha"/>
<feOffset dy="4"/>
<feGaussianBlur stdDeviation="2"/>
<feComposite in2="hardAlpha" operator="out"/>
<feColorMatrix type="matrix" values="0 0 0 0 0 0 0 0 0 0 0 0 0 0 0 0 0 0 0.25 0"/>
<feBlend mode="normal" in2="BackgroundImageFix" result="effect1_dropShadow_19_277"/>
<feBlend mode="normal" in="SourceGraphic" in2="effect1_dropShadow_19_277" result="shape"/>
</filter>
</defs>
</svg>
