<svg width="141" height="117" viewBox="0 0 141 117" fill="none" xmlns="http://www.w3.org/2000/svg">
<g filter="url(#filter0_d_15_194)">
<mask id="path-1-outside-1_15_194" maskUnits="userSpaceOnUse" x="21.6629" y="-1.07052" width="119.188" height="80.0469" fill="black">
<rect fill="white" x="21.6629" y="-1.07052" width="119.188" height="80.0469"/>
<path fill-rule="evenodd" clip-rule="evenodd" d="M73.8048 31.5878C74.6982 24.4281 68.2745 15.603 57.9024 10.5448C45.9607 4.72107 33.3072 6.09587 29.64 13.6155C25.9728 21.1351 32.6807 31.9521 44.6224 37.7758C54.9822 42.8281 65.8777 42.4627 70.9769 37.3675L130.117 70.847L135.831 59.1313L73.8048 31.5878Z"/>
</mask>
<path fill-rule="evenodd" clip-rule="evenodd" d="M73.8048 31.5878C74.6982 24.4281 68.2745 15.603 57.9024 10.5448C45.9607 4.72107 33.3072 6.09587 29.64 13.6155C25.9728 21.1351 32.6807 31.9521 44.6224 37.7758C54.9822 42.8281 65.8777 42.4627 70.9769 37.3675L130.117 70.847L135.831 59.1313L73.8048 31.5878Z" fill="#E2DFDF"/>
<path d="M73.8048 31.5878L73.3087 31.5259L73.2627 31.8941L73.6019 32.0448L73.8048 31.5878ZM70.9769 37.3675L71.2232 36.9324L70.8924 36.7451L70.6235 37.0138L70.9769 37.3675ZM130.117 70.847L129.871 71.2821L130.334 71.544L130.567 71.0662L130.117 70.847ZM135.831 59.1313L136.28 59.3505L136.507 58.8847L136.034 58.6744L135.831 59.1313ZM57.6832 10.9942C62.8058 13.4924 66.9396 16.9146 69.6777 20.5776C72.4204 24.2469 73.7341 28.1159 73.3087 31.5259L74.301 31.6497C74.7688 27.9 73.3174 23.7766 70.4786 19.9789C67.6351 16.1749 63.3711 12.6555 58.1216 10.0954L57.6832 10.9942ZM30.0894 13.8347C31.8209 10.2841 35.7075 8.11831 40.7222 7.57346C45.7292 7.02945 51.7838 8.11715 57.6832 10.9942L58.1216 10.0954C52.0793 7.14872 45.8362 6.01195 40.6142 6.57932C35.4 7.14585 31.1262 9.42729 29.1906 13.3963L30.0894 13.8347ZM44.8416 37.3264C38.9421 34.4494 34.3571 30.3484 31.7028 26.0681C29.0444 21.7813 28.3579 17.3853 30.0894 13.8347L29.1906 13.3963C27.255 17.3654 28.0888 22.1377 30.8529 26.5951C33.6212 31.0592 38.361 35.2785 44.4032 38.2252L44.8416 37.3264ZM70.6235 37.0138C68.1947 39.4408 64.3382 40.782 59.762 40.877C55.1937 40.9719 49.9581 39.8216 44.8416 37.3264L44.4032 38.2252C49.6466 40.7823 55.0386 41.9754 59.7828 41.8768C64.5191 41.7785 68.66 40.3894 71.3303 37.7212L70.6235 37.0138ZM130.364 70.4119L71.2232 36.9324L70.7306 37.8026L129.871 71.2821L130.364 70.4119ZM135.381 58.9122L129.668 70.6278L130.567 71.0662L136.28 59.3505L135.381 58.9122ZM73.6019 32.0448L135.628 59.5883L136.034 58.6744L74.0077 31.1308L73.6019 32.0448Z" fill="#4E4E4E" mask="url(#path-1-outside-1_15_194)"/>
</g>
<g filter="url(#filter1_d_15_194)">
<mask id="path-3-inside-2_15_194" fill="white">
<path fill-rule="evenodd" clip-rule="evenodd" d="M11.284 38.1407C12.3593 36.9599 13.3819 35.9626 14.3642 35.1311L40.5891 52.8655L42.8298 49.5521L17.9458 32.7244C23.5764 29.9821 28.2346 32.8528 34.9226 36.9744C35.602 37.3931 36.3023 37.8247 37.0268 38.2646C46.2424 43.8611 51.2865 53.0145 49.8413 60.3859L116.23 97.1263L108.859 108.558L45.3021 67.6451C39.3851 72.1263 29.0992 71.802 20.0116 66.2833C11.8818 61.3462 3.96966 55.9471 5.08492 48.4259L30.2794 65.4636L32.5201 62.1501L6.42407 44.5028C6.9843 43.4378 7.71843 42.3331 8.64528 41.185L33.8806 58.2502L36.1213 54.9368L11.284 38.1407Z"/>
</mask>
<path fill-rule="evenodd" clip-rule="evenodd" d="M11.284 38.1407C12.3593 36.9599 13.3819 35.9626 14.3642 35.1311L40.5891 52.8655L42.8298 49.5521L17.9458 32.7244C23.5764 29.9821 28.2346 32.8528 34.9226 36.9744C35.602 37.3931 36.3023 37.8247 37.0268 38.2646C46.2424 43.8611 51.2865 53.0145 49.8413 60.3859L116.23 97.1263L108.859 108.558L45.3021 67.6451C39.3851 72.1263 29.0992 71.802 20.0116 66.2833C11.8818 61.3462 3.96966 55.9471 5.08492 48.4259L30.2794 65.4636L32.5201 62.1501L6.42407 44.5028C6.9843 43.4378 7.71843 42.3331 8.64528 41.185L33.8806 58.2502L36.1213 54.9368L11.284 38.1407Z" fill="#D9D9D9"/>
<path d="M14.3642 35.1311L14.6443 34.7169L14.3304 34.5046L14.0411 34.7495L14.3642 35.1311ZM11.284 38.1407L10.9143 37.8041L10.5254 38.2313L11.0039 38.5549L11.284 38.1407ZM40.5891 52.8655L40.309 53.2797L40.7232 53.5598L41.0033 53.1456L40.5891 52.8655ZM42.8298 49.5521L43.244 49.8321L43.5241 49.418L43.1099 49.1379L42.8298 49.5521ZM17.9458 32.7244L17.7269 32.2749L16.9489 32.6538L17.6657 33.1386L17.9458 32.7244ZM34.9226 36.9744L34.6603 37.4001L34.6603 37.4001L34.9226 36.9744ZM37.0268 38.2646L36.7672 38.692L36.7672 38.692L37.0268 38.2646ZM49.8413 60.3859L49.3506 60.2897L49.2806 60.6471L49.5992 60.8234L49.8413 60.3859ZM116.23 97.1263L116.65 97.3973L116.94 96.9478L116.472 96.6889L116.23 97.1263ZM108.859 108.558L108.588 108.978L109.009 109.249L109.279 108.829L108.859 108.558ZM45.3021 67.6451L45.5727 67.2247L45.2789 67.0355L45.0002 67.2465L45.3021 67.6451ZM20.0116 66.2833L20.2712 65.8559L20.2712 65.8559L20.0116 66.2833ZM5.08492 48.4259L5.36501 48.0117L4.70687 47.5667L4.59033 48.3526L5.08492 48.4259ZM30.2794 65.4636L29.9993 65.8777L30.4135 66.1578L30.6936 65.7436L30.2794 65.4636ZM32.5201 62.1501L32.9343 62.4302L33.2144 62.016L32.8002 61.7359L32.5201 62.1501ZM6.42407 44.5028L5.98156 44.27L5.77315 44.6662L6.14398 44.9169L6.42407 44.5028ZM8.64528 41.185L8.92537 40.7709L8.54483 40.5135L8.25625 40.871L8.64528 41.185ZM33.8806 58.2502L33.6005 58.6644L34.0146 58.9445L34.2947 58.5303L33.8806 58.2502ZM36.1213 54.9368L36.5355 55.2168L36.8156 54.8027L36.4014 54.5226L36.1213 54.9368ZM14.0411 34.7495C13.0393 35.5975 12.0012 36.6105 10.9143 37.8041L11.6537 38.4774C12.7174 37.3092 13.7245 36.3276 14.6872 35.5127L14.0411 34.7495ZM40.8692 52.4513L14.6443 34.7169L14.0841 35.5453L40.309 53.2797L40.8692 52.4513ZM42.4157 49.272L40.1749 52.5854L41.0033 53.1456L43.244 49.8321L42.4157 49.272ZM17.6657 33.1386L42.5497 49.9662L43.1099 49.1379L18.2259 32.3102L17.6657 33.1386ZM35.1849 36.5487C31.8575 34.4981 28.9662 32.7129 26.194 31.8005C23.3862 30.8764 20.677 30.838 17.7269 32.2749L18.1648 33.1739C20.8452 31.8684 23.2804 31.8943 25.8814 32.7504C28.5179 33.6181 31.2998 35.3291 34.6603 37.4001L35.1849 36.5487ZM37.2863 37.8373C36.5635 37.3983 35.8645 36.9676 35.1849 36.5487L34.6603 37.4001C35.3395 37.8186 36.0412 38.2511 36.7672 38.692L37.2863 37.8373ZM50.3319 60.4821C51.8324 52.8289 46.6043 43.4959 37.2863 37.8373L36.7672 38.692C45.8805 44.2263 50.7406 53.2001 49.3506 60.2897L50.3319 60.4821ZM49.5992 60.8234L115.987 97.5638L116.472 96.6889L50.0834 59.9484L49.5992 60.8234ZM115.809 96.8554L108.439 108.287L109.279 108.829L116.65 97.3973L115.809 96.8554ZM109.13 108.137L45.5727 67.2247L45.0315 68.0655L108.588 108.978L109.13 108.137ZM19.7521 66.7106C28.9423 72.2916 39.4648 72.6931 45.604 68.0437L45.0002 67.2465C39.3054 71.5594 29.2561 71.3123 20.2712 65.8559L19.7521 66.7106ZM4.59033 48.3526C4.00036 52.3313 5.81406 55.7102 8.72463 58.674C11.6289 61.6313 15.6907 64.2442 19.7521 66.7106L20.2712 65.8559C16.2027 63.3852 12.2436 60.83 9.43811 57.9733C6.63897 55.123 5.05422 52.0417 5.57951 48.4993L4.59033 48.3526ZM30.5595 65.0494L5.36501 48.0117L4.80483 48.8401L29.9993 65.8777L30.5595 65.0494ZM32.106 61.87L29.8652 65.1835L30.6936 65.7436L32.9343 62.4302L32.106 61.87ZM6.14398 44.9169L32.2401 62.5643L32.8002 61.7359L6.70416 44.0886L6.14398 44.9169ZM8.25625 40.871C7.31219 42.0403 6.55914 43.172 5.98156 44.27L6.86658 44.7355C7.40945 43.7035 8.12467 42.6258 9.03432 41.4991L8.25625 40.871ZM34.1606 57.8361L8.92537 40.7709L8.36519 41.5992L33.6005 58.6644L34.1606 57.8361ZM35.7071 54.6567L33.4664 57.9701L34.2947 58.5303L36.5355 55.2168L35.7071 54.6567ZM11.0039 38.5549L35.8412 55.3509L36.4014 54.5226L11.5641 37.7265L11.0039 38.5549Z" fill="#4E4E4E" fill-opacity="0.75" mask="url(#path-3-inside-2_15_194)"/>
</g>
<ellipse cx="45.4385" cy="55.0232" rx="5.27794" ry="1.93405" transform="rotate(84.4153 45.4385 55.0232)" fill="#ECEBEB" fill-opacity="0.9"/>
<ellipse cx="32.9625" cy="38.6186" rx="5.04381" ry="1.42632" transform="rotate(34.5731 32.9625 38.6186)" fill="#ECEBEB" fill-opacity="0.9"/>
<ellipse cx="54.2923" cy="16.4716" rx="11.6238" ry="4" transform="rotate(18.4416 54.2923 16.4716)" fill="#F7F5F5" fill-opacity="0.9"/>
<defs>
<filter id="filter0_d_15_194" x="24.1369" y="6.43813" width="116.37" height="73.1059" filterUnits="userSpaceOnUse" color-interpolation-filters="sRGB">
<feFlood flood-opacity="0" result="BackgroundImageFix"/>
<feColorMatrix in="SourceAlpha" type="matrix" values="0 0 0 0 0 0 0 0 0 0 0 0 0 0 0 0 0 0 127 0" result="hardAlpha"/>
<feOffset dy="4"/>
<feGaussianBlur stdDeviation="2"/>
<feComposite in2="hardAlpha" operator="out"/>
<feColorMatrix type="matrix" values="0 0 0 0 0 0 0 0 0 0 0 0 0 0 0 0 0 0 0.25 0"/>
<feBlend mode="normal" in2="BackgroundImageFix" result="effect1_dropShadow_15_194"/>
<feBlend mode="normal" in="SourceGraphic" in2="effect1_dropShadow_15_194" result="shape"/>
</filter>
<filter id="filter1_d_15_194" x="0.97941" y="31.6447" width="119.25" height="84.913" filterUnits="userSpaceOnUse" color-interpolation-filters="sRGB">
<feFlood flood-opacity="0" result="BackgroundImageFix"/>
<feColorMatrix in="SourceAlpha" type="matrix" values="0 0 0 0 0 0 0 0 0 0 0 0 0 0 0 0 0 0 127 0" result="hardAlpha"/>
<feOffset dy="4"/>
<feGaussianBlur stdDeviation="2"/>
<feComposite in2="hardAlpha" operator="out"/>
<feColorMatrix type="matrix" values="0 0 0 0 0 0 0 0 0 0 0 0 0 0 0 0 0 0 0.25 0"/>
<feBlend mode="normal" in2="BackgroundImageFix" result="effect1_dropShadow_15_194"/>
<feBlend mode="normal" in="SourceGraphic" in2="effect1_dropShadow_15_194" result="shape"/>
</filter>
</defs>
</svg>
