<svg width="329" height="325" viewBox="0 0 329 325" fill="none" xmlns="http://www.w3.org/2000/svg">
<path d="M169.225 49.5421C176.062 76.8661 189.087 184.25 173.014 188.272C156.941 192.294 117.857 91.4309 111.02 64.1068C104.182 36.7827 111.669 11.3718 127.742 7.34984C143.815 3.3279 162.388 22.218 169.225 49.5421Z" fill="#FBFAFA"/>
<path d="M68.7039 232.973C86.7658 211.36 165.9 137.613 178.614 148.238C191.327 158.862 132.806 249.835 114.744 271.448C96.6818 293.061 71.7334 301.969 59.0199 291.344C46.3064 280.72 50.642 254.586 68.7039 232.973Z" fill="#FBFAFA"/>
<path d="M175.396 276.854C165.752 250.39 141.62 144.945 157.187 139.272C172.754 133.599 222.125 229.845 231.769 256.309C241.413 282.773 236.612 308.825 221.045 314.499C205.478 320.172 185.04 303.318 175.396 276.854Z" fill="#FBFAFA"/>
<path d="M271.674 219.57C243.68 216.465 138.48 191.285 140.307 174.817C142.133 158.35 250.293 156.831 278.288 159.935C306.283 163.04 327.497 178.906 325.67 195.374C323.844 211.841 299.669 222.674 271.674 219.57Z" fill="#FBFAFA"/>
<path d="M283.03 143.468C257.833 156.056 155.813 192.013 148.408 177.191C141.003 162.369 231.017 102.383 256.213 89.7938C281.41 77.2052 307.839 79.0153 315.244 93.8369C322.65 108.659 308.227 130.879 283.03 143.468Z" fill="#FBFAFA"/>
<path d="M246.047 84.7039C233.241 109.791 172.477 199.281 157.72 191.748C142.963 184.215 179.801 82.5104 192.608 57.4236C205.414 32.3369 227.759 18.1069 242.516 25.6401C257.273 33.1734 258.854 59.6171 246.047 84.7039Z" fill="#FBFAFA"/>
<path d="M50.9667 142.894C79.1149 141.877 186.863 151.423 187.462 167.98C188.06 184.538 81.2819 201.837 53.1338 202.855C24.9856 203.872 1.68194 191.274 1.08352 174.716C0.485105 158.159 22.8186 143.911 50.9667 142.894Z" fill="#FBFAFA"/>
<path d="M94.4143 71.1519C116.279 88.9089 191.128 167.001 180.683 179.862C170.238 192.724 78.4528 135.484 56.5886 117.727C34.7244 99.9697 25.4676 75.1487 35.9129 62.2874C46.3582 49.4261 72.5502 53.3949 94.4143 71.1519Z" fill="#FBFAFA"/>
<g filter="url(#filter0_d_22_12)">
<ellipse cx="165.5" cy="155" rx="34.5" ry="34" fill="#FFE58A"/>
</g>
<defs>
<filter id="filter0_d_22_12" x="127" y="121" width="77" height="76" filterUnits="userSpaceOnUse" color-interpolation-filters="sRGB">
<feFlood flood-opacity="0" result="BackgroundImageFix"/>
<feColorMatrix in="SourceAlpha" type="matrix" values="0 0 0 0 0 0 0 0 0 0 0 0 0 0 0 0 0 0 127 0" result="hardAlpha"/>
<feOffset dy="4"/>
<feGaussianBlur stdDeviation="2"/>
<feComposite in2="hardAlpha" operator="out"/>
<feColorMatrix type="matrix" values="0 0 0 0 0 0 0 0 0 0 0 0 0 0 0 0 0 0 0.25 0"/>
<feBlend mode="normal" in2="BackgroundImageFix" result="effect1_dropShadow_22_12"/>
<feBlend mode="normal" in="SourceGraphic" in2="effect1_dropShadow_22_12" result="shape"/>
</filter>
</defs>
</svg>
