<svg width="176" height="166" viewBox="0 0 176 166" fill="none" xmlns="http://www.w3.org/2000/svg">
<g filter="url(#filter0_d_14_173)">
<ellipse cx="87" cy="65.7831" rx="75" ry="39.2169" fill="#FDFDFD" shape-rendering="crispEdges"/>
<path d="M87 105.25C107.743 105.25 126.534 100.854 140.149 93.7352C153.752 86.6224 162.25 76.7524 162.25 65.7831C162.25 54.8139 153.752 44.9439 140.149 37.8311C126.534 30.712 107.743 26.3163 87 26.3163C66.2573 26.3163 47.466 30.712 33.8511 37.8311C20.2483 44.9439 11.75 54.8139 11.75 65.7831C11.75 76.7524 20.2483 86.6224 33.8511 93.7352C47.466 100.854 66.2573 105.25 87 105.25Z" stroke="#8C8C8C" stroke-opacity="0.78" stroke-width="0.5" shape-rendering="crispEdges"/>
</g>
<path d="M87.6148 87.7892C102.774 87.7892 116.522 85.1617 126.499 80.8941C131.487 78.7607 135.555 76.2075 138.384 73.3468C141.214 70.4841 142.828 67.2863 142.828 63.8855C142.828 60.4848 141.214 57.287 138.384 54.4242C135.555 51.5636 131.487 49.0104 126.499 46.877C116.522 42.6093 102.774 39.9819 87.6148 39.9819C72.4552 39.9819 58.707 42.6093 48.7301 46.877C43.7425 49.0104 39.6743 51.5636 36.8457 54.4242C34.015 57.287 32.4016 60.4848 32.4016 63.8855C32.4016 67.2863 34.015 70.4841 36.8457 73.3468C39.6743 76.2075 43.7425 78.7607 48.7301 80.8941C58.707 85.1617 72.4552 87.7892 87.6148 87.7892Z" stroke="#C7C5C5"/>
<path fill-rule="evenodd" clip-rule="evenodd" d="M58.1066 60.7229C72.7059 60.7229 84.541 50.4807 84.541 37.8464C84.541 36.5902 84.424 35.3578 84.199 34.1566L32.0142 34.1566C31.7891 35.3578 31.6721 36.5902 31.6721 37.8464C31.6721 50.4807 43.5072 60.7229 58.1066 60.7229Z" fill="#FD9E11"/>
<path fill-rule="evenodd" clip-rule="evenodd" d="M58.7213 56.9277C72.3021 56.9277 83.3115 48.1487 83.3115 37.3193C83.3115 36.2426 83.2027 35.1862 82.9933 34.1566L34.4493 34.1566C34.24 35.1862 34.1312 36.2426 34.1312 37.3193C34.1312 48.1487 45.1406 56.9277 58.7213 56.9277Z" fill="#FDDE3C"/>
<path d="M83.3115 34.1566H34.1312C33.9184 39.0707 34.8981 42.4718 37.8197 47.4398C42.9556 52.394 45.9365 54.1301 51.3443 56.2952C58.8581 57.3662 62.4497 57.0248 67.9426 55.0301C72.655 53.1598 75.0364 51.5468 79.0082 48.0723C82.082 43.6446 83.2516 40.0839 83.3115 34.1566Z" stroke="white" stroke-width="0.5"/>
<path d="M58.7213 34.1566L39.0492 48.0723" stroke="white" stroke-width="0.5"/>
<path d="M58.7213 34.1566V56.2952" stroke="white" stroke-width="0.5"/>
<path d="M59.3361 34.1566L78.3935 48.7048" stroke="white" stroke-width="0.5"/>
<path fill-rule="evenodd" clip-rule="evenodd" d="M53.5828 76.3881C68.0808 74.6213 78.663 63.018 77.2188 50.4714C77.0752 49.224 76.8181 48.0142 76.4573 46.8486L24.6347 53.1639C24.5486 54.3839 24.5733 55.622 24.7169 56.8694C26.1611 69.4161 39.0848 78.1549 53.5828 76.3881Z" fill="#FD9E11"/>
<path fill-rule="evenodd" clip-rule="evenodd" d="M75.9388 50.1077C75.9384 50.104 75.9379 50.1004 75.9375 50.0967C75.9371 50.0931 75.9367 50.0894 75.9363 50.0858C75.8129 49.0204 75.5845 47.9882 75.26 46.9945L27.053 52.8692C26.9628 53.9169 26.9755 54.9792 27.0985 56.0484C28.3365 66.8027 40.273 74.1884 53.7595 72.5449C67.2414 70.9019 77.1687 60.8578 75.9388 50.1077Z" fill="#FDDE3C"/>
<path d="M75.576 46.956L26.737 52.9077C27.0875 57.8134 28.4491 61.0723 31.9184 65.6523C37.5849 69.9505 40.7436 71.3139 46.3613 72.8095C53.9454 72.9637 57.473 72.1901 62.6999 69.5445C67.1657 67.1169 69.3462 65.2269 72.8933 61.2959C75.4396 56.5269 76.194 52.8494 75.576 46.956Z" stroke="white" stroke-width="0.5"/>
<path d="M51.1565 49.9319L33.2116 66.1316" stroke="white" stroke-width="0.5"/>
<path d="M51.1565 49.9319L53.6872 71.9168" stroke="white" stroke-width="0.5"/>
<path d="M51.767 49.8575L72.3551 61.9984" stroke="white" stroke-width="0.5"/>
<path d="M121.426 3.15758V68.875C97.5331 71.1821 88.2333 68.3637 78.3934 52.1001L121.426 3.15758Z" fill="#699A00"/>
<path d="M78.517 52.1111L121.326 3.42275V68.7842C109.429 69.9283 101.177 69.7922 94.6749 67.3579C88.1796 64.9261 83.4176 60.1948 78.517 52.1111Z" stroke="black" stroke-opacity="0.75" stroke-width="0.2"/>
<path d="M121.426 0V62.5881C100.719 64.7853 92.659 60.8654 84.1311 45.3763L121.426 0Z" fill="#FF8383"/>
<path d="M84.2514 45.3875L121.326 0.279158V62.4981C111.025 63.5843 103.881 63.1459 98.2536 60.5239C92.627 57.9024 88.4999 53.0901 84.2514 45.3875Z" stroke="black" stroke-opacity="0.75" stroke-width="0.2"/>
<path d="M92.7377 44.2062C92.7377 45.95 92.0955 47.3637 91.3033 47.3637C90.5111 47.3637 91.3033 47.5288 91.3033 45.785C91.3033 44.0411 90.5111 42.6274 91.3033 42.6274C92.0955 42.6274 92.7377 42.4623 92.7377 44.2062Z" fill="#4E4E4E"/>
<path d="M117.475 14.2133C117.475 15.9572 116.833 17.3709 116.041 17.3709C115.248 17.3709 116.041 17.536 116.041 15.7921C116.041 14.0482 115.248 12.6345 116.041 12.6345C116.833 12.6345 117.475 12.4694 117.475 14.2133Z" fill="#4E4E4E"/>
<path d="M107.077 30.629C105.497 30.4908 104.268 29.6741 104.331 28.8049C104.393 27.9357 104.181 28.7918 105.761 28.9301C107.34 29.0683 108.683 28.3111 108.62 29.1803C108.558 30.0495 108.656 30.7673 107.077 30.629Z" fill="#4E4E4E"/>
<path d="M117.839 29.9195C118.341 31.5734 118.14 33.1383 117.388 33.4148C116.637 33.6913 117.436 33.5714 116.933 31.9175C116.431 30.2637 115.272 29.1995 116.024 28.9229C116.775 28.6464 117.336 28.2657 117.839 29.9195Z" fill="#4E4E4E"/>
<path d="M114.606 55.2619C114.606 57.0058 113.964 58.4195 113.172 58.4195C112.38 58.4195 113.172 58.5846 113.172 56.8407C113.172 55.0968 112.38 53.6831 113.172 53.6831C113.964 53.6831 114.606 53.518 114.606 55.2619Z" fill="#4E4E4E"/>
<path d="M107.525 43.5642C106.378 44.7668 105.005 45.2298 104.459 44.5983C103.912 43.9669 104.35 44.7122 105.497 43.5096C106.645 42.307 107.029 40.7007 107.575 41.3321C108.121 41.9636 108.673 42.3616 107.525 43.5642Z" fill="#4E4E4E"/>
<path d="M83.9262 45.5422C84.3403 45.9682 87.8568 50.7775 90.163 53.8833C91.4723 55.6465 93.1579 57.0236 95.1275 57.9951C97.4506 59.141 99.3948 60.0177 101.67 60.8691C103.789 61.6621 106.037 62.0486 108.3 62.0653C112.043 62.0931 115.777 61.9733 116.339 61.9878C117.075 62.0069 121.426 61.9878 121.426 61.9878" stroke="#ABD356" stroke-width="2"/>
<path d="M96.3302 13.9207L134.407 66.6835C116.56 83.1916 107.461 86.6331 90.1374 79.6111L96.3302 13.9207Z" fill="#699A00"/>
<path d="M90.2428 79.5446L96.4036 14.1932L134.274 66.6704C125.385 74.8867 118.68 79.8401 112.048 81.874C105.424 83.9058 98.8598 83.0281 90.2428 79.5446Z" stroke="black" stroke-opacity="0.75" stroke-width="0.2"/>
<path d="M94.5007 11.3855L130.764 61.6359C115.412 76.1016 106.669 77.8983 90.8483 70.6933L94.5007 11.3855Z" fill="#FF8383"/>
<path d="M90.9511 70.629L94.5821 11.6691L130.632 61.6234C122.99 68.8146 117 72.8452 110.962 74.1921C104.925 75.5387 98.8239 74.2067 90.9511 70.629Z" stroke="black" stroke-opacity="0.75" stroke-width="0.2"/>
<path d="M97.0803 64.4747C98.0907 65.8748 98.3942 67.4037 97.7581 67.8897C97.1221 68.3756 97.8538 68.0222 96.8434 66.6221C95.833 65.222 94.3779 64.5729 95.0139 64.087C95.65 63.601 96.0699 63.0746 97.0803 64.4747Z" fill="#4E4E4E"/>
<path d="M99.5636 25.2206C100.574 26.6208 100.877 28.1497 100.241 28.6356C99.6053 29.1216 100.337 28.7682 99.3266 27.3681C98.3162 25.968 96.8611 25.3189 97.4972 24.8329C98.1332 24.347 98.5532 23.8205 99.5636 25.2206Z" fill="#4E4E4E"/>
<path d="M100.726 44.7786C99.378 45.6364 97.9177 45.7349 97.4645 44.9985C97.0114 44.2621 97.3369 45.0797 98.6851 44.2219C100.033 43.364 100.673 41.9323 101.126 42.6686C101.579 43.405 102.074 43.9208 100.726 44.7786Z" fill="#4E4E4E"/>
<path d="M108.956 37.6075C110.318 38.6272 111.062 40.0073 110.619 40.6902C110.176 41.373 110.748 40.7867 109.387 39.7671C108.025 38.7475 106.478 38.6038 106.921 37.9209C107.364 37.238 107.594 36.5879 108.956 37.6075Z" fill="#4E4E4E"/>
<path d="M121.044 59.9372C122.054 61.3373 122.357 62.8663 121.721 63.3522C121.085 63.8381 121.817 63.4848 120.807 62.0846C119.796 60.6845 118.341 60.0354 118.977 59.5495C119.613 59.0636 120.033 58.5371 121.044 59.9372Z" fill="#4E4E4E"/>
<path d="M108.581 54.8887C108.357 56.558 107.522 57.7719 106.718 57.6001C105.914 57.4282 106.697 57.7581 106.921 56.0888C107.146 54.4194 106.523 52.8943 107.328 53.0662C108.132 53.238 108.806 53.2193 108.581 54.8887Z" fill="#4E4E4E"/>
<path d="M90.7799 70.9522C91.3614 71.0406 97.0117 72.7575 100.662 73.8358C102.708 74.4402 104.821 74.5113 106.918 74.0936C109.511 73.5773 111.616 73.0803 113.994 72.347C116.097 71.6982 118.068 70.6611 119.843 69.3275C122.892 67.0358 125.868 64.6101 126.331 64.2746C126.934 63.8383 130.416 61.1539 130.416 61.1539" stroke="#ABD356" stroke-width="2"/>
<g filter="url(#filter1_d_14_173)">
<path d="M38.0766 106.262L39.0009 104.776C39.7137 103.213 39.5593 101.933 38.538 100.933C37.7264 100.194 37.0658 99.7077 36.5563 99.4753L36.5054 99.452C35.4864 98.9872 34.5258 98.7542 33.6236 98.753C32.7369 98.7178 32.0153 98.8605 31.4587 99.1811C30.2961 99.8407 29.4159 100.691 28.8182 101.731C28.2294 103.022 28.2955 104.406 29.0165 105.884C29.753 107.328 30.7738 108.778 32.0788 110.235C33.4332 111.674 34.7397 113.173 35.9982 114.732C37.2907 116.306 38.1657 118.121 38.6233 120.176C39.081 122.231 38.8217 124.329 37.8455 126.469C35.9397 130.647 33.1896 133.167 29.5951 134.031C26.0345 134.91 22.5729 134.582 19.2103 133.048C15.8816 131.53 13.4542 129.52 11.9281 127.018C10.4515 124.498 10.2943 121.964 11.4564 119.417L11.4796 119.366C12.0529 118.109 12.7355 117.107 13.5275 116.361C14.3689 115.595 15.1621 115.116 15.907 114.922C17.4462 114.517 18.6899 114.489 19.6379 114.839L20.2726 115.067C21.2236 115.501 21.9813 116.134 22.5456 116.966C23.1254 117.764 23.2294 118.57 22.8575 119.386C22.6716 119.793 22.2959 120.032 21.7303 120.102C21.1648 120.173 20.5883 120.402 20.0007 120.791C19.4471 121.195 19.0681 121.576 18.8637 121.934L18.5061 122.448C17.561 124.52 17.8845 126.329 19.4767 127.876C20.0476 128.424 20.5368 128.791 20.9444 128.977C22.8126 129.829 24.5627 129.95 26.1949 129.341C27.8611 128.747 29.0893 127.583 29.8795 125.851C30.8247 123.779 30.7085 121.695 29.531 119.599C28.6402 118.043 27.5608 116.586 26.2927 115.228C25.0586 113.886 24.2318 112.955 23.8123 112.435C23.3928 111.915 22.9626 111.329 22.5216 110.677C22.0807 110.024 21.6415 109.188 21.2041 108.168C20.2245 105.997 20.2848 103.706 21.3849 101.295C22.5005 98.8493 24.1002 97.0964 26.1841 96.0364C29.9407 94.098 34.1967 94.2134 38.952 96.3826C41.4655 97.5292 43.3637 98.9901 44.6466 100.765C45.9451 102.507 46.2069 104.226 45.4322 105.925C44.8744 107.147 44.0529 108.004 42.9678 108.494C41.9166 108.999 40.8475 109.004 39.7606 108.508C39.2511 108.275 38.7881 107.941 38.3716 107.505C37.989 107.084 37.8907 106.67 38.0766 106.262Z" fill="white"/>
<path d="M38.0766 106.262L37.2274 105.734L37.1935 105.789L37.1668 105.847L38.0766 106.262ZM39.0009 104.776L39.8501 105.304L39.8841 105.249L39.9107 105.191L39.0009 104.776ZM38.538 100.933L39.2374 100.218L39.2247 100.206L39.2115 100.194L38.538 100.933ZM33.6236 98.753L33.584 99.7522L33.6031 99.753L33.6223 99.753L33.6236 98.753ZM31.4587 99.1811L31.9522 100.051L31.9578 100.048L31.4587 99.1811ZM28.8182 101.731L27.9511 101.233L27.9278 101.274L27.9084 101.316L28.8182 101.731ZM29.0165 105.884L28.1178 106.323L28.1217 106.331L28.1257 106.338L29.0165 105.884ZM32.0788 110.235L31.3339 110.903L31.3422 110.912L31.3507 110.921L32.0788 110.235ZM35.9982 114.732L35.2201 115.36L35.2253 115.366L35.9982 114.732ZM38.6233 120.176L37.6472 120.394L37.6472 120.394L38.6233 120.176ZM29.5951 134.031L29.3615 133.058L29.3554 133.06L29.5951 134.031ZM11.9281 127.018L11.0653 127.524L11.0698 127.531L11.0744 127.539L11.9281 127.018ZM13.5275 116.361L12.8547 115.621L12.8481 115.627L12.8415 115.633L13.5275 116.361ZM15.907 114.922L16.1586 115.89L16.1619 115.889L15.907 114.922ZM19.6379 114.839L19.2912 115.777L19.2999 115.781L19.6379 114.839ZM20.2726 115.067L20.6876 114.158L20.6498 114.14L20.6106 114.126L20.2726 115.067ZM22.5456 116.966L21.718 117.527L21.7271 117.541L21.7366 117.554L22.5456 116.966ZM21.7303 120.102L21.607 119.11L21.607 119.11L21.7303 120.102ZM20.0007 120.791L19.4492 119.957L19.4299 119.969L19.4112 119.983L20.0007 120.791ZM18.8637 121.934L19.6846 122.505L19.7101 122.468L19.7322 122.43L18.8637 121.934ZM18.5061 122.448L17.6852 121.877L17.6338 121.951L17.5963 122.033L18.5061 122.448ZM19.4767 127.876L18.7799 128.594L18.7845 128.598L19.4767 127.876ZM26.1949 129.341L25.8591 128.399L25.8521 128.401L25.8451 128.404L26.1949 129.341ZM29.531 119.599L30.403 119.109L30.3988 119.102L29.531 119.599ZM26.2927 115.228L25.5564 115.905L25.5618 115.911L26.2927 115.228ZM23.8123 112.435L24.5904 111.807L24.5904 111.807L23.8123 112.435ZM22.5216 110.677L21.6931 111.237L21.6931 111.237L22.5216 110.677ZM21.2041 108.168L22.1232 107.774L22.1195 107.765L22.1156 107.756L21.2041 108.168ZM26.1841 96.0364L26.6375 96.9277L26.6426 96.925L26.1841 96.0364ZM44.6466 100.765L43.8361 101.351L43.8405 101.357L43.845 101.363L44.6466 100.765ZM42.9678 108.494L42.5564 107.582L42.5454 107.587L42.5345 107.592L42.9678 108.494ZM38.3716 107.505L37.6317 108.178L37.6399 108.187L37.6483 108.195L38.3716 107.505ZM38.9259 106.79L39.8501 105.304L38.1517 104.248L37.2274 105.734L38.9259 106.79ZM39.9107 105.191C40.3188 104.296 40.5178 103.398 40.4126 102.524C40.3052 101.633 39.8921 100.859 39.2374 100.218L37.8386 101.648C38.2052 102.007 38.3799 102.373 38.4269 102.763C38.476 103.17 38.3958 103.693 38.0911 104.361L39.9107 105.191ZM39.2115 100.194C38.382 99.4382 37.6276 98.8649 36.9714 98.5655L36.1413 100.385C36.504 100.551 37.0707 100.949 37.8645 101.672L39.2115 100.194ZM36.9714 98.5655L36.9204 98.5422L36.0904 100.362L36.1413 100.385L36.9714 98.5655ZM36.9204 98.5422C35.8021 98.0321 34.7 97.7544 33.625 97.753L33.6223 99.753C34.3516 99.754 35.1708 99.9424 36.0904 100.362L36.9204 98.5422ZM33.6633 97.7538C32.6573 97.7139 31.7308 97.8704 30.9596 98.3146L31.9578 100.048C32.2998 99.8507 32.8165 99.7218 33.584 99.7522L33.6633 97.7538ZM30.9652 98.3113C29.6652 99.0489 28.6477 100.02 27.9511 101.233L29.6853 102.229C30.184 101.361 30.9269 100.633 31.9522 100.051L30.9652 98.3113ZM27.9084 101.316C27.1751 102.924 27.289 104.624 28.1178 106.323L29.9152 105.446C29.302 104.189 29.2837 103.12 29.728 102.146L27.9084 101.316ZM28.1257 106.338C28.9085 107.873 29.9827 109.394 31.3339 110.903L32.8237 109.568C31.5648 108.163 30.5975 106.783 29.9073 105.43L28.1257 106.338ZM31.3507 110.921C32.6875 112.341 33.9773 113.82 35.2201 115.36L36.7763 114.103C35.5021 112.525 34.1789 111.007 32.8068 109.55L31.3507 110.921ZM35.2253 115.366C36.4149 116.815 37.2225 118.486 37.6472 120.394L39.5994 119.959C39.1089 117.756 38.1665 115.797 36.7711 114.097L35.2253 115.366ZM37.6472 120.394C38.0521 122.212 37.8327 124.088 36.9357 126.054L38.7554 126.884C39.8107 124.57 40.1098 122.251 39.5994 119.959L37.6472 120.394ZM36.9357 126.054C35.1235 130.027 32.5851 132.284 29.3615 133.058L29.8286 135.003C33.794 134.051 36.756 131.267 38.7554 126.884L36.9357 126.054ZM29.3554 133.06C26.0156 133.884 22.7846 133.58 19.6253 132.138L18.7952 133.958C22.3612 135.585 26.0534 135.935 29.8347 135.002L29.3554 133.06ZM19.6253 132.138C16.433 130.682 14.1806 128.79 12.7818 126.497L11.0744 127.539C12.7278 130.249 15.3301 132.377 18.7952 133.958L19.6253 132.138ZM12.7909 126.512C11.4705 124.259 11.346 122.068 12.3662 119.832L10.5466 119.002C9.24259 121.86 9.43257 124.737 11.0653 127.524L12.7909 126.512ZM12.3662 119.832L12.3894 119.781L10.5698 118.951L10.5466 119.002L12.3662 119.832ZM12.3894 119.781C12.9229 118.611 13.5372 117.726 14.2135 117.088L12.8415 115.633C11.9338 116.489 11.1829 117.607 10.5698 118.951L12.3894 119.781ZM14.2003 117.1C14.9748 116.396 15.6275 116.028 16.1586 115.89L15.6554 113.955C14.6967 114.204 13.7631 114.795 12.8547 115.621L14.2003 117.1ZM16.1619 115.889C17.6081 115.508 18.6179 115.529 19.2913 115.777L19.9846 113.901C18.7618 113.449 17.2843 113.525 15.6521 113.955L16.1619 115.889ZM19.2999 115.781L19.9345 116.008L20.6106 114.126L19.976 113.898L19.2999 115.781ZM19.8576 115.977C20.6487 116.338 21.2609 116.853 21.718 117.527L23.3732 116.405C22.7017 115.415 21.7985 114.664 20.6876 114.158L19.8576 115.977ZM21.7366 117.554C22.1305 118.096 22.1524 118.522 21.9477 118.971L23.7673 119.801C24.3063 118.619 24.1203 117.432 23.3546 116.378L21.7366 117.554ZM21.9477 118.971C21.9345 119 21.9232 119.012 21.8996 119.027C21.8667 119.048 21.7824 119.088 21.607 119.11L21.8537 121.095C22.6566 120.995 23.3975 120.611 23.7673 119.801L21.9477 118.971ZM21.607 119.11C20.8566 119.203 20.1356 119.503 19.4492 119.957L20.5523 121.625C21.041 121.302 21.4731 121.142 21.8537 121.095L21.607 119.11ZM19.4112 119.983C18.8095 120.422 18.301 120.902 17.9952 121.438L19.7322 122.43C19.8352 122.249 20.0848 121.967 20.5902 121.598L19.4112 119.983ZM18.0428 121.363L17.6852 121.877L19.327 123.019L19.6846 122.505L18.0428 121.363ZM17.5963 122.033C17.0597 123.209 16.8503 124.387 17.0555 125.535C17.2613 126.686 17.8655 127.705 18.7799 128.594L20.1736 127.159C19.4958 126.501 19.1421 125.842 19.0243 125.183C18.9061 124.522 19.0074 123.759 19.416 122.863L17.5963 122.033ZM18.7845 128.598C19.3843 129.173 19.9696 129.631 20.5294 129.886L21.3595 128.067C21.104 127.95 20.7109 127.675 20.169 127.155L18.7845 128.598ZM20.5294 129.886C22.5925 130.828 24.6202 130.996 26.5448 130.277L25.8451 128.404C24.5053 128.904 23.0327 128.83 21.3595 128.067L20.5294 129.886ZM26.5308 130.283C28.4725 129.59 29.8964 128.224 30.7893 126.266L28.9697 125.436C28.2822 126.943 27.2498 127.903 25.8591 128.399L26.5308 130.283ZM30.7893 126.266C31.8754 123.885 31.7264 121.465 30.4029 119.109L28.6592 120.088C29.6906 121.925 29.774 123.673 28.9697 125.436L30.7893 126.266ZM30.3988 119.102C29.4683 117.477 28.3424 115.958 27.0236 114.546L25.5618 115.911C26.7792 117.215 27.8121 118.61 28.6633 120.096L30.3988 119.102ZM27.0289 114.552C25.7928 113.207 24.9869 112.298 24.5904 111.807L23.0342 113.063C23.4767 113.611 24.3245 114.565 25.5565 115.905L27.0289 114.552ZM24.5904 111.807C24.1915 111.313 23.778 110.75 23.3502 110.117L21.6931 111.237C22.1472 111.909 22.5941 112.518 23.0342 113.063L24.5904 111.807ZM23.3502 110.117C22.9556 109.533 22.545 108.757 22.1232 107.774L20.285 108.562C20.7381 109.618 21.2057 110.515 21.6931 111.237L23.3502 110.117ZM22.1156 107.756C21.2689 105.88 21.2991 103.892 22.2947 101.71L20.4751 100.88C19.2704 103.521 19.1802 106.114 20.2927 108.579L22.1156 107.756ZM22.2947 101.71C23.3311 99.4378 24.7848 97.8702 26.6375 96.9277L25.7307 95.1451C23.4156 96.3227 21.6698 98.2608 20.4751 100.88L22.2947 101.71ZM26.6426 96.925C30.0628 95.1603 33.9879 95.2173 38.5369 97.2924L39.367 95.4728C34.4055 93.2095 29.8187 93.0357 25.7256 95.1477L26.6426 96.925ZM38.5369 97.2924C40.9333 98.3856 42.6779 99.7485 43.8361 101.351L45.4571 100.18C44.0494 98.2317 41.9976 96.6728 39.367 95.4728L38.5369 97.2924ZM43.845 101.363C44.9682 102.869 45.118 104.204 44.5224 105.51L46.342 106.34C47.2958 104.249 46.9219 102.144 45.4483 100.168L43.845 101.363ZM44.5224 105.51C44.0513 106.542 43.3921 107.205 42.5564 107.582L43.3792 109.405C44.7137 108.803 45.6975 107.753 46.342 106.34L44.5224 105.51ZM42.5345 107.592C41.7582 107.965 41.0001 107.974 40.1756 107.598L39.3456 109.418C40.6949 110.033 42.0749 110.032 43.401 109.395L42.5345 107.592ZM40.1756 107.598C39.7905 107.422 39.4303 107.166 39.0948 106.814L37.6483 108.195C38.1459 108.717 38.7117 109.128 39.3456 109.418L40.1756 107.598ZM39.1114 106.832C38.9972 106.706 38.983 106.644 38.9839 106.648C38.9847 106.651 38.9863 106.662 38.9848 106.675C38.9835 106.688 38.9808 106.69 38.9864 106.677L37.1668 105.847C36.9868 106.242 36.9346 106.674 37.038 107.11C37.1371 107.527 37.3634 107.883 37.6317 108.178L39.1114 106.832Z" fill="#EA7AFC"/>
<path d="M40.7914 140.746C42.3758 136.978 43.8184 132.351 45.1193 126.866C46.4202 121.381 47.101 117.782 47.1618 116.07C47.2738 115.598 47.8747 115.491 48.9645 115.749C50.6354 116.145 51.5926 117.044 51.836 118.445C51.8464 118.562 51.9243 118.638 52.0696 118.673C52.2149 118.707 52.3325 118.697 52.4224 118.641C53.8242 117.746 55.7057 117.578 58.0668 118.138C60.428 118.698 62.1566 119.741 63.2527 121.267C64.3488 122.793 64.6254 124.701 64.0826 126.989C63.7553 128.37 63.1629 130.301 62.3055 132.784C61.4845 135.275 60.9275 137.138 60.6346 138.373C59.9368 141.315 59.9232 143.557 60.5938 145.097C60.696 145.313 60.7256 145.512 60.6825 145.694C60.5705 146.166 60.006 146.281 58.9889 146.04C54.4845 144.972 52.7061 142.44 53.6538 138.444C54.0157 136.918 54.8647 134.875 56.2011 132.314C57.5374 129.754 58.3736 127.765 58.7096 126.348C59.3988 123.442 58.5447 121.705 56.1472 121.136C54.9848 120.86 54.0129 120.994 53.2317 121.538C52.4868 122.09 51.9703 122.812 51.6823 123.703C51.4029 124.558 50.9703 126.22 50.3844 128.69C49.4884 132.468 48.8359 135.786 48.4268 138.643L48.2514 139.868C48.0102 140.885 47.153 141.506 45.6797 141.732C44.2341 142.004 43.0209 142.023 42.0401 141.79C41.0957 141.566 40.6794 141.218 40.7914 140.746Z" fill="white"/>
<path d="M40.7914 140.746L39.8696 140.358L39.8375 140.434L39.8184 140.515L40.7914 140.746ZM47.1618 116.07L46.1888 115.839L46.1659 115.935L46.1624 116.034L47.1618 116.07ZM51.836 118.445L52.832 118.356L52.8283 118.314L52.8212 118.273L51.836 118.445ZM52.4224 118.641L52.9472 119.492L52.954 119.488L52.9607 119.484L52.4224 118.641ZM63.2527 121.267L62.4405 121.851L62.4405 121.851L63.2527 121.267ZM62.3055 132.784L61.3603 132.457L61.358 132.464L61.3558 132.471L62.3055 132.784ZM60.5938 145.097L59.6769 145.496L59.6832 145.51L59.6899 145.525L60.5938 145.097ZM56.2011 132.314L57.0876 132.777L57.0876 132.777L56.2011 132.314ZM53.2317 121.538L52.6605 120.717L52.6482 120.726L52.6361 120.735L53.2317 121.538ZM51.6823 123.703L52.6328 124.014L52.6338 124.011L51.6823 123.703ZM48.4268 138.643L49.4167 138.785L49.4167 138.785L48.4268 138.643ZM48.2514 139.868L49.2245 140.098L49.2349 140.054L49.2413 140.009L48.2514 139.868ZM45.6797 141.732L45.528 140.744L45.5116 140.747L45.4954 140.75L45.6797 141.732ZM41.7133 141.133C43.3252 137.3 44.7831 132.617 46.0923 127.097L44.1463 126.635C42.8537 132.085 41.4263 136.656 39.8696 140.358L41.7133 141.133ZM46.0923 127.097C47.3877 121.635 48.0962 117.935 48.1612 116.105L46.1624 116.034C46.1058 117.629 45.4527 121.127 44.1463 126.635L46.0923 127.097ZM48.1348 116.301C48.115 116.384 48.0602 116.485 47.968 116.56C47.8892 116.624 47.8354 116.626 47.8716 116.62C47.9081 116.614 47.9948 116.606 48.1495 116.62C48.3009 116.633 48.494 116.665 48.7337 116.722L49.1952 114.776C48.6099 114.637 48.0261 114.561 47.5213 114.651C47.2571 114.698 46.964 114.799 46.7069 115.008C46.4365 115.228 46.2646 115.519 46.1888 115.839L48.1348 116.301ZM48.7337 116.722C49.4502 116.892 49.9333 117.151 50.2512 117.449C50.5583 117.738 50.7629 118.11 50.8507 118.616L52.8212 118.273C52.6657 117.378 52.27 116.601 51.62 115.991C50.9807 115.391 50.1497 115.003 49.1952 114.776L48.7337 116.722ZM50.8399 118.533C50.8644 118.808 50.979 119.086 51.2037 119.305C51.412 119.509 51.6529 119.602 51.8389 119.646L52.3004 117.7C52.3411 117.709 52.4704 117.747 52.6007 117.874C52.7476 118.017 52.818 118.199 52.832 118.356L50.8399 118.533ZM51.8389 119.646C52.1341 119.716 52.552 119.736 52.9472 119.492L51.8976 117.79C52.113 117.657 52.2957 117.699 52.3004 117.7L51.8389 119.646ZM52.9607 119.484C54.0471 118.79 55.6169 118.585 57.8361 119.111L58.2976 117.165C55.7944 116.571 53.6013 116.702 51.8841 117.798L52.9607 119.484ZM57.8361 119.111C60.0327 119.632 61.5219 120.572 62.4405 121.851L64.0649 120.684C62.7914 118.911 60.8233 117.764 58.2976 117.165L57.8361 119.111ZM62.4405 121.851C63.3265 123.084 63.6037 124.675 63.1096 126.759L65.0556 127.22C65.6471 124.726 65.3711 122.503 64.0649 120.684L62.4405 121.851ZM63.1096 126.759C62.7938 128.09 62.2143 129.985 61.3603 132.457L63.2508 133.11C64.1115 130.618 64.7167 128.649 65.0556 127.22L63.1096 126.759ZM61.3558 132.471C60.5331 134.967 59.9649 136.863 59.6616 138.142L61.6076 138.604C61.8902 137.412 62.4359 135.583 63.2553 133.097L61.3558 132.471ZM59.6616 138.142C58.949 141.147 58.8743 143.653 59.6769 145.496L61.5107 144.698C60.972 143.461 60.9246 141.484 61.6076 138.604L59.6616 138.142ZM59.6899 145.525C59.7066 145.56 59.7056 145.569 59.7035 145.555C59.7024 145.548 59.7012 145.535 59.7018 145.519C59.7024 145.502 59.7048 145.483 59.7095 145.463L61.6555 145.924C61.7642 145.466 61.6694 145.032 61.4978 144.669L59.6899 145.525ZM59.7095 145.463C59.7256 145.395 59.7712 145.301 59.8579 145.226C59.9352 145.159 59.9943 145.151 59.9747 145.155C59.9527 145.159 59.8827 145.168 59.7461 145.157C59.6125 145.147 59.4387 145.119 59.2196 145.067L58.7581 147.013C59.3112 147.144 59.8778 147.216 60.3755 147.114C60.6382 147.06 60.923 146.95 61.1695 146.736C61.4253 146.514 61.5835 146.228 61.6555 145.924L59.7095 145.463ZM59.2196 145.067C57.0906 144.562 55.7882 143.752 55.0951 142.765C54.4196 141.803 54.1962 140.49 54.6268 138.675L52.6808 138.213C52.1637 140.393 52.3556 142.344 53.4585 143.915C54.5438 145.46 56.3827 146.45 58.7581 147.013L59.2196 145.067ZM54.6268 138.675C54.9598 137.271 55.7632 135.315 57.0876 132.777L55.3145 131.852C53.9662 134.435 53.0715 136.566 52.6808 138.213L54.6268 138.675ZM57.0876 132.777C58.4325 130.2 59.3169 128.121 59.6826 126.579L57.7366 126.117C57.4303 127.409 56.6423 129.307 55.3145 131.852L57.0876 132.777ZM59.6826 126.579C60.0531 125.017 60.0556 123.588 59.4833 122.424C58.89 121.218 57.7813 120.496 56.378 120.163L55.9164 122.109C56.9106 122.345 57.4277 122.776 57.6885 123.307C57.9704 123.88 58.0553 124.774 57.7366 126.117L59.6826 126.579ZM56.378 120.163C55.0146 119.84 53.7323 119.971 52.6605 120.717L53.803 122.359C54.2935 122.017 54.955 121.881 55.9164 122.109L56.378 120.163ZM52.6361 120.735C51.7221 121.413 51.0823 122.308 50.7308 123.395L52.6338 124.011C52.8584 123.316 53.2515 122.768 53.8273 122.341L52.6361 120.735ZM50.7318 123.392C50.4375 124.292 49.9961 125.994 49.4114 128.459L51.3574 128.921C51.9444 126.446 52.3683 124.823 52.6328 124.014L50.7318 123.392ZM49.4114 128.459C48.5106 132.257 47.8514 135.606 47.4369 138.501L49.4167 138.785C49.8203 135.965 50.4662 132.679 51.3574 128.921L49.4114 128.459ZM47.4369 138.501L47.2615 139.726L49.2413 140.009L49.4167 138.785L47.4369 138.501ZM47.2784 139.637C47.1709 140.09 46.8017 140.549 45.528 140.744L45.8314 142.721C47.5042 142.464 48.8495 141.679 49.2245 140.098L47.2784 139.637ZM45.4954 140.75C44.1293 141.006 43.068 141.006 42.2709 140.817L41.8094 142.763C42.9739 143.039 44.3389 143.001 45.864 142.715L45.4954 140.75ZM42.2709 140.817C42.0727 140.77 41.9248 140.722 41.8184 140.677C41.7095 140.631 41.6668 140.599 41.6612 140.594C41.6588 140.592 41.7087 140.633 41.7441 140.729C41.7821 140.831 41.7768 140.924 41.7644 140.977L39.8184 140.515C39.75 140.803 39.7548 141.117 39.8689 141.424C39.9803 141.725 40.1723 141.956 40.3781 142.128C40.7654 142.452 41.2874 142.639 41.8094 142.763L42.2709 140.817Z" fill="#EA7AFC"/>
<path d="M88.3992 130.463L87.8816 137.613C87.6005 142.57 87.9719 145.583 88.9957 146.65C89.1364 146.808 89.2014 146.98 89.1908 147.166C89.1591 147.725 87.9319 147.936 85.5091 147.799C83.1236 147.664 81.8965 146.884 81.8277 145.459C81.8095 145.121 81.8299 144.431 81.8891 143.387L82.62 134.454C82.6348 134.193 82.4931 134.054 82.1949 134.037C80.4058 133.936 78.6999 134.344 77.0774 135.261C75.4548 136.179 74.5992 137.421 74.5104 138.986C74.4639 139.806 74.6484 140.508 75.064 141.093C75.4796 141.677 76.0042 141.987 76.6379 142.023C77.3088 142.061 77.8566 141.962 78.2814 141.724C78.7435 141.488 79.0129 141.354 79.0896 141.321C79.719 141.432 79.9978 142.12 79.9259 143.388C79.8561 144.618 79.2213 145.591 78.0215 146.309C76.8237 146.989 75.5912 147.293 74.3239 147.221C73.0566 147.149 71.9697 146.863 71.0633 146.363C70.1941 145.865 69.5703 145.325 69.192 144.742C68.8137 144.16 68.5142 143.507 68.2934 142.784C68.0811 141.912 67.9929 141.159 68.0288 140.526C68.1768 137.916 69.1152 135.876 70.844 134.403C72.5728 132.931 74.7421 131.932 77.352 131.407C80.782 130.928 82.5873 130.414 82.7681 129.863C82.9032 129.459 82.9982 128.773 83.0532 127.804C83.1652 125.828 82.2148 124.783 80.202 124.669C79.3448 124.621 78.5648 124.857 77.8622 125.378C77.1617 125.862 76.7882 126.514 76.7417 127.334L77.001 128.695C76.8906 129.324 76.1985 129.659 74.9249 129.699L74.3067 129.72C73.1885 129.656 72.3098 129.326 71.6705 128.729C71.0686 128.134 70.794 127.37 70.8469 126.439C70.8807 125.842 71.1041 125.2 71.5169 124.513C71.9692 123.791 72.5062 123.223 73.128 122.81C73.7497 122.396 74.6851 122.057 75.9341 121.791C77.2226 121.49 78.4445 121.373 79.6 121.438C80.7555 121.504 81.6479 121.592 82.2774 121.702C82.9068 121.813 83.7535 122.048 84.8175 122.407C85.9209 122.731 86.8045 123.305 87.4684 124.128C88.1694 124.953 88.5133 125.814 88.4998 126.71C88.5257 127.572 88.4922 128.823 88.3992 130.463Z" fill="white"/>
<path d="M88.3992 130.463L89.3966 130.535L89.3972 130.527L89.3976 130.519L88.3992 130.463ZM87.8816 137.613L86.8842 137.541L86.8836 137.548L86.8832 137.556L87.8816 137.613ZM88.9957 146.65L89.7417 145.985L89.7298 145.971L89.7175 145.958L88.9957 146.65ZM81.8277 145.459L82.8266 145.411L82.8262 145.405L81.8277 145.459ZM81.8891 143.387L80.8924 143.305L80.8914 143.318L80.8907 143.33L81.8891 143.387ZM82.62 134.454L83.6167 134.535L83.6177 134.523L83.6184 134.511L82.62 134.454ZM77.0774 135.261L77.5697 136.132L77.5697 136.132L77.0774 135.261ZM75.064 141.093L75.879 140.513L75.879 140.513L75.064 141.093ZM78.2814 141.724L77.8273 140.833L77.8101 140.842L77.7932 140.851L78.2814 141.724ZM79.0896 141.321L79.2624 140.336L78.9681 140.284L78.6937 140.403L79.0896 141.321ZM78.0215 146.309L78.5152 147.178L78.5249 147.173L78.5346 147.167L78.0215 146.309ZM71.0633 146.363L70.5661 147.23L70.5731 147.234L70.5802 147.238L71.0633 146.363ZM69.192 144.742L70.0306 144.197L70.0306 144.197L69.192 144.742ZM68.2934 142.784L67.3218 143.021L67.3286 143.049L67.337 143.076L68.2934 142.784ZM70.844 134.403L70.1956 133.642L70.1956 133.642L70.844 134.403ZM77.352 131.407L77.2139 130.416L77.1842 130.421L77.1548 130.426L77.352 131.407ZM82.7681 129.863L81.8198 129.546L81.818 129.551L82.7681 129.863ZM77.8622 125.378L78.4304 126.201L78.4443 126.191L78.4578 126.181L77.8622 125.378ZM76.7417 127.334L75.7433 127.277L75.7363 127.4L75.7593 127.521L76.7417 127.334ZM77.001 128.695L77.986 128.867L78.0176 128.687L77.9833 128.507L77.001 128.695ZM74.9249 129.699L74.8935 128.699L74.8908 128.699L74.9249 129.699ZM74.3067 129.72L74.2501 130.718L74.2953 130.721L74.3407 130.719L74.3067 129.72ZM71.6705 128.729L70.9675 129.44L70.9776 129.45L70.9879 129.46L71.6705 128.729ZM71.5169 124.513L70.6694 123.983L70.6645 123.99L70.6598 123.998L71.5169 124.513ZM73.128 122.81L72.5742 121.977L72.5742 121.977L73.128 122.81ZM75.9341 121.791L76.1422 122.769L76.1519 122.767L76.1615 122.765L75.9341 121.791ZM82.2774 121.702L82.1045 122.687L82.1045 122.687L82.2774 121.702ZM84.8175 122.407L84.4974 123.354L84.5164 123.361L84.5355 123.366L84.8175 122.407ZM87.4684 124.128L86.69 124.756L86.6981 124.766L86.7063 124.775L87.4684 124.128ZM88.4998 126.71L87.4999 126.695L87.4996 126.718L87.5003 126.74L88.4998 126.71ZM87.4018 130.391L86.8842 137.541L88.879 137.685L89.3966 130.535L87.4018 130.391ZM86.8832 137.556C86.7411 140.062 86.7607 142.122 86.9568 143.713C87.146 145.247 87.521 146.557 88.274 147.343L89.7175 145.958C89.4466 145.676 89.124 144.946 88.9418 143.468C88.7665 142.046 88.741 140.121 88.88 137.67L86.8832 137.556ZM88.2497 147.316C88.2503 147.317 88.2315 147.296 88.2146 147.251C88.1969 147.204 88.1899 147.154 88.1924 147.11L90.1892 147.223C90.2168 146.736 90.0337 146.312 89.7417 145.985L88.2497 147.316ZM88.1924 147.11C88.2088 146.822 88.3968 146.682 88.4211 146.667C88.4213 146.667 88.3332 146.714 88.0773 146.758C87.5789 146.844 86.7585 146.868 85.5657 146.801L85.4525 148.797C86.6825 148.867 87.6871 148.855 88.416 148.729C88.7737 148.668 89.1498 148.566 89.4646 148.373C89.8037 148.166 90.157 147.791 90.1892 147.223L88.1924 147.11ZM85.5657 146.801C84.4459 146.737 83.7409 146.526 83.3361 146.268C82.9905 146.049 82.8449 145.791 82.8265 145.411L80.8289 145.507C80.8793 146.551 81.3817 147.396 82.2632 147.956C83.0855 148.479 84.1868 148.726 85.4525 148.797L85.5657 146.801ZM82.8262 145.405C82.8115 145.132 82.8277 144.498 82.8875 143.444L80.8907 143.33C80.8321 144.363 80.8074 145.11 80.8292 145.513L82.8262 145.405ZM82.8858 143.468L83.6167 134.535L81.6233 134.372L80.8924 143.305L82.8858 143.468ZM83.6184 134.511C83.6366 134.189 83.562 133.77 83.2249 133.44C82.9119 133.133 82.5242 133.054 82.2515 133.039L82.1383 135.036C82.1638 135.037 81.996 135.036 81.8248 134.868C81.6293 134.677 81.6182 134.458 81.6216 134.397L83.6184 134.511ZM82.2515 133.039C80.263 132.926 78.3675 133.383 76.5851 134.391L77.5697 136.132C79.0324 135.305 80.5486 134.945 82.1383 135.036L82.2515 133.039ZM76.5851 134.391C74.7313 135.439 73.6239 136.956 73.512 138.929L75.5088 139.043C75.5744 137.885 76.1784 136.919 77.5697 136.132L76.5851 134.391ZM73.512 138.929C73.4546 139.942 73.6831 140.876 74.249 141.672L75.879 140.513C75.6138 140.14 75.4732 139.671 75.5088 139.043L73.512 138.929ZM74.249 141.672C74.8148 142.468 75.6023 142.966 76.5812 143.022L76.6945 141.025C76.4061 141.009 76.1444 140.887 75.879 140.513L74.249 141.672ZM76.5812 143.022C77.3724 143.067 78.1271 142.956 78.7697 142.597L77.7932 140.851C77.5862 140.967 77.2451 141.056 76.6945 141.025L76.5812 143.022ZM78.7356 142.615C78.9656 142.498 79.1454 142.407 79.2762 142.342C79.3417 142.309 79.3931 142.284 79.4313 142.265C79.4738 142.245 79.488 142.238 79.4854 142.239L78.6937 140.403C78.5791 140.452 78.2708 140.607 77.8273 140.833L78.7356 142.615ZM78.9167 142.306C78.9036 142.304 78.8675 142.292 78.8352 142.263C78.8083 142.239 78.8193 142.235 78.8437 142.296C78.9017 142.439 78.9602 142.755 78.9275 143.331L80.9243 143.444C80.9635 142.754 80.9185 142.091 80.6977 141.545C80.4537 140.943 79.9772 140.462 79.2624 140.336L78.9167 142.306ZM78.9275 143.331C78.8793 144.181 78.4682 144.877 77.5084 145.45L78.5346 147.167C79.9745 146.306 80.833 145.054 80.9243 143.444L78.9275 143.331ZM77.5278 145.439C76.4825 146.032 75.4395 146.282 74.3805 146.222L74.2673 148.219C75.7429 148.303 77.165 147.945 78.5152 147.178L77.5278 145.439ZM74.3805 146.222C73.2296 146.157 72.2954 145.9 71.5463 145.487L70.5802 147.238C71.6441 147.825 72.8836 148.141 74.2673 148.219L74.3805 146.222ZM71.5604 145.495C70.7722 145.044 70.2926 144.601 70.0306 144.197L68.3534 145.287C68.848 146.048 69.6159 146.686 70.5661 147.23L71.5604 145.495ZM70.0306 144.197C69.7075 143.7 69.4457 143.134 69.2498 142.492L67.337 143.076C67.5826 143.881 67.9199 144.62 68.3534 145.287L70.0306 144.197ZM69.265 142.548C69.0672 141.735 68.9987 141.086 69.0272 140.582L67.0305 140.469C66.9872 141.233 67.095 142.089 67.3218 143.021L69.265 142.548ZM69.0272 140.582C69.1623 138.201 70.0036 136.433 71.4924 135.164L70.1956 133.642C68.2268 135.319 67.1913 137.632 67.0305 140.469L69.0272 140.582ZM71.4924 135.164C73.0712 133.82 75.0771 132.885 77.5493 132.387L77.1548 130.426C74.4072 130.979 72.0744 132.042 70.1956 133.642L71.4924 135.164ZM77.4902 132.397C79.2197 132.156 80.5827 131.9 81.5526 131.624C82.0338 131.486 82.4614 131.332 82.8006 131.15C83.0884 130.996 83.545 130.703 83.7182 130.175L81.818 129.551C81.9009 129.299 82.064 129.276 81.8553 129.388C81.6979 129.472 81.4259 129.58 81.0044 129.7C80.1689 129.938 78.9143 130.179 77.2139 130.416L77.4902 132.397ZM83.7165 130.18C83.8977 129.639 83.9963 128.834 84.0516 127.86L82.0548 127.747C82.0001 128.711 81.9087 129.28 81.8198 129.546L83.7165 130.18ZM84.0516 127.86C84.1166 126.714 83.8823 125.655 83.1641 124.866C82.4492 124.08 81.4143 123.737 80.2587 123.671L80.1454 125.668C81.0026 125.716 81.4492 125.953 81.6847 126.211C81.9168 126.467 82.1018 126.918 82.0548 127.747L84.0516 127.86ZM80.2587 123.671C79.1631 123.609 78.1532 123.917 77.2665 124.575L78.4578 126.181C78.9764 125.797 79.5264 125.633 80.1454 125.668L80.2587 123.671ZM77.2939 124.555C76.3503 125.207 75.808 126.136 75.7433 127.277L77.7401 127.39C77.7684 126.891 77.973 126.517 78.4304 126.201L77.2939 124.555ZM75.7593 127.521L76.0187 128.882L77.9833 128.507L77.724 127.147L75.7593 127.521ZM76.0161 128.522C76.018 128.511 76.0271 128.488 76.0406 128.472C76.0496 128.461 76.0367 128.482 75.9638 128.517C75.8005 128.596 75.4706 128.681 74.8935 128.699L74.9562 130.698C75.6527 130.676 76.3057 130.574 76.8345 130.318C77.4035 130.043 77.8635 129.565 77.986 128.867L76.0161 128.522ZM74.8908 128.699L74.2727 128.72L74.3407 130.719L74.9589 130.698L74.8908 128.699ZM74.3633 128.721C73.4118 128.667 72.7782 128.395 72.3532 127.998L70.9879 129.46C71.8413 130.257 72.9651 130.645 74.2501 130.718L74.3633 128.721ZM72.3736 128.018C71.998 127.646 71.8068 127.174 71.8453 126.495L69.8485 126.382C69.7813 127.567 70.1392 128.621 70.9675 129.44L72.3736 128.018ZM71.8453 126.495C71.8673 126.107 72.0174 125.622 72.3741 125.029L70.6598 123.998C70.1907 124.779 69.8941 125.578 69.8485 126.382L71.8453 126.495ZM72.3645 125.044C72.752 124.425 73.1938 123.967 73.6817 123.643L72.5742 121.977C71.8186 122.48 71.1864 123.157 70.6694 123.983L72.3645 125.044ZM73.6817 123.643C74.1494 123.332 74.9415 123.025 76.1422 122.769L75.7261 120.813C74.4287 121.089 73.3501 121.461 72.5742 121.977L73.6817 123.643ZM76.1615 122.765C77.37 122.483 78.4958 122.377 79.5434 122.436L79.6566 120.44C78.3933 120.368 77.0751 120.498 75.7067 120.817L76.1615 122.765ZM79.5434 122.436C80.6857 122.501 81.5326 122.587 82.1045 122.687L82.4502 120.717C81.7633 120.597 80.8253 120.506 79.6566 120.44L79.5434 122.436ZM82.1045 122.687C82.6602 122.785 83.4513 123.001 84.4974 123.354L85.1376 121.46C84.0557 121.094 83.1534 120.841 82.4502 120.717L82.1045 122.687ZM84.5355 123.366C85.4616 123.639 86.1653 124.105 86.69 124.756L88.2467 123.5C87.4438 122.505 86.3803 121.824 85.0995 121.448L84.5355 123.366ZM86.7063 124.775C87.2845 125.456 87.509 126.089 87.4999 126.695L89.4997 126.725C89.5175 125.538 89.0544 124.45 88.2304 123.48L86.7063 124.775ZM87.5003 126.74C87.5249 127.558 87.4934 128.774 87.4008 130.406L89.3976 130.519C89.4911 128.871 89.5266 127.586 89.4994 126.68L87.5003 126.74Z" fill="#EA7AFC"/>
<path d="M114.681 138.457C114.928 140.57 114.282 142.432 112.741 144.04C111.233 145.607 109.31 146.527 106.974 146.801C103.563 147.2 100.941 146.473 99.1078 144.62C97.2704 142.73 96.1458 140.023 95.7337 136.501C95.2957 132.756 95.7419 129.339 97.0722 126.252C97.7145 124.673 98.7459 123.369 100.166 122.338C101.587 121.307 103.317 120.673 105.356 120.434C108.434 120.074 110.725 120.859 112.228 122.788C112.847 123.58 113.224 124.551 113.358 125.7C113.567 127.48 112.981 128.902 111.602 129.965C111.048 130.368 110.511 130.6 109.992 130.661C109.51 130.717 109.1 130.746 108.762 130.748C108.456 130.709 108.018 130.497 107.447 130.113C106.876 129.729 106.545 129.147 106.454 128.368C106.443 127.956 106.719 127.586 107.282 127.257C107.799 126.858 108.008 126.232 107.908 125.379C107.739 123.933 106.765 123.314 104.985 123.522C104.54 123.574 104.026 123.841 103.443 124.323C102.893 124.763 102.451 125.322 102.117 126C101.779 126.641 101.502 127.651 101.287 129.029C101.105 130.366 101.086 131.646 101.229 132.87C101.368 134.056 101.511 134.961 101.659 135.582C101.84 136.163 102.141 136.973 102.564 138.014C103.019 139.013 103.712 139.796 104.643 140.364C105.611 140.927 106.744 141.133 108.042 140.981C109.599 140.799 110.895 139.99 111.93 138.553C112.351 137.978 112.667 137.302 112.877 136.525C112.99 136.211 113.158 136.041 113.381 136.015C113.715 135.976 113.992 136.263 114.215 136.876C114.469 137.448 114.625 137.975 114.681 138.457Z" fill="white"/>
<path d="M112.741 144.04L113.461 144.734L113.463 144.732L112.741 144.04ZM99.1078 144.62L98.3907 145.317L98.3969 145.323L99.1078 144.62ZM97.0722 126.252L97.9906 126.648L97.9946 126.638L97.9985 126.629L97.0722 126.252ZM100.166 122.338L99.5792 121.529L99.5792 121.529L100.166 122.338ZM112.228 122.788L111.44 123.403L111.44 123.403L112.228 122.788ZM111.602 129.965L112.19 130.774L112.201 130.766L112.213 130.757L111.602 129.965ZM108.762 130.748L108.634 131.74L108.7 131.749L108.767 131.748L108.762 130.748ZM107.447 130.113L108.005 129.283L108.005 129.283L107.447 130.113ZM106.454 128.368L105.454 128.394L105.455 128.44L105.46 128.485L106.454 128.368ZM107.282 127.257L107.787 128.12L107.842 128.088L107.893 128.049L107.282 127.257ZM103.443 124.323L104.068 125.103L104.074 125.099L104.08 125.094L103.443 124.323ZM102.117 126L103.001 126.467L103.008 126.455L103.014 126.442L102.117 126ZM101.287 129.029L100.299 128.875L100.298 128.885L100.296 128.894L101.287 129.029ZM101.659 135.582L100.686 135.814L100.694 135.847L100.704 135.879L101.659 135.582ZM102.564 138.014L101.637 138.39L101.645 138.409L101.654 138.428L102.564 138.014ZM104.643 140.364L104.122 141.218L104.131 141.223L104.14 141.228L104.643 140.364ZM111.93 138.553L111.123 137.962L111.118 137.969L111.93 138.553ZM112.877 136.525L111.936 136.185L111.922 136.224L111.911 136.264L112.877 136.525ZM114.215 136.876L113.274 137.217L113.287 137.251L113.301 137.284L114.215 136.876ZM113.688 138.573C113.899 140.375 113.364 141.944 112.019 143.348L113.463 144.732C115.199 142.92 115.958 140.766 115.675 138.341L113.688 138.573ZM112.02 143.347C110.686 144.733 108.984 145.559 106.858 145.807L107.091 147.794C109.637 147.496 111.779 146.482 113.461 144.734L112.02 143.347ZM106.858 145.807C103.647 146.183 101.37 145.485 99.8187 143.917L98.3969 145.323C100.511 147.46 103.479 148.216 107.091 147.794L106.858 145.807ZM99.8248 143.923C98.1864 142.237 97.1222 139.764 96.727 136.385L94.7405 136.617C95.1693 140.283 96.3545 143.222 98.3908 145.317L99.8248 143.923ZM96.727 136.385C96.3068 132.792 96.7378 129.555 97.9906 126.648L96.1538 125.856C94.7459 129.124 94.2846 132.719 94.7405 136.617L96.727 136.385ZM97.9985 126.629C98.5682 125.229 99.4796 124.072 100.754 123.147L99.5792 121.529C98.0122 122.665 96.8608 124.118 96.1459 125.875L97.9985 126.629ZM100.754 123.147C102.014 122.233 103.574 121.649 105.473 121.427L105.24 119.441C103.06 119.696 101.16 120.381 99.5792 121.529L100.754 123.147ZM105.473 121.427C108.31 121.096 110.209 121.824 111.44 123.403L113.017 122.173C111.24 119.893 108.559 119.053 105.24 119.441L105.473 121.427ZM111.44 123.403C111.93 124.03 112.249 124.821 112.365 125.816L114.352 125.584C114.199 124.28 113.764 123.13 113.016 122.172L111.44 123.403ZM112.365 125.816C112.534 127.26 112.083 128.332 110.991 129.173L112.213 130.757C113.88 129.472 114.599 127.7 114.352 125.584L112.365 125.816ZM111.014 129.156C110.556 129.489 110.179 129.632 109.876 129.668L110.108 131.654C110.843 131.568 111.539 131.247 112.19 130.774L111.014 129.156ZM109.876 129.668C109.416 129.721 109.045 129.747 108.756 129.748L108.767 131.748C109.154 131.746 109.604 131.713 110.108 131.654L109.876 129.668ZM108.89 129.757C108.894 129.757 108.875 129.755 108.828 129.739C108.782 129.724 108.72 129.699 108.639 129.66C108.476 129.581 108.266 129.459 108.005 129.283L106.889 130.943C107.467 131.332 108.075 131.668 108.634 131.74L108.89 129.757ZM108.005 129.283C107.711 129.085 107.509 128.786 107.447 128.252L105.46 128.485C105.58 129.508 106.04 130.372 106.889 130.943L108.005 129.283ZM107.453 128.343C107.454 128.358 107.451 128.375 107.446 128.388C107.442 128.4 107.441 128.397 107.455 128.379C107.487 128.336 107.577 128.243 107.787 128.12L106.778 126.393C106.096 126.792 105.429 127.436 105.454 128.394L107.453 128.343ZM107.893 128.049C108.775 127.368 109.027 126.34 108.901 125.263L106.915 125.495C106.988 126.124 106.824 126.347 106.671 126.465L107.893 128.049ZM108.901 125.263C108.792 124.326 108.393 123.498 107.587 122.986C106.824 122.502 105.867 122.412 104.868 122.529L105.101 124.515C105.882 124.424 106.302 124.54 106.514 124.674C106.683 124.782 106.855 124.986 106.915 125.495L108.901 125.263ZM104.868 122.529C104.141 122.614 103.446 123.023 102.806 123.552L104.08 125.094C104.605 124.659 104.938 124.535 105.101 124.515L104.868 122.529ZM102.818 123.542C102.146 124.08 101.614 124.758 101.22 125.558L103.014 126.442C103.288 125.886 103.641 125.445 104.068 125.103L102.818 123.542ZM101.233 125.533C100.815 126.325 100.518 127.469 100.299 128.875L102.275 129.183C102.486 127.832 102.743 126.957 103.001 126.467L101.233 125.533ZM100.296 128.894C100.104 130.306 100.082 131.671 100.236 132.986L102.222 132.754C102.09 131.621 102.107 130.425 102.278 129.164L100.296 128.894ZM100.236 132.986C100.376 134.184 100.525 135.134 100.686 135.814L102.632 135.351C102.498 134.787 102.36 133.929 102.222 132.754L100.236 132.986ZM100.704 135.879C100.897 136.5 101.211 137.341 101.637 138.39L103.49 137.637C103.071 136.605 102.782 135.825 102.614 135.285L100.704 135.879ZM101.654 138.428C102.191 139.608 103.019 140.545 104.122 141.218L105.164 139.51C104.405 139.047 103.847 138.418 103.474 137.599L101.654 138.428ZM104.14 141.228C105.325 141.918 106.682 142.147 108.158 141.975L107.925 139.988C106.805 140.119 105.897 139.937 105.146 139.5L104.14 141.228ZM108.158 141.975C110.031 141.755 111.566 140.77 112.741 139.138L111.118 137.969C110.224 139.21 109.166 139.843 107.925 139.988L108.158 141.975ZM112.737 139.144C113.239 138.457 113.604 137.666 113.842 136.786L111.911 136.264C111.729 136.937 111.463 137.498 111.123 137.962L112.737 139.144ZM113.817 136.866C113.843 136.794 113.849 136.815 113.799 136.865C113.772 136.893 113.73 136.927 113.673 136.956C113.615 136.985 113.554 137.002 113.497 137.009L113.265 135.022C112.496 135.112 112.108 135.711 111.936 136.185L113.817 136.866ZM113.497 137.009C113.417 137.018 113.327 137.007 113.245 136.974C113.168 136.943 113.129 136.905 113.121 136.897C113.115 136.891 113.132 136.907 113.163 136.963C113.194 137.019 113.232 137.101 113.274 137.217L115.155 136.536C115.022 136.17 114.838 135.795 114.558 135.506C114.248 135.186 113.801 134.959 113.265 135.022L113.497 137.009ZM113.301 137.284C113.526 137.788 113.646 138.216 113.688 138.573L115.675 138.341C115.604 137.734 115.413 137.108 115.128 136.469L113.301 137.284Z" fill="#EA7AFC"/>
<path d="M130.859 122.229C130.758 122.414 130.735 122.597 130.788 122.776C130.831 122.919 131.195 122.966 131.882 122.917C132.604 122.858 133.455 123.033 134.434 123.442C135.413 123.852 136.211 124.374 136.829 125.008C138.017 126.251 138.812 127.417 139.214 128.504L139.476 129.186C140.902 133.319 142.523 135.952 144.341 137.086C144.595 137.283 144.738 137.435 144.77 137.543C144.887 137.936 144.445 138.282 143.443 138.581C140.437 139.476 138.337 139.42 137.141 138.413C136.562 138.04 135.884 136.547 135.106 133.935L134.706 132.594C133.715 129.266 132.616 127.081 131.409 126.038C130.799 125.558 130.171 125.413 129.527 125.605C128.919 125.786 128.44 126.533 128.091 127.844C127.731 129.12 127.663 130.134 127.886 130.885C128.782 133.891 129.477 135.963 129.972 137.101C130.466 138.239 130.719 138.826 130.73 138.862C131.039 139.899 130.563 140.917 129.303 141.916C128.078 142.904 126.839 143.585 125.587 143.958C125.122 144.097 124.804 143.88 124.633 143.307L124.569 143.092C124.117 138.436 122.479 131.367 119.654 121.885C118.727 118.772 117.872 116.164 117.09 114.059L116.663 113.018C116.293 112.038 115.822 111.243 115.251 110.634C114.716 110.014 114.255 109.645 113.869 109.526L113.36 109.386C113.067 109.317 112.894 109.193 112.841 109.015C112.67 108.442 113.337 107.542 114.841 106.315C116.345 105.088 117.724 104.288 118.976 103.915C119.559 103.78 119.927 103.904 120.08 104.287C120.685 105.665 121.654 108.59 122.986 113.063C124.308 117.499 125.256 121.073 125.83 123.785C125.958 124.214 126.093 124.408 126.236 124.365C126.379 124.322 126.536 124.062 126.705 123.583C126.899 123.058 127.238 122.236 127.723 121.118C128.244 119.989 128.972 118.642 129.909 117.077C130.881 115.502 131.76 114.598 132.548 114.363C133.371 114.118 134.234 114.075 135.139 114.234C136.043 114.393 136.548 114.652 136.655 115.009L136.177 115.561C134.361 116.92 132.588 119.142 130.859 122.229Z" fill="white"/>
<path d="M130.859 122.229L129.986 121.74L129.983 121.746L129.979 121.753L130.859 122.229ZM131.882 122.917L131.953 123.915L131.964 123.914L131.882 122.917ZM134.434 123.442L134.82 122.52L134.82 122.52L134.434 123.442ZM136.829 125.008L137.552 124.317L137.545 124.31L136.829 125.008ZM139.214 128.504L138.276 128.851L138.281 128.863L139.214 128.504ZM139.476 129.186L140.421 128.86L140.415 128.844L140.409 128.828L139.476 129.186ZM144.341 137.086L144.955 136.296L144.914 136.265L144.87 136.237L144.341 137.086ZM137.141 138.413L137.785 137.648L137.736 137.607L137.682 137.572L137.141 138.413ZM131.409 126.038L132.063 125.281L132.046 125.266L132.028 125.252L131.409 126.038ZM128.091 127.844L129.053 128.116L129.055 128.109L129.057 128.102L128.091 127.844ZM129.972 137.101L129.055 137.5L129.055 137.5L129.972 137.101ZM129.303 141.916L128.681 141.132L128.675 141.138L129.303 141.916ZM124.569 143.092L123.574 143.189L123.583 143.285L123.611 143.378L124.569 143.092ZM117.09 114.059L118.027 113.711L118.021 113.695L118.015 113.68L117.09 114.059ZM116.663 113.018L115.727 113.371L115.732 113.384L115.737 113.397L116.663 113.018ZM115.251 110.634L114.494 111.287L114.508 111.303L114.522 111.318L115.251 110.634ZM113.869 109.526L114.164 108.57L114.149 108.566L114.135 108.562L113.869 109.526ZM113.36 109.386L113.626 108.422L113.607 108.416L113.588 108.412L113.36 109.386ZM114.841 106.315L115.473 107.09L114.841 106.315ZM118.976 103.915L118.751 102.94L118.72 102.947L118.691 102.956L118.976 103.915ZM120.08 104.287L119.152 104.658L119.158 104.674L119.165 104.689L120.08 104.287ZM125.83 123.785L124.852 123.992L124.86 124.032L124.871 124.071L125.83 123.785ZM126.705 123.583L125.767 123.236L125.764 123.243L125.762 123.25L126.705 123.583ZM127.723 121.118L126.815 120.699L126.81 120.709L126.806 120.72L127.723 121.118ZM129.909 117.077L129.058 116.552L129.051 116.564L129.909 117.077ZM135.139 114.234L134.965 115.219L134.965 115.219L135.139 114.234ZM136.655 115.009L137.41 115.665L137.77 115.25L137.613 114.724L136.655 115.009ZM136.177 115.561L136.776 116.362L136.862 116.297L136.932 116.216L136.177 115.561ZM129.979 121.753C129.771 122.138 129.69 122.594 129.83 123.061L131.746 122.49C131.759 122.533 131.764 122.583 131.757 122.633C131.751 122.68 131.738 122.705 131.738 122.704L129.979 121.753ZM129.83 123.061C129.956 123.484 130.279 123.688 130.457 123.771C130.642 123.857 130.828 123.892 130.965 123.91C131.248 123.947 131.59 123.94 131.953 123.915L131.811 121.92C131.487 121.943 131.304 121.937 131.222 121.927C131.177 121.921 131.221 121.92 131.304 121.959C131.38 121.995 131.642 122.138 131.746 122.49L129.83 123.061ZM131.964 123.914C132.47 123.872 133.153 123.991 134.048 124.365L134.82 122.52C133.757 122.075 132.739 121.843 131.8 121.921L131.964 123.914ZM134.048 124.365C134.927 124.733 135.605 125.185 136.112 125.706L137.545 124.31C136.817 123.563 135.899 122.971 134.82 122.52L134.048 124.365ZM136.106 125.699C137.241 126.887 137.939 127.938 138.276 128.851L140.152 128.158C139.686 126.895 138.793 125.615 137.552 124.317L136.106 125.699ZM138.281 128.863L138.542 129.544L140.409 128.828L140.148 128.146L138.281 128.863ZM138.53 129.512C139.966 133.673 141.68 136.605 143.812 137.934L144.87 136.237C143.367 135.3 141.837 132.965 140.421 128.86L138.53 129.512ZM143.727 137.875C143.778 137.914 143.818 137.948 143.849 137.975C143.881 138.003 143.9 138.022 143.909 138.032C143.919 138.043 143.911 138.036 143.895 138.012C143.887 137.999 143.874 137.978 143.859 137.95C143.845 137.921 143.827 137.88 143.811 137.828L145.728 137.257C145.644 136.975 145.469 136.772 145.368 136.664C145.247 136.535 145.104 136.412 144.955 136.296L143.727 137.875ZM143.811 137.828C143.774 137.703 143.781 137.555 143.837 137.426C143.884 137.32 143.938 137.287 143.91 137.31C143.883 137.33 143.815 137.375 143.682 137.435C143.551 137.493 143.378 137.556 143.157 137.622L143.728 139.539C144.264 139.379 144.771 139.175 145.142 138.885C145.335 138.734 145.54 138.522 145.668 138.231C145.806 137.918 145.824 137.578 145.728 137.257L143.811 137.828ZM143.157 137.622C141.711 138.053 140.546 138.235 139.64 138.21C138.738 138.186 138.158 137.962 137.785 137.648L136.496 139.178C137.319 139.87 138.387 140.178 139.586 140.21C140.781 140.242 142.169 140.003 143.728 139.539L143.157 137.622ZM137.682 137.572C137.701 137.585 137.641 137.548 137.517 137.364C137.402 137.193 137.264 136.943 137.108 136.6C136.796 135.913 136.447 134.937 136.064 133.65L134.147 134.221C134.542 135.546 134.921 136.621 135.288 137.427C135.471 137.83 135.66 138.187 135.859 138.482C136.049 138.765 136.29 139.055 136.599 139.253L137.682 137.572ZM136.064 133.65L135.664 132.308L133.748 132.879L134.147 134.221L136.064 133.65ZM135.664 132.308C134.669 128.968 133.506 126.529 132.063 125.281L130.755 126.795C131.725 127.633 132.76 129.565 133.748 132.879L135.664 132.308ZM132.028 125.252C131.207 124.607 130.249 124.347 129.242 124.647L129.813 126.564C130.093 126.48 130.39 126.508 130.791 126.824L132.028 125.252ZM129.242 124.647C128.631 124.829 128.188 125.266 127.87 125.761C127.554 126.255 127.313 126.878 127.125 127.587L129.057 128.102C129.218 127.499 129.392 127.094 129.554 126.841C129.633 126.718 129.699 126.647 129.745 126.608C129.788 126.571 129.81 126.564 129.813 126.564L129.242 124.647ZM127.128 127.573C126.749 128.919 126.625 130.152 126.928 131.171L128.845 130.6C128.701 130.116 128.713 129.322 129.053 128.116L127.128 127.573ZM126.928 131.171C127.823 134.174 128.533 136.299 129.055 137.5L130.889 136.702C130.421 135.626 129.741 133.608 128.845 130.6L126.928 131.171ZM129.055 137.5C129.302 138.068 129.488 138.498 129.614 138.79C129.677 138.936 129.724 139.046 129.756 139.121C129.771 139.159 129.782 139.185 129.789 139.202C129.808 139.248 129.788 139.203 129.771 139.147L131.688 138.576C131.679 138.544 131.669 138.518 131.667 138.512C131.663 138.501 131.659 138.491 131.656 138.484C131.651 138.47 131.645 138.456 131.64 138.443C131.629 138.416 131.614 138.382 131.597 138.342C131.563 138.261 131.514 138.146 131.451 137.999C131.324 137.704 131.136 137.271 130.889 136.702L129.055 137.5ZM129.771 139.147C129.909 139.61 129.803 140.244 128.682 141.132L129.924 142.7C131.323 141.591 132.168 140.188 131.688 138.576L129.771 139.147ZM128.675 141.138C127.531 142.061 126.406 142.67 125.301 143L125.872 144.916C127.272 144.499 128.624 143.748 129.93 142.695L128.675 141.138ZM125.301 143C125.282 143.005 125.307 142.994 125.365 143C125.43 143.007 125.501 143.031 125.563 143.073C125.621 143.112 125.642 143.148 125.639 143.144C125.636 143.138 125.616 143.103 125.592 143.022L123.675 143.593C123.791 143.984 124.007 144.433 124.436 144.725C124.906 145.046 125.433 145.047 125.872 144.916L125.301 143ZM125.592 143.022L125.528 142.807L123.611 143.378L123.675 143.593L125.592 143.022ZM125.565 142.996C125.103 138.237 123.44 131.09 120.613 121.599L118.696 122.17C121.518 131.643 123.132 138.634 123.574 143.189L125.565 142.996ZM120.613 121.599C119.682 118.474 118.82 115.843 118.027 113.711L116.152 114.408C116.925 116.485 117.773 119.07 118.696 122.17L120.613 121.599ZM118.015 113.68L117.588 112.639L115.737 113.397L116.164 114.439L118.015 113.68ZM117.598 112.665C117.193 111.592 116.661 110.676 115.981 109.95L114.522 111.318C114.983 111.81 115.392 112.483 115.727 113.371L117.598 112.665ZM116.008 109.98C115.453 109.338 114.836 108.777 114.164 108.57L113.575 110.482C113.675 110.513 113.979 110.691 114.494 111.287L116.008 109.98ZM114.135 108.562L113.626 108.422L113.094 110.35L113.604 110.49L114.135 108.562ZM113.588 108.412C113.52 108.396 113.538 108.389 113.592 108.428C113.622 108.449 113.663 108.485 113.704 108.539C113.745 108.595 113.778 108.659 113.799 108.729L111.882 109.3C112.09 109.999 112.716 110.262 113.133 110.359L113.588 108.412ZM113.799 108.729C113.858 108.927 113.716 108.91 114.016 108.506C114.277 108.154 114.746 107.683 115.473 107.09L114.209 105.54C113.432 106.174 112.815 106.767 112.409 107.315C112.042 107.81 111.653 108.53 111.882 109.3L113.799 108.729ZM115.473 107.09C116.92 105.909 118.182 105.195 119.261 104.873L118.691 102.956C117.266 103.381 115.77 104.266 114.209 105.54L115.473 107.09ZM119.201 104.889C119.294 104.868 119.353 104.863 119.384 104.862C119.415 104.862 119.405 104.866 119.37 104.854C119.33 104.841 119.277 104.813 119.228 104.765C119.18 104.718 119.158 104.675 119.152 104.658L121.009 103.916C120.831 103.471 120.49 103.121 120.009 102.959C119.579 102.814 119.133 102.852 118.751 102.94L119.201 104.889ZM119.165 104.689C119.74 106 120.692 108.864 122.028 113.348L123.945 112.777C122.616 108.316 121.63 105.33 120.996 103.885L119.165 104.689ZM122.028 113.348C123.346 117.773 124.286 121.318 124.852 123.992L126.808 123.578C126.226 120.828 125.27 117.225 123.945 112.777L122.028 113.348ZM124.871 124.071C124.944 124.313 125.046 124.594 125.208 124.826C125.355 125.035 125.814 125.534 126.522 125.324L125.951 123.407C126.186 123.337 126.424 123.374 126.606 123.473C126.758 123.556 126.831 123.657 126.846 123.678C126.873 123.716 126.844 123.686 126.788 123.5L124.871 124.071ZM126.522 125.324C126.983 125.186 127.225 124.807 127.319 124.651C127.446 124.438 127.553 124.182 127.648 123.916L125.762 123.25C125.726 123.352 125.693 123.434 125.665 123.499C125.636 123.565 125.615 123.604 125.603 123.624C125.589 123.647 125.597 123.627 125.634 123.59C125.668 123.556 125.771 123.46 125.951 123.407L126.522 125.324ZM127.643 123.93C127.826 123.432 128.157 122.632 128.641 121.515L126.806 120.72C126.32 121.84 125.971 122.683 125.767 123.236L127.643 123.93ZM128.631 121.536C129.132 120.451 129.841 119.137 130.767 117.591L129.051 116.564C128.104 118.146 127.356 119.526 126.815 120.699L128.631 121.536ZM130.76 117.603C131.223 116.851 131.643 116.297 132.015 115.915C132.394 115.525 132.668 115.371 132.833 115.322L132.262 113.405C131.64 113.59 131.081 114.006 130.581 114.52C130.072 115.043 129.566 115.729 129.058 116.552L130.76 117.603ZM132.833 115.322C133.497 115.124 134.203 115.085 134.965 115.219L135.312 113.249C134.265 113.065 133.244 113.112 132.262 113.405L132.833 115.322ZM134.965 115.219C135.372 115.29 135.614 115.373 135.741 115.438C135.876 115.507 135.754 115.488 135.697 115.295L137.613 114.724C137.449 114.173 137.022 113.846 136.651 113.657C136.272 113.463 135.81 113.337 135.312 113.249L134.965 115.219ZM135.9 114.354L135.421 114.906L136.932 116.216L137.41 115.665L135.9 114.354ZM135.577 114.76C133.605 116.237 131.75 118.593 129.986 121.74L131.731 122.717C133.427 119.692 135.117 117.603 136.776 116.362L135.577 114.76Z" fill="#EA7AFC"/>
<path d="M163.359 119.738C164.067 121.179 164.399 122.575 164.355 123.928C164.346 125.263 164.112 126.355 163.655 127.203C163.198 128.051 162.558 128.865 161.734 129.644C160.658 130.671 159.6 131.439 158.561 131.949C156.383 133.019 154.367 133.488 152.515 133.357C150.646 133.193 149.251 132.173 148.33 130.296C147.787 129.19 147.645 128.137 147.903 127.138C148.331 125.638 149.199 124.567 150.506 123.926C150.908 123.729 151.199 123.814 151.38 124.183C151.397 124.216 151.445 124.526 151.524 125.11C151.62 125.645 151.849 126.282 152.211 127.019C152.573 127.756 153.179 128.27 154.028 128.56C154.911 128.834 155.771 128.765 156.609 128.354C157.447 127.942 158.051 127.479 158.423 126.964C158.777 126.416 158.948 125.875 158.935 125.34C158.941 124.589 158.812 123.945 158.549 123.409C158.072 122.437 157.175 121.838 155.857 121.611C154.54 121.384 153.196 121.358 151.826 121.531C150.455 121.705 149.054 121.561 147.621 121.1C146.189 120.638 145.127 119.704 144.436 118.296C143.252 115.883 143.118 113.703 144.034 111.757C144.983 109.794 146.765 108.17 149.379 106.887C150.518 106.328 151.79 105.912 153.195 105.638C154.616 105.315 155.516 105.538 155.895 106.309C156.257 107.046 156.46 107.799 156.504 108.568C156.582 109.319 156.437 109.786 156.068 109.967C155.867 110.066 155.7 110.064 155.567 109.963C155.418 109.829 155.21 109.702 154.944 109.583C154.678 109.464 154.152 109.41 153.367 109.421C152.566 109.398 151.931 109.502 151.462 109.733C151.026 109.946 150.733 110.111 150.581 110.227C150.447 110.293 150.221 110.466 149.901 110.748C149.566 110.996 149.288 111.278 149.069 111.593C148.512 112.407 148.439 113.233 148.85 114.071C149.113 114.607 149.428 114.952 149.794 115.105C150.144 115.224 150.419 115.318 150.619 115.387C150.818 115.455 151.135 115.507 151.569 115.544C151.987 115.547 152.279 115.549 152.446 115.55C152.613 115.551 152.988 115.554 153.573 115.559C154.141 115.529 154.508 115.515 154.675 115.517C159.05 115.449 161.945 116.856 163.359 119.738Z" fill="white"/>
<path d="M164.355 123.928L163.356 123.896L163.356 123.908L163.355 123.92L164.355 123.928ZM163.655 127.203L162.775 126.729L162.775 126.729L163.655 127.203ZM161.734 129.644L161.047 128.917L161.043 128.92L161.734 129.644ZM152.515 133.357L152.428 134.354L152.436 134.354L152.445 134.355L152.515 133.357ZM147.903 127.138L146.941 126.863L146.937 126.875L146.934 126.888L147.903 127.138ZM151.524 125.11L150.533 125.245L150.536 125.266L150.54 125.288L151.524 125.11ZM154.028 128.56L153.705 129.506L153.718 129.511L153.732 129.515L154.028 128.56ZM158.423 126.964L159.234 127.549L159.249 127.529L159.262 127.508L158.423 126.964ZM158.935 125.34L157.935 125.333L157.935 125.349L157.936 125.364L158.935 125.34ZM155.857 121.611L156.027 120.626L156.027 120.626L155.857 121.611ZM151.826 121.531L151.7 120.539L151.7 120.539L151.826 121.531ZM147.621 121.1L147.315 122.052L147.315 122.052L147.621 121.1ZM144.034 111.757L143.133 111.321L143.129 111.331L144.034 111.757ZM153.195 105.638L153.386 106.62L153.401 106.617L153.417 106.613L153.195 105.638ZM156.504 108.568L155.506 108.625L155.507 108.648L155.509 108.671L156.504 108.568ZM155.567 109.963L154.897 110.706L154.928 110.734L154.961 110.759L155.567 109.963ZM154.944 109.583L155.351 108.67L155.351 108.67L154.944 109.583ZM153.367 109.421L153.339 110.421L153.36 110.421L153.381 110.421L153.367 109.421ZM150.581 110.227L151.022 111.125L151.111 111.081L151.19 111.021L150.581 110.227ZM149.901 110.748L150.495 111.552L150.53 111.527L150.563 111.498L149.901 110.748ZM149.069 111.593L148.248 111.023L148.243 111.029L149.069 111.593ZM149.794 115.105L149.409 116.028L149.44 116.041L149.471 116.051L149.794 115.105ZM150.619 115.387L150.295 116.333L150.295 116.333L150.619 115.387ZM151.569 115.544L151.485 116.54L151.523 116.543L151.562 116.544L151.569 115.544ZM152.446 115.55L152.438 116.55L152.438 116.55L152.446 115.55ZM153.573 115.559L153.565 116.558L153.595 116.559L153.624 116.557L153.573 115.559ZM154.675 115.517L154.668 116.516L154.679 116.517L154.69 116.516L154.675 115.517ZM162.462 120.178C163.11 121.5 163.393 122.735 163.356 123.896L165.355 123.96C165.404 122.416 165.023 120.858 164.257 119.297L162.462 120.178ZM163.355 123.92C163.346 125.152 163.13 126.069 162.775 126.729L164.535 127.678C165.094 126.641 165.345 125.374 165.355 123.935L163.355 123.92ZM162.775 126.729C162.376 127.468 161.807 128.199 161.047 128.917L162.421 130.37C163.309 129.531 164.02 128.635 164.535 127.678L162.775 126.729ZM161.043 128.92C160.021 129.896 159.046 130.597 158.121 131.052L159.002 132.847C160.154 132.281 161.294 131.446 162.424 130.367L161.043 128.92ZM158.121 131.052C156.053 132.066 154.215 132.475 152.585 132.36L152.445 134.355C154.519 134.501 156.712 133.971 159.002 132.847L158.121 131.052ZM152.603 132.361C151.128 132.232 150.016 131.461 149.228 129.856L147.432 130.737C148.487 132.885 150.165 134.155 152.428 134.354L152.603 132.361ZM149.228 129.856C148.769 128.921 148.684 128.113 148.871 127.387L146.934 126.888C146.606 128.162 146.806 129.46 147.432 130.737L149.228 129.856ZM148.864 127.412C149.221 126.163 149.913 125.331 150.946 124.824L150.065 123.028C148.485 123.804 147.441 125.113 146.941 126.863L148.864 127.412ZM150.946 124.824C151.027 124.784 150.931 124.856 150.744 124.802C150.536 124.74 150.47 124.599 150.483 124.623L152.278 123.742C152.109 123.398 151.807 123.029 151.308 122.883C150.83 122.742 150.386 122.871 150.065 123.028L150.946 124.824ZM150.483 124.623C150.447 124.55 150.429 124.49 150.426 124.479C150.42 124.458 150.416 124.443 150.415 124.439C150.413 124.43 150.413 124.429 150.416 124.444C150.421 124.471 150.429 124.519 150.44 124.593C150.463 124.738 150.494 124.954 150.533 125.245L152.515 124.976C152.475 124.682 152.442 124.451 152.417 124.287C152.404 124.206 152.392 124.134 152.381 124.075C152.376 124.047 152.369 124.012 152.361 123.978C152.357 123.96 152.351 123.935 152.342 123.905C152.336 123.886 152.316 123.82 152.278 123.742L150.483 124.623ZM150.54 125.288C150.658 125.948 150.929 126.677 151.313 127.46L153.109 126.578C152.769 125.886 152.582 125.343 152.508 124.933L150.54 125.288ZM151.313 127.46C151.804 128.458 152.63 129.139 153.705 129.506L154.351 127.614C153.727 127.401 153.342 127.054 153.109 126.578L151.313 127.46ZM153.732 129.515C154.861 129.865 155.985 129.774 157.05 129.251L156.168 127.456C155.557 127.756 154.96 127.802 154.324 127.605L153.732 129.515ZM157.05 129.251C157.971 128.799 158.732 128.245 159.234 127.549L157.611 126.38C157.371 126.713 156.923 127.085 156.168 127.456L157.05 129.251ZM159.262 127.508C159.701 126.828 159.954 126.092 159.935 125.316L157.936 125.364C157.943 125.657 157.853 126.004 157.583 126.421L159.262 127.508ZM159.935 125.348C159.942 124.48 159.793 123.675 159.447 122.968L157.651 123.85C157.831 124.215 157.94 124.698 157.935 125.333L159.935 125.348ZM159.447 122.968C158.795 121.64 157.577 120.892 156.027 120.626L155.688 122.597C156.772 122.783 157.349 123.234 157.651 123.85L159.447 122.968ZM156.027 120.626C154.609 120.381 153.165 120.354 151.7 120.539L151.951 122.523C153.227 122.362 154.471 122.387 155.688 122.597L156.027 120.626ZM151.7 120.539C150.488 120.693 149.234 120.568 147.928 120.148L147.315 122.052C148.874 122.554 150.423 122.717 151.951 122.523L151.7 120.539ZM147.928 120.148C146.766 119.773 145.911 119.031 145.334 117.856L143.539 118.737C144.343 120.377 145.612 121.503 147.315 122.052L147.928 120.148ZM145.334 117.856C144.247 115.641 144.183 113.787 144.938 112.182L143.129 111.331C142.052 113.62 142.257 116.126 143.539 118.737L145.334 117.856ZM144.934 112.192C145.758 110.488 147.339 109.003 149.819 107.785L148.938 105.99C146.191 107.338 144.208 109.099 143.133 111.321L144.934 112.192ZM149.819 107.785C150.87 107.269 152.057 106.878 153.386 106.62L153.004 104.656C151.523 104.945 150.166 105.387 148.938 105.99L149.819 107.785ZM153.417 106.613C154.053 106.468 154.459 106.475 154.695 106.534C154.884 106.581 154.949 106.652 154.997 106.75L156.792 105.868C156.462 105.195 155.887 104.769 155.177 104.593C154.513 104.428 153.758 104.484 152.973 104.663L153.417 106.613ZM154.997 106.75C155.304 107.375 155.47 107.999 155.506 108.625L157.502 108.51C157.45 107.6 157.209 106.717 156.792 105.868L154.997 106.75ZM155.509 108.671C155.541 108.978 155.515 109.131 155.499 109.184C155.493 109.204 155.495 109.187 155.52 109.156C155.547 109.121 155.586 109.09 155.627 109.069L156.509 110.865C157.505 110.375 157.581 109.258 157.499 108.464L155.509 108.671ZM155.627 109.069C155.621 109.072 155.684 109.039 155.799 109.04C155.932 109.041 156.067 109.087 156.173 109.168L154.961 110.759C155.499 111.168 156.103 111.064 156.509 110.865L155.627 109.069ZM156.237 109.221C155.983 108.992 155.674 108.814 155.351 108.67L154.536 110.496C154.746 110.59 154.853 110.665 154.897 110.706L156.237 109.221ZM155.351 108.67C155.073 108.545 154.749 108.489 154.452 108.459C154.137 108.426 153.768 108.415 153.353 108.421L153.381 110.421C153.752 110.416 154.037 110.426 154.248 110.448C154.476 110.472 154.549 110.502 154.536 110.496L155.351 108.67ZM153.395 108.421C152.511 108.397 151.693 108.505 151.021 108.835L151.902 110.63C152.168 110.5 152.621 110.4 153.339 110.421L153.395 108.421ZM151.021 108.835C150.589 109.047 150.213 109.25 149.973 109.433L151.19 111.021C151.252 110.973 151.462 110.846 151.902 110.63L151.021 108.835ZM150.141 109.329C149.868 109.463 149.546 109.728 149.24 109.998L150.563 111.498C150.713 111.366 150.83 111.268 150.919 111.2C151.018 111.124 151.046 111.113 151.022 111.125L150.141 109.329ZM149.307 109.944C148.891 110.251 148.534 110.61 148.248 111.023L149.89 112.164C150.042 111.946 150.24 111.741 150.495 111.552L149.307 109.944ZM148.243 111.029C147.497 112.119 147.372 113.328 147.952 114.512L149.748 113.631C149.506 113.138 149.526 112.695 149.894 112.158L148.243 111.029ZM147.952 114.512C148.27 115.159 148.73 115.744 149.409 116.028L150.18 114.182C150.126 114.16 149.956 114.056 149.748 113.631L147.952 114.512ZM149.471 116.051C149.821 116.171 150.096 116.265 150.295 116.333L150.942 114.44C150.742 114.372 150.467 114.278 150.117 114.159L149.471 116.051ZM150.295 116.333C150.617 116.443 151.037 116.502 151.485 116.54L151.653 114.547C151.234 114.512 151.019 114.467 150.942 114.44L150.295 116.333ZM151.562 116.544C151.979 116.547 152.271 116.549 152.438 116.55L152.453 114.55C152.286 114.549 151.994 114.547 151.577 114.544L151.562 116.544ZM152.438 116.55C152.456 116.55 152.486 116.551 152.511 116.551C152.535 116.551 152.572 116.551 152.603 116.551C152.604 116.551 152.605 116.551 152.606 116.551C152.606 116.551 152.607 116.551 152.607 116.551C152.608 116.551 152.609 116.551 152.609 116.551C152.61 116.551 152.61 116.551 152.611 116.551C152.611 116.551 152.612 116.551 152.612 116.551C152.613 116.551 152.613 116.551 152.614 116.551C152.614 116.551 152.615 116.551 152.616 116.551C152.616 116.552 152.621 116.552 152.622 116.552C152.623 116.552 152.623 116.552 152.624 116.552C152.624 116.552 152.625 116.552 152.625 116.552C152.626 116.552 152.628 116.552 152.629 116.552C152.629 116.552 152.63 116.552 152.63 116.552C152.631 116.552 152.631 116.552 152.632 116.552C152.633 116.552 152.633 116.552 152.634 116.552C152.634 116.552 152.635 116.552 152.635 116.552C152.636 116.552 152.637 116.552 152.637 116.552C152.638 116.552 152.638 116.552 152.639 116.552C152.639 116.552 152.64 116.552 152.64 116.552C152.641 116.552 152.642 116.552 152.642 116.552C152.643 116.552 152.643 116.552 152.644 116.552C152.644 116.552 152.645 116.552 152.646 116.552C152.646 116.552 152.647 116.552 152.647 116.552C152.648 116.552 152.648 116.552 152.649 116.552C152.65 116.552 152.65 116.552 152.651 116.552C152.651 116.552 152.652 116.552 152.653 116.552C152.653 116.552 152.655 116.552 152.656 116.552C152.657 116.552 152.657 116.552 152.658 116.552C152.658 116.552 152.659 116.552 152.659 116.552C152.66 116.552 152.661 116.552 152.661 116.552C152.662 116.552 152.662 116.552 152.663 116.552C152.664 116.552 152.664 116.552 152.665 116.552C152.665 116.552 152.666 116.552 152.667 116.552C152.667 116.552 152.668 116.552 152.668 116.552C152.669 116.552 152.669 116.552 152.67 116.552C152.672 116.552 152.682 116.552 152.684 116.552C152.693 116.552 152.705 116.552 152.714 116.552C152.716 116.552 152.72 116.552 152.722 116.552C152.724 116.552 152.724 116.552 152.726 116.552C152.726 116.552 152.727 116.552 152.728 116.552C152.728 116.552 152.729 116.552 152.73 116.552C152.73 116.552 152.731 116.552 152.731 116.552C152.732 116.552 152.733 116.552 152.733 116.552C152.734 116.552 152.735 116.552 152.735 116.552C152.736 116.552 152.737 116.552 152.737 116.552C152.738 116.552 152.74 116.552 152.741 116.552C152.742 116.552 152.742 116.552 152.743 116.552C152.744 116.552 152.744 116.552 152.745 116.552C152.747 116.552 152.751 116.552 152.753 116.553C152.754 116.553 152.76 116.553 152.761 116.553C152.762 116.553 152.768 116.553 152.769 116.553C152.77 116.553 152.77 116.553 152.771 116.553C152.772 116.553 152.773 116.553 152.773 116.553C152.774 116.553 152.775 116.553 152.775 116.553C152.776 116.553 152.777 116.553 152.777 116.553C152.787 116.553 152.834 116.553 152.845 116.553C152.861 116.553 152.865 116.553 152.881 116.553C152.882 116.553 152.883 116.553 152.883 116.553C152.884 116.553 152.885 116.553 152.886 116.553C152.886 116.553 152.89 116.554 152.89 116.554C152.893 116.554 152.897 116.554 152.899 116.554C152.901 116.554 152.907 116.554 152.909 116.554C152.91 116.554 152.91 116.554 152.911 116.554C152.912 116.554 152.913 116.554 152.913 116.554C152.916 116.554 152.915 116.554 152.918 116.554C152.964 116.554 152.949 116.554 152.996 116.554C153.032 116.555 153.041 116.555 153.079 116.555C153.154 116.555 153.089 116.555 153.166 116.556C153.166 116.556 153.257 116.556 153.259 116.556C153.301 116.557 153.312 116.557 153.356 116.557C153.444 116.558 153.368 116.557 153.458 116.558C153.458 116.558 153.564 116.558 153.565 116.558L153.58 114.559C153.579 114.559 153.578 114.559 153.577 114.559C153.575 114.559 153.574 114.558 153.573 114.558C153.572 114.558 153.571 114.558 153.57 114.558C153.569 114.558 153.567 114.558 153.566 114.558C153.563 114.558 153.563 114.558 153.56 114.558C153.557 114.558 153.556 114.558 153.553 114.558C153.547 114.558 153.552 114.558 153.546 114.558C153.54 114.558 153.545 114.558 153.539 114.558C153.53 114.558 153.541 114.558 153.533 114.558C153.53 114.558 153.529 114.558 153.526 114.558C153.52 114.558 153.525 114.558 153.519 114.558C153.513 114.558 153.518 114.558 153.512 114.558C153.511 114.558 153.51 114.558 153.509 114.558C153.508 114.558 153.507 114.558 153.506 114.558C153.497 114.558 153.508 114.558 153.499 114.558C153.498 114.558 153.497 114.558 153.496 114.558C153.495 114.558 153.494 114.558 153.493 114.558C153.491 114.558 153.49 114.558 153.489 114.558C153.488 114.558 153.487 114.558 153.486 114.558C153.485 114.558 153.484 114.558 153.483 114.558C153.482 114.558 153.481 114.558 153.479 114.558C153.478 114.558 153.477 114.558 153.476 114.558C153.475 114.558 153.474 114.558 153.473 114.558C153.461 114.558 153.458 114.558 153.447 114.558C153.435 114.557 153.432 114.557 153.421 114.557C153.41 114.557 153.42 114.557 153.408 114.557C153.397 114.557 153.407 114.557 153.396 114.557C153.39 114.557 153.389 114.557 153.383 114.557C153.378 114.557 153.376 114.557 153.371 114.557C153.36 114.557 153.357 114.557 153.346 114.557C153.324 114.557 153.343 114.557 153.321 114.557C153.3 114.556 153.319 114.557 153.297 114.556C153.265 114.556 153.305 114.557 153.273 114.556C153.263 114.556 153.26 114.556 153.25 114.556C153.229 114.556 153.247 114.556 153.226 114.556C153.196 114.556 153.234 114.556 153.203 114.556C153.201 114.556 153.2 114.556 153.198 114.556C153.193 114.556 153.197 114.556 153.192 114.556C153.185 114.556 153.194 114.556 153.186 114.556C153.186 114.556 153.185 114.556 153.184 114.556C153.183 114.556 153.182 114.556 153.181 114.556C153.18 114.556 153.179 114.556 153.178 114.556C153.177 114.556 153.176 114.556 153.175 114.556C153.174 114.556 153.173 114.556 153.172 114.556C153.171 114.556 153.171 114.556 153.17 114.556C153.155 114.555 153.173 114.556 153.159 114.555C153.149 114.555 153.157 114.555 153.147 114.555C153.147 114.555 153.146 114.555 153.145 114.555C153.144 114.555 153.143 114.555 153.142 114.555C153.141 114.555 153.14 114.555 153.139 114.555C153.138 114.555 153.137 114.555 153.136 114.555C153.078 114.555 153.151 114.555 153.093 114.555C153.055 114.555 153.089 114.555 153.051 114.555C153.05 114.555 153.05 114.555 153.049 114.555C153.048 114.555 153.047 114.555 153.046 114.555C153.045 114.555 153.044 114.555 153.044 114.555C153.043 114.555 153.042 114.555 153.041 114.555C153.04 114.555 153.039 114.555 153.038 114.555C153.038 114.555 153.037 114.555 153.036 114.555C153.035 114.555 153.034 114.555 153.033 114.555C153.033 114.555 153.032 114.555 153.031 114.554C153.03 114.554 153.029 114.554 153.028 114.554C153.027 114.554 153.027 114.554 153.026 114.554C153.025 114.554 153.024 114.554 153.023 114.554C153.022 114.554 153.022 114.554 153.021 114.554C153.018 114.554 153.018 114.554 153.016 114.554C153.015 114.554 153.014 114.554 153.013 114.554C153.012 114.554 153.011 114.554 153.011 114.554C152.987 114.554 152.955 114.554 152.933 114.554C152.921 114.554 152.87 114.553 152.86 114.553C152.774 114.553 152.677 114.552 152.617 114.551C152.576 114.551 152.468 114.55 152.453 114.55L152.438 116.55ZM153.624 116.557C154.2 116.528 154.536 116.516 154.668 116.516L154.682 114.517C154.48 114.515 154.081 114.531 153.521 114.56L153.624 116.557ZM154.69 116.516C158.843 116.452 161.28 117.77 162.462 120.178L164.257 119.297C162.61 115.941 159.257 114.445 154.659 114.517L154.69 116.516Z" fill="#EA7AFC"/>
</g>
<defs>
<filter id="filter0_d_14_173" x="9.5" y="26.0663" width="155" height="85.4337" filterUnits="userSpaceOnUse" color-interpolation-filters="sRGB">
<feFlood flood-opacity="0" result="BackgroundImageFix"/>
<feColorMatrix in="SourceAlpha" type="matrix" values="0 0 0 0 0 0 0 0 0 0 0 0 0 0 0 0 0 0 127 0" result="hardAlpha"/>
<feOffset dy="4"/>
<feGaussianBlur stdDeviation="1"/>
<feComposite in2="hardAlpha" operator="out"/>
<feColorMatrix type="matrix" values="0 0 0 0 0 0 0 0 0 0 0 0 0 0 0 0 0 0 0.4 0"/>
<feBlend mode="normal" in2="BackgroundImageFix" result="effect1_dropShadow_14_173"/>
<feBlend mode="normal" in="SourceGraphic" in2="effect1_dropShadow_14_173" result="shape"/>
</filter>
<filter id="filter1_d_14_173" x="3.64476" y="89.968" width="167.613" height="66.0929" filterUnits="userSpaceOnUse" color-interpolation-filters="sRGB">
<feFlood flood-opacity="0" result="BackgroundImageFix"/>
<feColorMatrix in="SourceAlpha" type="matrix" values="0 0 0 0 0 0 0 0 0 0 0 0 0 0 0 0 0 0 127 0" result="hardAlpha"/>
<feOffset dy="4"/>
<feGaussianBlur stdDeviation="2"/>
<feComposite in2="hardAlpha" operator="out"/>
<feColorMatrix type="matrix" values="0 0 0 0 0 0 0 0 0 0 0 0 0 0 0 0 0 0 0.25 0"/>
<feBlend mode="normal" in2="BackgroundImageFix" result="effect1_dropShadow_14_173"/>
<feBlend mode="normal" in="SourceGraphic" in2="effect1_dropShadow_14_173" result="shape"/>
</filter>
</defs>
</svg>
