<svg width="348" height="282" viewBox="0 0 348 282" fill="none" xmlns="http://www.w3.org/2000/svg">
<g filter="url(#filter0_d_9_58)">
<rect width="253.944" height="129.9" rx="8" transform="matrix(0.986314 -0.215552 0.216199 0.965906 26.6107 114.215)" fill="#5BB018"/>
<rect width="248.021" height="123.516" rx="8" transform="matrix(0.986314 -0.215552 0.216199 0.965906 32.014 111.879)" fill="#81D33F"/>
</g>
<path d="M159.264 29.0303L151.866 17.6277L168.929 23.0947L179.789 26.7485L190.608 28.0004L202.935 27.3038L213.695 25.1931L219.829 23.1635L224.396 19.7199L221.27 46.6834L211.951 43.0027L205.749 41.1893L198.023 40.3637L190.296 39.5381L179.52 40.6881L164.185 45.762L163.62 42.8888L159.264 29.0303Z" fill="#F5F5F5" fill-opacity="0.75" stroke="#F5F5F5" stroke-opacity="0.75"/>
<path d="M226.362 15.3831C226.488 22.5829 212.607 27.4234 193.396 27.7601C174.184 28.0969 164.642 18.3497 148.854 16.7231C162.468 10.8198 168.131 3.1524 187.343 2.81564C206.554 2.47889 226.236 8.1833 226.362 15.3831Z" fill="#EFEFEF" fill-opacity="0.75"/>
<path d="M225.862 15.3919C225.891 17.0118 225.137 18.5366 223.626 19.9408C222.108 21.3505 219.852 22.6124 216.958 23.676C211.173 25.802 202.961 27.0924 193.387 27.2602C183.877 27.4269 176.759 25.1009 170.02 22.5112C169.111 22.1617 168.208 21.807 167.306 21.4527C162.036 19.3835 156.807 17.3303 150.691 16.4467C153.43 15.1758 155.854 13.845 158.156 12.542C158.652 12.2613 159.142 11.9821 159.628 11.7053C161.841 10.4437 163.971 9.22979 166.219 8.13113C171.677 5.4639 177.824 3.48257 187.351 3.31557C196.911 3.14799 206.581 4.48457 213.861 6.75057C217.503 7.8844 220.52 9.24257 222.623 10.7418C224.742 12.2518 225.835 13.8312 225.862 15.3919Z" stroke="#8C8C8C" stroke-opacity="0.78"/>
<g filter="url(#filter1_d_9_58)">
<path d="M161.346 79.7975L163.228 66.8473C163.663 63.8557 163.855 60.8339 163.802 57.8113L163.625 47.6939L168.857 45.4859C175.443 42.7066 182.5 41.214 189.648 41.0887L194.649 41.001L201.408 41.6181C208.429 42.2591 215.265 44.2201 221.559 47.398L221.992 47.6168L220.079 64.6785C219.265 74.4266 222.143 84.1247 228.143 91.8505L233.768 99.0928C245.498 114.198 244.087 135.687 230.481 149.127C223.864 155.663 215.069 159.528 205.78 159.981L187.439 160.876C179.229 161.276 171.102 159.073 164.219 154.581C146.537 143.04 141.248 119.526 152.285 101.526L155.209 96.7572C158.384 91.579 160.472 85.8086 161.346 79.7975Z" fill="#FCEE6F" fill-opacity="0.75" shape-rendering="crispEdges"/>
<path d="M149.8 16.2449L152.593 19.933C158.634 27.9094 162.427 37.3586 163.579 47.2979L163.625 47.6939M225.818 13.4934L221.992 47.6168M163.625 47.6939L163.802 57.8113C163.855 60.8339 163.663 63.8557 163.228 66.8473L161.346 79.7975C160.472 85.8086 158.384 91.579 155.209 96.7572L152.285 101.526C141.248 119.526 146.537 143.04 164.219 154.581V154.581C171.102 159.073 179.229 161.276 187.439 160.876L205.78 159.981C215.069 159.528 223.864 155.663 230.481 149.127V149.127C244.087 135.687 245.498 114.198 233.768 99.0928L228.143 91.8505C222.143 84.1247 219.265 74.4266 220.079 64.6785V64.6785L221.992 47.6168M163.625 47.6939L165.429 48.765C174.367 54.0719 184.606 56.7862 194.999 56.604L196.453 56.5786L200.468 56.0271C208.206 54.964 215.583 52.0818 221.992 47.6168V47.6168M163.625 47.6939L168.857 45.4859C175.443 42.7066 182.5 41.214 189.648 41.0887L194.649 41.001L201.408 41.6181C208.429 42.2591 215.265 44.2201 221.559 47.398L221.992 47.6168" stroke="#8C8C8C" stroke-opacity="0.78" shape-rendering="crispEdges"/>
</g>
<path d="M237.311 62.8183L239.008 58.404C239.785 56.3831 239.506 54.1451 238.252 52.3467C236.741 50.1788 234.145 49.0686 231.559 49.2114C228.836 49.3619 226.683 51.3729 224.642 53.181L220.956 56.4457C220.947 55.9401 221.067 55.4375 221.27 54.9743C223.101 50.7926 220.307 51.8089 222.384 50.5586L230.079 45.9144C234.152 43.4622 239.578 44.4052 242.399 48.0558C244.194 50.3785 244.59 53.3903 243.45 56.0514L241.503 60.5968L240.693 61.9664C236.738 68.6512 238.124 76.9528 244.071 82.1941L251.359 88.6178C253.614 90.6051 253.969 93.8206 252.198 96.2C251.261 97.4586 248.494 98.3539 246.877 98.654L236.646 100.364C235.078 100.626 233.644 99.4335 233.617 97.8446C233.492 97.8732 233.361 97.8609 233.245 97.8098C232.733 97.5835 233.294 97.4126 233.617 97.8446L242.32 95.8442C243.759 95.5136 245.002 94.675 245.784 93.5077C247.144 91.4781 246.859 88.8578 245.091 87.1276L239.354 81.5142C234.615 76.8769 233.497 69.9895 236.551 64.247L237.311 62.8183Z" fill="#F5F5F5" fill-opacity="0.75"/>
<path d="M233.617 97.8446V97.8446C233.644 99.4335 235.078 100.626 236.646 100.364L246.877 98.654C248.494 98.3539 251.261 97.4586 252.198 96.2C253.969 93.8206 253.614 90.6051 251.359 88.6178L244.071 82.1941C238.124 76.9528 236.738 68.6512 240.693 61.9664L241.503 60.5968L243.45 56.0514C244.59 53.3903 244.194 50.3785 242.399 48.0558C239.578 44.4052 234.152 43.4622 230.079 45.9144L222.384 50.5586C220.307 51.8089 223.101 50.7926 221.27 54.9743C221.067 55.4375 220.947 55.9401 220.956 56.4457V56.4457L224.642 53.181C226.683 51.3729 228.836 49.3619 231.559 49.2114C234.145 49.0686 236.741 50.1788 238.252 52.3467C239.506 54.1451 239.785 56.3831 239.008 58.404L237.311 62.8183L236.551 64.247C233.497 69.9895 234.615 76.8769 239.354 81.5142L245.091 87.1276C246.859 88.8578 247.144 91.4781 245.784 93.5077C245.002 94.675 243.759 95.5136 242.32 95.8442L233.617 97.8446ZM233.617 97.8446C233.492 97.8732 233.361 97.8609 233.245 97.8098C232.733 97.5835 233.294 97.4126 233.617 97.8446Z" stroke="#8C8C8C" stroke-opacity="0.78"/>
<rect width="9.38062" height="15.8965" rx="2" transform="matrix(0.785233 0.619201 -0.751845 0.65934 174.893 56.4835)" fill="#F4F2F2" fill-opacity="0.97"/>
<path d="M180.35 62.1691L170.497 70.6612C170.037 71.0575 170.325 71.8119 170.932 71.8012C171.088 71.7985 171.238 71.7395 171.354 71.635L181.027 62.9378C181.137 62.8386 181.199 62.6964 181.196 62.548C181.189 62.1141 180.679 61.8857 180.35 62.1691Z" fill="#ECEBEB" fill-opacity="0.9" stroke="#ECEBEB" stroke-opacity="0.9"/>
<rect width="9.83756" height="16.735" rx="2" transform="matrix(-0.243472 0.935268 -1.00807 -0.222943 191.131 71.6369)" fill="#F4F2F2" fill-opacity="0.97"/>
<path d="M187.705 79.1825L173.902 76.0115C173.288 75.8704 172.817 76.4887 173.149 77.001C173.254 77.1632 173.425 77.2787 173.621 77.3195L187.483 80.2152C187.622 80.2442 187.765 80.2232 187.885 80.1563C188.315 79.9167 188.2 79.2962 187.705 79.1825Z" fill="#ECEBEB" fill-opacity="0.9" stroke="#ECEBEB" stroke-opacity="0.8"/>
<rect width="9.83919" height="16.7322" rx="2" transform="matrix(-1.02555 0.148254 -0.157206 -0.94953 219.662 70.0125)" fill="#F4F2F2" fill-opacity="0.97"/>
<path d="M210.839 69.9725L208.805 56.9327C208.714 56.349 207.911 56.1707 207.526 56.6489C207.406 56.7977 207.357 56.9848 207.389 57.1659L209.72 70.1566C209.744 70.2884 209.821 70.4059 209.936 70.485C210.339 70.7631 210.911 70.4382 210.839 69.9725Z" fill="#ECEBEB" fill-opacity="0.9" stroke="#ECEBEB" stroke-opacity="0.8"/>
<rect width="7.23055" height="12.2983" rx="2" transform="matrix(-0.547164 0.82033 -0.859396 -0.537661 209.801 49.0569)" fill="#F4F2F2" fill-opacity="0.97"/>
<path d="M205.565 53.5798L196.948 48.0869C196.564 47.8419 196.082 48.167 196.179 48.6062C196.209 48.7442 196.296 48.8649 196.419 48.9395L205.146 54.2529C205.234 54.3064 205.339 54.3256 205.438 54.3064C205.793 54.2384 205.873 53.7765 205.565 53.5798Z" fill="#ECEBEB" fill-opacity="0.9" stroke="#ECEBEB" stroke-opacity="0.9"/>
<rect width="8.12859" height="13.8622" rx="2" transform="matrix(-0.114015 0.955093 -1.03452 0.0640229 191.699 44.5086)" fill="#F4F2F2" fill-opacity="0.97"/>
<path d="M189.623 51.2121L177.838 51.8473C177.344 51.874 177.11 52.4233 177.45 52.7585C177.572 52.8787 177.746 52.9412 177.923 52.9282L189.69 52.0653C189.794 52.0577 189.892 52.0174 189.969 51.9511C190.282 51.6777 190.053 51.1889 189.623 51.2121Z" fill="#ECEBEB" fill-opacity="0.9" stroke="#ECEBEB" stroke-opacity="0.9"/>
<rect width="10.025" height="17.0554" rx="2" transform="matrix(0.748334 0.669146 -0.631188 0.770618 199.959 56.3741)" fill="#F4F2F2" fill-opacity="0.97"/>
<path d="M205.476 63.1786L196.557 73.8746C196.161 74.3497 196.532 75.0718 197.152 75.0316C197.349 75.0189 197.531 74.924 197.654 74.7703L206.342 63.8857C206.429 63.7771 206.471 63.6398 206.461 63.5007C206.425 63.0001 205.796 62.7946 205.476 63.1786Z" fill="#ECEBEB" fill-opacity="0.9" stroke="#ECEBEB" stroke-opacity="0.8"/>
<rect width="10.0272" height="17.0604" rx="2" transform="matrix(0.565841 0.808372 -0.801701 0.619347 206.857 72.9595)" fill="#F4F2F2" fill-opacity="0.97"/>
<path d="M210.571 80.7472L199.285 89.3139C198.785 89.6939 198.972 90.4723 199.586 90.5626C199.782 90.5914 199.983 90.5368 200.14 90.4122L211.246 81.6144C211.356 81.5269 211.431 81.4025 211.455 81.2655C211.541 80.7704 210.977 80.4394 210.571 80.7472Z" fill="#ECEBEB" fill-opacity="0.9" stroke="#ECEBEB" stroke-opacity="0.8"/>
<g filter="url(#filter2_d_9_58)">
<rect x="66.183" y="80.6203" width="57.1688" height="52.0226" transform="rotate(-1.00424 66.183 80.6203)" fill="#D9F2D9" fill-opacity="0.984314"/>
<rect x="66.6917" y="81.1114" width="56.1688" height="51.0226" transform="rotate(-1.00424 66.6917 81.1114)" stroke="#A1A2A1" stroke-opacity="0.5"/>
<ellipse cx="94.8044" cy="82.4836" rx="28.5844" ry="10.8774" transform="rotate(-1.00424 94.8044 82.4836)" fill="#DDF2DD" fill-opacity="0.937255"/>
<path d="M122.885 81.9914C122.907 83.3016 122.234 84.6196 120.872 85.8895C119.509 87.1593 117.498 88.3394 114.962 89.3555C109.894 91.3865 102.834 92.7219 94.9863 92.8594C87.1389 92.997 80.0357 91.9099 74.8997 90.0578C72.33 89.1311 70.2786 88.0222 68.8724 86.801C67.4661 85.5797 66.7473 84.286 66.7243 82.9758C66.7014 81.6656 67.3744 80.3475 68.737 79.0776C70.0995 77.8079 72.1108 76.6278 74.6465 75.6116C79.7144 73.5807 86.7752 72.2453 94.6225 72.1077C102.47 71.9702 109.573 73.0573 114.709 74.9093C117.279 75.836 119.33 76.9449 120.736 78.1661C122.143 79.3875 122.862 80.6811 122.885 81.9914Z" stroke="#BCC9BC" stroke-opacity="0.996078"/>
<path d="M24.7777 77.5621L55.7106 65.6677L60.3204 66.5329L80.788 98.3385L92.0159 98.1417L70.0752 69.673L66.3867 63.1155L60.1878 58.9672L53.0428 59.0924L22.1347 72.4053L24.7777 77.5621Z" fill="#FFA5A5" fill-opacity="0.75" stroke="#FFA5A5"/>
<ellipse cx="95.6664" cy="131.661" rx="28.5844" ry="10.8774" transform="rotate(-1.00424 95.6664 131.661)" fill="#DDF2DD" fill-opacity="0.937255"/>
<path d="M123.747 131.169C123.769 132.479 123.096 133.797 121.734 135.067C120.371 136.337 118.36 137.517 115.824 138.533C110.756 140.564 103.696 141.899 95.8483 142.037C88.0009 142.174 80.8977 141.087 75.7617 139.235C73.192 138.309 71.1406 137.2 69.7344 135.978C68.3281 134.757 67.6093 133.463 67.5863 132.153C67.5634 130.843 68.2364 129.525 69.599 128.255C70.9615 126.985 72.9728 125.805 75.5085 124.789C80.5764 122.758 87.6372 121.423 95.4845 121.285C103.332 121.148 110.435 122.235 115.571 124.087C118.141 125.013 120.192 126.122 121.598 127.344C123.005 128.565 123.724 129.859 123.747 131.169Z" stroke="#BCC9BC" stroke-opacity="0.996078"/>
<path fill-rule="evenodd" clip-rule="evenodd" d="M122.225 102.271C119.633 99.6428 107.51 95.978 94.0049 96.2148C80.5 96.4515 70.1506 100.51 68.0205 103.221L67.6003 103.228L68.0595 129.424L68.2388 129.421C68.1278 129.85 68.0746 130.285 68.0823 130.726C68.1922 136.993 80.62 141.858 95.8405 141.591C111.061 141.324 123.311 136.027 123.201 129.759C123.193 129.319 123.125 128.886 122.999 128.461L123.178 128.458L122.736 103.218C122.736 103.216 122.736 103.214 122.736 103.212C122.736 103.211 122.736 103.209 122.736 103.207L122.719 102.262L122.225 102.271Z" fill="#E8F177" fill-opacity="0.937255"/>
<rect width="7.57565" height="12.8488" rx="2" transform="matrix(0.803806 0.601309 -0.697071 0.711603 79.4133 113.77)" fill="#F4F2F2" fill-opacity="0.97"/>
<path d="M83.9626 118.319L76.5667 125.738C76.2237 126.082 76.4941 126.671 76.9809 126.639C77.1124 126.63 77.2356 126.573 77.3263 126.478L84.5623 118.903C84.643 118.818 84.684 118.704 84.6756 118.587C84.6496 118.23 84.2146 118.066 83.9626 118.319Z" fill="#ECEBEB" fill-opacity="0.9" stroke="#ECEBEB" stroke-opacity="0.8"/>
<rect width="7.57041" height="12.8441" rx="2" transform="matrix(0.476092 0.850493 -0.945907 0.394281 86.7616 99.4841)" fill="#F4F2F2" fill-opacity="0.97"/>
<path d="M88.9461 105.351L78.9675 109.414C78.5061 109.602 78.5065 110.233 78.9681 110.386C79.0951 110.428 79.2357 110.421 79.3616 110.367L89.2572 106.103C89.3664 106.056 89.4523 105.968 89.4942 105.86C89.6245 105.523 89.2885 105.211 88.9461 105.351Z" fill="#ECEBEB" fill-opacity="0.9" stroke="#ECEBEB" stroke-opacity="0.8"/>
<rect width="7.55224" height="12.8276" rx="2" transform="matrix(1.00694 0.22966 -0.307871 0.918787 96.3176 99.3152)" fill="#F4F2F2" fill-opacity="0.97"/>
<path d="M102.503 101.703L99.1782 111.329C99.0264 111.769 99.5317 112.149 99.9688 111.925C100.096 111.859 100.191 111.75 100.233 111.621L103.336 101.933C103.369 101.83 103.356 101.719 103.3 101.626C103.116 101.317 102.62 101.365 102.503 101.703Z" fill="#ECEBEB" fill-opacity="0.9" stroke="#ECEBEB" stroke-opacity="0.8"/>
<rect width="7.55297" height="12.8282" rx="2" transform="matrix(0.806219 0.603115 -0.698191 0.712746 114.101 112.216)" fill="#F4F2F2" fill-opacity="0.97"/>
<path d="M118.609 116.806L111.204 124.235C110.866 124.574 111.149 125.119 111.647 125.086C111.792 125.077 111.927 125.015 112.023 124.914L119.256 117.342C119.333 117.262 119.372 117.156 119.365 117.049C119.339 116.697 118.869 116.545 118.609 116.806Z" fill="#ECEBEB" fill-opacity="0.9" stroke="#ECEBEB" stroke-opacity="0.8"/>
<path d="M123.291 105.162C123.31 106.247 122.665 107.373 121.294 108.485C119.93 109.592 117.914 110.624 115.372 111.515C110.292 113.295 103.221 114.473 95.3676 114.611C87.5139 114.749 80.4059 113.819 75.2674 112.218C72.6955 111.417 70.6447 110.456 69.2422 109.397C67.8334 108.335 67.1495 107.231 67.1305 106.146C67.1114 105.061 67.7563 103.934 69.1269 102.823C70.4915 101.716 72.5073 100.684 75.0496 99.7926C80.1288 98.0125 87.1999 96.8341 95.0535 96.6964C102.907 96.5588 110.015 97.4886 115.154 99.0896C117.726 99.8909 119.776 100.852 121.179 101.91C122.588 102.973 123.272 104.076 123.291 105.162Z" stroke="#BCC9BC" stroke-opacity="0.996078"/>
</g>
<g filter="url(#filter3_d_9_58)">
<rect x="86.3226" y="122.838" width="57.1688" height="52.0226" transform="rotate(-1.00424 86.3226 122.838)" fill="#D9F2D9" fill-opacity="0.984314"/>
<rect x="86.8313" y="123.329" width="56.1688" height="51.0226" transform="rotate(-1.00424 86.8313 123.329)" stroke="#A1A2A1" stroke-opacity="0.5"/>
<ellipse cx="114.944" cy="124.701" rx="28.5844" ry="10.8774" transform="rotate(-1.00424 114.944 124.701)" fill="#DDF2DD" fill-opacity="0.937255"/>
<path d="M143.024 124.209C143.047 125.519 142.374 126.837 141.012 128.107C139.649 129.377 137.638 130.557 135.102 131.573C130.034 133.604 122.973 134.939 115.126 135.077C107.279 135.214 100.175 134.127 95.0394 132.275C92.4696 131.349 90.4183 130.24 89.0121 129.018C87.6058 127.797 86.887 126.503 86.864 125.193C86.841 123.883 87.5141 122.565 88.8767 121.295C90.2392 120.025 92.2505 118.845 94.7862 117.829C99.8541 115.798 106.915 114.463 114.762 114.325C122.61 114.188 129.713 115.275 134.849 117.127C137.419 118.053 139.47 119.162 140.876 120.384C142.282 121.605 143.001 122.899 143.024 124.209Z" stroke="#BCC9BC" stroke-opacity="0.996078"/>
<ellipse cx="115.806" cy="173.878" rx="28.5844" ry="10.8774" transform="rotate(-1.00424 115.806 173.878)" fill="#DDF2DD" fill-opacity="0.937255"/>
<path d="M143.886 173.386C143.909 174.696 143.236 176.015 141.874 177.284C140.511 178.554 138.5 179.734 135.964 180.75C130.896 182.781 123.835 184.117 115.988 184.254C108.141 184.392 101.037 183.305 95.9014 181.453C93.3317 180.526 91.2803 179.417 89.8741 178.196C88.4678 176.975 87.749 175.681 87.726 174.371C87.7031 173.06 88.3761 171.742 89.7387 170.473C91.1012 169.203 93.1125 168.023 95.6482 167.006C100.716 164.976 107.777 163.64 115.624 163.503C123.472 163.365 130.575 164.452 135.711 166.304C138.281 167.231 140.332 168.34 141.738 169.561C143.144 170.782 143.863 172.076 143.886 173.386Z" stroke="#BCC9BC" stroke-opacity="0.996078"/>
<path fill-rule="evenodd" clip-rule="evenodd" d="M142.365 144.488C139.772 141.86 127.649 138.195 114.144 138.432C100.64 138.669 90.2902 142.728 88.1601 145.439L87.7399 145.446L88.1991 171.641L88.3784 171.638C88.2675 172.067 88.2142 172.503 88.2219 172.943C88.3318 179.211 100.76 184.075 115.98 183.809C131.201 183.542 143.45 178.244 143.341 171.977C143.333 171.537 143.264 171.103 143.138 170.678L143.318 170.675L142.875 145.434C142.875 145.433 142.875 145.431 142.875 145.43C142.875 145.428 142.875 145.427 142.875 145.426L142.859 144.48L142.365 144.488Z" fill="#E8F177" fill-opacity="0.937255"/>
<rect width="7.57565" height="12.8488" rx="2" transform="matrix(0.803806 0.601309 -0.697071 0.711603 99.5529 155.987)" fill="#F4F2F2" fill-opacity="0.97"/>
<path d="M104.102 160.536L96.7064 167.956C96.3634 168.3 96.6338 168.888 97.1205 168.856C97.2521 168.848 97.3753 168.791 97.466 168.696L104.702 161.12C104.783 161.036 104.824 160.921 104.815 160.804C104.789 160.447 104.354 160.283 104.102 160.536Z" fill="#ECEBEB" fill-opacity="0.9" stroke="#ECEBEB" stroke-opacity="0.8"/>
<rect width="7.57041" height="12.8441" rx="2" transform="matrix(0.476092 0.850493 -0.945907 0.394281 106.901 141.702)" fill="#F4F2F2" fill-opacity="0.97"/>
<path d="M109.086 147.568L99.1072 151.631C98.6458 151.819 98.6462 152.451 99.1078 152.603C99.2348 152.645 99.3753 152.638 99.5012 152.584L109.397 148.321C109.506 148.274 109.592 148.185 109.634 148.077C109.764 147.741 109.428 147.429 109.086 147.568Z" fill="#ECEBEB" fill-opacity="0.9" stroke="#ECEBEB" stroke-opacity="0.8"/>
<rect width="7.55224" height="12.8276" rx="2" transform="matrix(1.00694 0.22966 -0.307871 0.918787 116.457 141.533)" fill="#F4F2F2" fill-opacity="0.97"/>
<path d="M122.643 143.92L119.318 153.547C119.166 153.986 119.671 154.367 120.108 154.142C120.236 154.077 120.331 153.967 120.372 153.838L123.476 144.15C123.509 144.047 123.496 143.937 123.44 143.843C123.256 143.535 122.76 143.583 122.643 143.92Z" fill="#ECEBEB" fill-opacity="0.9" stroke="#ECEBEB" stroke-opacity="0.8"/>
<rect width="7.55297" height="12.8282" rx="2" transform="matrix(0.806219 0.603115 -0.698191 0.712746 134.241 154.433)" fill="#F4F2F2" fill-opacity="0.97"/>
<path d="M138.749 159.023L131.344 166.452C131.006 166.791 131.289 167.336 131.786 167.304C131.931 167.294 132.067 167.233 132.163 167.132L139.396 159.56C139.473 159.479 139.512 159.374 139.504 159.267C139.479 158.914 139.008 158.763 138.749 159.023Z" fill="#ECEBEB" fill-opacity="0.9" stroke="#ECEBEB" stroke-opacity="0.8"/>
<path d="M143.43 147.379C143.449 148.464 142.805 149.591 141.434 150.702C140.069 151.809 138.053 152.841 135.511 153.732C130.432 155.512 123.361 156.691 115.507 156.828C107.654 156.966 100.546 156.036 95.4071 154.435C92.8351 153.634 90.7844 152.673 89.3818 151.615C87.9731 150.552 87.2892 149.449 87.2701 148.363C87.2511 147.278 87.896 146.152 89.2666 145.04C90.6312 143.933 92.647 142.901 95.1893 142.01C100.268 140.23 107.34 139.052 115.193 138.914C123.047 138.776 130.155 139.706 135.293 141.307C137.865 142.108 139.916 143.069 141.319 144.128C142.727 145.19 143.411 146.294 143.43 147.379Z" stroke="#BCC9BC" stroke-opacity="0.996078"/>
</g>
<g filter="url(#filter4_d_9_58)">
<path d="M185.89 180.641C185.101 180.688 184.429 180.852 183.876 181.133C183.322 181.414 183.057 181.741 183.082 182.112C182.671 183.875 182.752 189.064 183.325 197.68C183.895 206.256 184.193 211.06 184.218 212.093C185.133 213.28 186.468 213.821 188.223 213.717C191.337 213.531 193.576 211.784 194.941 208.474C196.304 205.123 196.823 201.015 196.499 196.151C196.173 191.245 195.146 187.394 193.419 184.6C191.69 181.764 189.18 180.445 185.89 180.641ZM176.035 222.141C175.372 222.098 175.031 221.932 175.011 221.644L175.159 220.89C176.108 218.598 176.123 210.547 175.204 196.736C174.765 190.14 174.294 186.029 173.789 184.404C173.329 182.776 172.974 181.741 172.724 181.301L172.354 180.702C172.168 180.548 172.065 180.326 172.046 180.037C172.024 179.708 172.269 179.424 172.782 179.187C176.118 177.705 180.571 176.798 186.141 176.466C197.852 175.768 204.173 182.428 205.106 196.445C205.47 201.928 204.773 206.998 203.013 211.656C202.295 213.437 201.43 215 200.418 216.343C199.404 217.645 198.027 218.782 196.286 219.755C194.587 220.684 192.662 221.213 190.513 221.341C190.072 221.326 189.497 221.298 188.79 221.257C188.127 221.214 187.097 220.965 185.702 220.51C184.351 220.053 183.405 219.405 182.865 218.568C181.382 220.767 179.105 221.959 176.035 222.141Z" fill="white"/>
<path d="M183.876 181.133L183.387 180.282L183.387 180.282L183.876 181.133ZM183.082 182.112L184.088 182.318L184.119 182.186L184.11 182.05L183.082 182.112ZM184.218 212.093L183.188 212.116L183.195 212.417L183.384 212.662L184.218 212.093ZM194.941 208.474L195.902 208.823L195.903 208.819L194.941 208.474ZM193.419 184.6L192.526 185.082L192.529 185.087L193.419 184.6ZM176.035 222.141L175.963 223.107L176.031 223.112L176.099 223.108L176.035 222.141ZM175.011 221.644L173.998 221.469L173.975 221.586L173.983 221.705L175.011 221.644ZM175.159 220.89L174.199 220.539L174.164 220.625L174.146 220.715L175.159 220.89ZM173.789 184.404L172.794 184.653L172.797 184.664L172.801 184.676L173.789 184.404ZM172.724 181.301L173.633 180.845L173.625 180.829L173.615 180.814L172.724 181.301ZM172.354 180.702L173.245 180.215L173.161 180.079L173.036 179.975L172.354 180.702ZM172.782 179.187L172.342 178.311L172.335 178.315L172.327 178.318L172.782 179.187ZM203.013 211.656L203.976 211.999L203.98 211.989L203.984 211.979L203.013 211.656ZM200.418 216.343L201.249 216.914L201.254 216.908L201.259 216.902L200.418 216.343ZM196.286 219.755L196.803 220.592L196.812 220.587L196.286 219.755ZM190.513 221.341L190.475 222.309L190.526 222.31L190.577 222.307L190.513 221.341ZM188.79 221.257L188.718 222.223L188.726 222.224L188.79 221.257ZM185.702 220.51L185.352 221.421L185.364 221.425L185.702 220.51ZM182.865 218.568L183.746 218.066L182.885 216.731L181.995 218.05L182.865 218.568ZM185.826 179.674C184.925 179.728 184.101 179.919 183.387 180.282L184.365 181.985C184.758 181.785 185.277 181.647 185.955 181.607L185.826 179.674ZM183.387 180.282C182.71 180.625 181.991 181.229 182.054 182.173L184.11 182.05C184.112 182.077 184.108 182.109 184.098 182.139C184.088 182.168 184.077 182.18 184.081 182.175C184.094 182.159 184.164 182.087 184.365 181.985L183.387 180.282ZM182.076 181.905C181.841 182.913 181.764 184.762 181.805 187.341C181.845 189.958 182.01 193.427 182.297 197.742L184.353 197.619C184.067 193.318 183.904 189.884 183.864 187.311C183.824 184.7 183.912 183.073 184.088 182.318L182.076 181.905ZM182.297 197.742C182.868 206.332 183.164 211.107 183.188 212.116L185.247 212.07C185.222 211.012 184.922 206.179 184.353 197.619L182.297 197.742ZM183.384 212.662C184.535 214.155 186.233 214.805 188.287 214.683L188.158 212.751C186.704 212.837 185.731 212.405 185.052 211.524L183.384 212.662ZM188.287 214.683C190.045 214.578 191.595 214.026 192.895 213.012C194.185 212.006 195.174 210.588 195.902 208.823L193.981 208.125C193.344 209.67 192.531 210.781 191.58 211.522C190.641 212.255 189.514 212.67 188.158 212.751L188.287 214.683ZM195.903 208.819C197.334 205.301 197.857 201.045 197.527 196.089L195.471 196.212C195.789 200.985 195.274 204.945 193.979 208.129L195.903 208.819ZM197.527 196.089C197.196 191.104 196.148 187.088 194.31 184.113L192.529 185.087C194.144 187.701 195.15 191.385 195.471 196.212L197.527 196.089ZM194.313 184.118C193.375 182.58 192.192 181.4 190.743 180.638C189.291 179.875 187.639 179.566 185.826 179.674L185.955 181.607C187.431 181.519 188.679 181.772 189.736 182.329C190.798 182.887 191.734 183.785 192.526 185.082L194.313 184.118ZM176.107 221.176C175.979 221.167 175.885 221.154 175.822 221.141C175.756 221.127 175.74 221.117 175.755 221.124C175.772 221.132 175.842 221.17 175.912 221.258C175.989 221.355 176.032 221.471 176.039 221.582L173.983 221.705C174.021 222.276 174.409 222.651 174.808 222.845C175.163 223.017 175.579 223.082 175.963 223.107L176.107 221.176ZM176.024 221.819L176.172 221.065L174.146 220.715L173.998 221.469L176.024 221.819ZM176.119 221.24C176.413 220.531 176.6 219.481 176.722 218.175C176.846 216.844 176.908 215.161 176.912 213.134C176.919 209.078 176.692 203.589 176.232 196.675L174.176 196.798C174.635 203.695 174.859 209.137 174.852 213.132C174.848 215.13 174.786 216.753 174.67 218.008C174.55 219.287 174.38 220.103 174.199 220.539L176.119 221.24ZM176.232 196.675C176.012 193.37 175.783 190.677 175.545 188.601C175.31 186.547 175.059 185.036 174.778 184.132L172.801 184.676C173.024 185.397 173.261 186.754 173.497 188.811C173.731 190.846 173.957 193.506 174.176 196.798L176.232 196.675ZM174.785 184.154C174.332 182.554 173.949 181.403 173.633 180.845L171.815 181.756C171.998 182.079 172.325 182.997 172.794 184.653L174.785 184.154ZM173.615 180.814L173.245 180.215L171.463 181.189L171.834 181.788L173.615 180.814ZM173.036 179.975C173.046 179.984 173.056 179.994 173.065 180.006C173.074 180.017 173.079 180.027 173.081 180.032C173.086 180.043 173.077 180.029 173.074 179.976L171.018 180.099C171.05 180.579 171.235 181.066 171.673 181.429L173.036 179.975ZM173.074 179.976C173.077 180.018 173.071 180.066 173.054 180.112C173.038 180.156 173.018 180.181 173.012 180.188C173.008 180.193 173.017 180.18 173.055 180.155C173.093 180.129 173.151 180.095 173.236 180.055L172.327 178.318C171.701 178.608 170.956 179.165 171.018 180.099L173.074 179.976ZM173.221 180.062C176.395 178.652 180.705 177.76 186.205 177.432L186.077 175.5C180.437 175.836 175.841 176.757 172.342 178.311L173.221 180.062ZM186.205 177.432C191.827 177.097 195.995 178.526 198.896 181.582C201.838 184.681 203.618 189.598 204.078 196.506L206.134 196.384C205.661 189.275 203.814 183.854 200.434 180.293C197.014 176.689 192.166 175.137 186.077 175.5L186.205 177.432ZM204.078 196.506C204.435 201.873 203.751 206.811 202.042 211.333L203.984 211.979C205.795 207.185 206.506 201.983 206.134 196.384L204.078 196.506ZM202.05 211.314C201.358 213.03 200.532 214.517 199.578 215.784L201.259 216.902C202.328 215.482 203.232 213.845 203.976 211.999L202.05 211.314ZM199.588 215.771C198.669 216.951 197.403 218.005 195.76 218.923L196.812 220.587C198.651 219.56 200.14 218.339 201.249 216.914L199.588 215.771ZM195.769 218.919C194.22 219.765 192.454 220.255 190.449 220.375L190.577 222.307C192.871 222.171 194.953 221.604 196.803 220.592L195.769 218.919ZM190.551 220.373C190.122 220.359 189.557 220.331 188.854 220.291L188.726 222.224C189.438 222.265 190.021 222.293 190.475 222.309L190.551 220.373ZM188.862 220.292C188.346 220.258 187.428 220.048 186.04 219.595L185.364 221.425C186.767 221.882 187.908 222.17 188.718 222.223L188.862 220.292ZM186.052 219.599C184.839 219.188 184.125 218.653 183.746 218.066L181.984 219.071C182.685 220.158 183.863 220.917 185.352 221.421L186.052 219.599ZM181.995 218.05C180.71 219.956 178.754 221.009 175.971 221.175L176.099 223.108C179.457 222.908 182.054 221.579 183.735 219.086L181.995 218.05Z" fill="#EA7AFC"/>
<path d="M228.84 195.678L229.841 197.665C230.114 198.413 229.505 199.021 228.014 199.491C224.992 200.443 223.086 199.838 222.297 197.674C222.111 197.163 221.998 196.409 221.958 195.413C221.918 194.417 221.776 193.585 221.532 192.916C221.289 192.247 220.874 191.742 220.288 191.401C219.687 191.02 218.994 190.953 218.207 191.201C217.42 191.449 216.838 191.94 216.459 192.673C216.107 193.354 215.969 193.989 216.046 194.579L216.098 195.484C216.294 196.781 216.916 198.866 217.962 201.737C218.994 204.57 219.853 206.799 220.538 208.425C221.209 210.011 221.7 211.106 222.012 211.71C222.31 212.274 222.481 212.615 222.524 212.733C222.882 213.716 222.527 214.705 221.459 215.7C220.404 216.733 219.236 217.453 217.952 217.857C216.668 218.261 215.933 218.208 215.747 217.697L215.391 215.77C214.723 212.165 213.386 207.609 211.379 202.102C209.371 196.595 207.802 192.923 206.671 191.086C206.499 190.614 206.848 190.241 207.718 189.967C209.954 189.263 211.709 189.521 212.985 190.742C213.084 190.886 213.175 190.945 213.257 190.919C213.382 190.88 213.607 190.611 213.933 190.114C214.913 188.621 216.334 187.581 218.197 186.994C219.356 186.629 220.595 186.48 221.912 186.547C224.601 186.708 226.47 188.225 227.516 191.096L228.84 195.678Z" fill="white"/>
<path d="M228.84 195.678L227.85 195.923L227.874 196.008L227.914 196.087L228.84 195.678ZM229.841 197.665L230.812 197.359L230.793 197.307L230.767 197.257L229.841 197.665ZM221.958 195.413L222.984 195.389L222.984 195.389L221.958 195.413ZM220.288 191.401L219.723 192.205L219.74 192.216L219.757 192.226L220.288 191.401ZM216.459 192.673L215.535 192.237L215.535 192.237L216.459 192.673ZM216.046 194.579L217.071 194.538L217.069 194.506L217.065 194.473L216.046 194.579ZM216.098 195.484L215.073 195.524L215.075 195.567L215.082 195.609L216.098 195.484ZM220.538 208.425L219.585 208.774L219.585 208.775L220.538 208.425ZM222.012 211.71L221.091 212.128L221.095 212.135L222.012 211.71ZM221.459 215.7L220.733 215.003L220.724 215.012L220.715 215.021L221.459 215.7ZM215.747 217.697L214.736 217.852L214.75 217.929L214.777 218.002L215.747 217.697ZM215.391 215.77L216.403 215.615L216.402 215.614L215.391 215.77ZM206.671 191.086L205.701 191.392L205.734 191.484L205.786 191.567L206.671 191.086ZM212.985 190.742L213.845 190.221L213.786 190.136L213.711 190.063L212.985 190.742ZM213.933 190.114L213.059 189.594L213.059 189.594L213.933 190.114ZM221.912 186.547L221.963 185.578L221.954 185.577L221.912 186.547ZM227.516 191.096L228.507 190.852L228.498 190.821L228.487 190.79L227.516 191.096ZM227.914 196.087L228.915 198.074L230.767 197.257L229.766 195.27L227.914 196.087ZM228.871 197.971C228.884 198.006 228.873 197.997 228.88 197.966C228.887 197.939 228.894 197.955 228.839 198.01C228.705 198.143 228.37 198.351 227.678 198.569L228.35 200.413C229.149 200.161 229.863 199.83 230.339 199.355C230.588 199.106 230.789 198.799 230.88 198.434C230.972 198.064 230.935 197.698 230.812 197.359L228.871 197.971ZM227.678 198.569C226.261 199.016 225.281 199.036 224.634 198.831C224.052 198.646 223.581 198.227 223.268 197.369L221.327 197.98C221.803 199.285 222.679 200.251 224.002 200.671C225.261 201.071 226.745 200.919 228.35 200.413L227.678 198.569ZM223.268 197.369C223.132 196.995 223.023 196.356 222.984 195.389L220.932 195.437C220.973 196.462 221.09 197.331 221.327 197.98L223.268 197.369ZM222.984 195.389C222.942 194.333 222.79 193.399 222.503 192.61L220.562 193.222C220.762 193.771 220.894 194.501 220.932 195.437L222.984 195.389ZM222.503 192.61C222.188 191.746 221.629 191.048 220.818 190.575L219.757 192.226C220.119 192.436 220.389 192.748 220.562 193.222L222.503 192.61ZM220.852 190.596C219.941 190.018 218.905 189.953 217.871 190.279L218.543 192.123C219.083 191.953 219.434 192.021 219.723 192.205L220.852 190.596ZM217.871 190.279C216.815 190.612 216.027 191.284 215.535 192.237L217.382 193.109C217.648 192.595 218.026 192.286 218.543 192.123L217.871 190.279ZM215.535 192.237C215.121 193.039 214.92 193.863 215.026 194.685L217.065 194.473C217.018 194.116 217.093 193.669 217.382 193.109L215.535 192.237ZM215.02 194.62L215.073 195.524L217.124 195.443L217.071 194.538L215.02 194.62ZM215.082 195.609C215.293 197.007 215.944 199.169 216.992 202.043L218.933 201.432C217.887 198.563 217.296 196.556 217.115 195.358L215.082 195.609ZM216.992 202.043C218.026 204.881 218.891 207.127 219.585 208.774L221.491 208.076C220.815 206.47 219.963 204.258 218.933 201.432L216.992 202.043ZM219.585 208.775C220.255 210.36 220.76 211.487 221.091 212.128L222.934 211.292C222.641 210.726 222.162 209.663 221.491 208.074L219.585 208.775ZM221.095 212.135C221.242 212.414 221.356 212.633 221.436 212.794C221.526 212.973 221.553 213.039 221.553 213.039L223.494 212.427C223.423 212.232 223.212 211.818 222.93 211.285L221.095 212.135ZM221.553 213.039C221.735 213.536 221.645 214.154 220.733 215.003L222.184 216.396C223.409 215.256 224.03 213.896 223.494 212.427L221.553 213.039ZM220.715 215.021C219.759 215.958 218.726 216.585 217.616 216.935L218.288 218.779C219.745 218.32 221.049 217.509 222.202 216.379L220.715 215.021ZM217.616 216.935C217.013 217.125 216.664 217.163 216.504 217.152C216.434 217.147 216.468 217.137 216.54 217.181C216.63 217.236 216.692 217.32 216.718 217.391L214.777 218.002C214.896 218.329 215.119 218.611 215.439 218.807C215.742 218.993 216.074 219.067 216.373 219.089C216.947 219.131 217.608 218.993 218.288 218.779L217.616 216.935ZM216.759 217.542L216.403 215.615L214.379 215.925L214.736 217.852L216.759 217.542ZM216.402 215.614C215.721 211.938 214.365 207.327 212.349 201.796L210.408 202.407C212.407 207.89 213.725 212.392 214.379 215.925L216.402 215.614ZM212.349 201.796C210.345 196.298 208.747 192.538 207.557 190.606L205.786 191.567C206.858 193.308 208.398 196.891 210.408 202.407L212.349 201.796ZM207.642 190.781C207.649 190.801 207.666 190.865 207.648 190.951C207.63 191.038 207.589 191.088 207.577 191.101C207.57 191.109 207.591 191.085 207.675 191.04C207.757 190.996 207.88 190.944 208.054 190.889L207.382 189.046C206.886 189.202 206.38 189.43 206.031 189.804C205.616 190.247 205.493 190.822 205.701 191.392L207.642 190.781ZM208.054 190.889C210.055 190.259 211.352 190.551 212.259 191.42L213.711 190.063C212.067 188.491 209.852 188.267 207.382 189.046L208.054 190.889ZM212.125 191.262C212.207 191.381 212.343 191.556 212.553 191.692C212.791 191.847 213.171 191.974 213.593 191.841L212.921 189.997C213.071 189.95 213.231 189.941 213.384 189.97C213.528 189.998 213.636 190.053 213.702 190.096C213.82 190.173 213.862 190.246 213.845 190.221L212.125 191.262ZM213.593 191.841C213.833 191.765 213.998 191.629 214.074 191.562C214.169 191.479 214.254 191.386 214.327 191.298C214.475 191.122 214.636 190.895 214.808 190.634L213.059 189.594C212.904 189.83 212.79 189.986 212.712 190.078C212.673 190.125 212.658 190.137 212.665 190.131C212.669 190.128 212.689 190.111 212.723 190.089C212.754 190.069 212.821 190.028 212.921 189.997L213.593 191.841ZM214.808 190.634C215.656 189.342 216.88 188.437 218.533 187.916L217.861 186.072C215.787 186.726 214.17 187.901 213.059 189.594L214.808 190.634ZM218.533 187.916C219.562 187.592 220.671 187.456 221.87 187.517L221.954 185.577C220.518 185.504 219.151 185.666 217.861 186.072L218.533 187.916ZM221.86 187.517C223.004 187.585 223.923 187.934 224.667 188.539C225.423 189.153 226.065 190.082 226.546 191.402L228.487 190.79C227.921 189.239 227.105 187.974 225.993 187.072C224.87 186.16 223.509 185.67 221.963 185.578L221.86 187.517ZM226.526 191.341L227.85 195.923L229.831 195.434L228.507 190.852L226.526 191.341Z" fill="#EA7AFC"/>
<path d="M231.494 175.396L230.091 176.056C229.064 176.591 228.54 177.174 228.521 177.805C228.511 177.953 228.449 178.057 228.335 178.117C227.84 178.375 227.11 177.706 226.144 176.11C225.156 174.477 224.777 173.315 225.008 172.621C225.278 171.908 226.04 171.224 227.296 170.57C228.59 169.895 229.597 169.656 230.317 169.854C231.015 170.015 231.661 170.585 232.253 171.564C232.846 172.543 233.092 173.322 232.991 173.899C232.868 174.441 232.369 174.94 231.494 175.396ZM243.56 205.254L236.514 192.249C234.691 189.238 233.089 187.377 231.708 186.666C231.26 186.422 230.829 186.289 230.414 186.266C230.142 186.313 229.94 186.227 229.809 186.01C229.413 185.357 229.999 184.216 231.567 182.588C233.134 180.959 234.356 179.917 235.231 179.46C236.144 178.984 236.752 178.954 237.053 179.369C237.492 180.095 238.63 182.222 240.465 185.75C242.317 189.223 244.374 192.827 246.635 196.564C248.897 200.3 250.53 202.502 251.536 203.171C251.76 203.293 251.927 203.444 252.037 203.626C252.322 204.097 251.742 204.71 250.296 205.464C248.85 206.218 247.146 206.629 245.185 206.697C244.694 206.714 244.153 206.233 243.56 205.254Z" fill="white"/>
<path d="M231.494 175.396L231.971 176.265L231.99 176.256L232.009 176.246L231.494 175.396ZM230.091 176.056L229.614 175.187L229.595 175.196L229.576 175.206L230.091 176.056ZM228.521 177.805L229.549 177.889L229.55 177.872L229.551 177.854L228.521 177.805ZM225.008 172.621L224.037 172.279L224.031 172.295L224.025 172.312L225.008 172.621ZM230.317 169.854L230.05 170.784L230.072 170.789L230.094 170.795L230.317 169.854ZM232.991 173.899L233.998 174.123L234.003 174.1L234.007 174.078L232.991 173.899ZM243.56 205.254L242.645 205.678L242.656 205.698L242.668 205.719L243.56 205.254ZM236.514 192.249L237.429 191.824L237.418 191.804L237.406 191.784L236.514 192.249ZM231.708 186.666L231.208 187.502L231.218 187.508L231.23 187.514L231.708 186.666ZM230.414 186.266L230.451 185.299L230.328 185.292L230.208 185.313L230.414 186.266ZM231.567 182.588L232.337 183.247L232.337 183.247L231.567 182.588ZM237.053 179.369L237.945 178.904L237.924 178.869L237.899 178.835L237.053 179.369ZM240.465 185.75L239.542 186.16L239.547 186.169L240.465 185.75ZM251.536 203.171L250.955 203.958L250.994 203.984L251.036 204.007L251.536 203.171ZM245.185 206.697L245.246 207.665L245.246 207.665L245.185 206.697ZM231.017 174.527L229.614 175.187L230.568 176.925L231.971 176.265L231.017 174.527ZM229.576 175.206C228.477 175.779 227.527 176.593 227.492 177.755L229.551 177.854C229.554 177.755 229.65 177.404 230.606 176.906L229.576 175.206ZM227.494 177.72C227.496 177.684 227.509 177.602 227.567 177.504C227.629 177.4 227.721 177.319 227.82 177.267L228.849 178.967C229.325 178.719 229.522 178.286 229.549 177.889L227.494 177.72ZM227.82 177.267C227.987 177.18 228.16 177.196 228.246 177.224C228.294 177.241 228.254 177.239 228.126 177.122C227.87 176.888 227.506 176.421 227.036 175.645L225.252 176.575C225.748 177.394 226.231 178.06 226.707 178.495C226.943 178.712 227.239 178.929 227.594 179.048C227.986 179.18 228.436 179.183 228.849 178.967L227.82 177.267ZM227.036 175.645C226.562 174.862 226.261 174.234 226.103 173.749C225.939 173.245 225.966 173.006 225.991 172.931L224.025 172.312C223.819 172.93 223.92 173.619 224.135 174.278C224.355 174.956 224.737 175.725 225.252 176.575L227.036 175.645ZM225.98 172.964C226.124 172.583 226.617 172.042 227.811 171.42L226.781 169.72C225.463 170.407 224.432 171.234 224.037 172.279L225.98 172.964ZM227.811 171.42C229.074 170.761 229.758 170.704 230.05 170.784L230.584 168.924C229.436 168.609 228.106 169.029 226.781 169.72L227.811 171.42ZM230.094 170.795C230.371 170.858 230.822 171.137 231.362 172.029L233.145 171.099C232.499 170.032 231.659 169.171 230.54 168.913L230.094 170.795ZM231.362 172.029C231.928 172.965 232.016 173.489 231.975 173.721L234.007 174.078C234.169 173.155 233.764 172.122 233.145 171.099L231.362 172.029ZM231.984 173.676C231.953 173.812 231.772 174.132 230.979 174.546L232.009 176.246C232.966 175.747 233.783 175.07 233.998 174.123L231.984 173.676ZM244.475 204.829L237.429 191.824L235.599 192.673L242.645 205.678L244.475 204.829ZM237.406 191.784C236.477 190.25 235.589 188.982 234.74 187.996C233.899 187.018 233.05 186.263 232.186 185.818L231.23 187.514C231.747 187.78 232.39 188.311 233.151 189.195C233.904 190.069 234.728 191.237 235.622 192.714L237.406 191.784ZM232.208 185.83C231.651 185.527 231.061 185.332 230.451 185.299L230.378 187.234C230.596 187.246 230.869 187.318 231.208 187.502L232.208 185.83ZM230.208 185.313C230.223 185.31 230.326 185.297 230.464 185.355C230.606 185.415 230.678 185.507 230.7 185.545L228.917 186.475C229.071 186.73 229.31 186.973 229.654 187.119C229.993 187.263 230.334 187.269 230.621 187.22L230.208 185.313ZM230.7 185.545C230.765 185.652 230.63 185.591 230.881 185.102C231.113 184.651 231.578 184.036 232.337 183.247L230.797 181.928C229.989 182.768 229.377 183.537 229.023 184.227C228.688 184.879 228.457 185.715 228.917 186.475L230.7 185.545ZM232.337 183.247C233.903 181.62 235.029 180.684 235.746 180.31L234.716 178.61C233.683 179.149 232.366 180.298 230.797 181.928L232.337 183.247ZM235.746 180.31C235.939 180.21 236.097 180.143 236.222 180.101C236.349 180.059 236.421 180.049 236.449 180.048C236.474 180.047 236.435 180.053 236.365 180.023C236.288 179.991 236.234 179.94 236.207 179.903L237.899 178.835C237.505 178.292 236.896 178.083 236.293 178.113C235.762 178.139 235.223 178.346 234.716 178.61L235.746 180.31ZM236.161 179.834C236.58 180.526 237.7 182.618 239.542 186.16L241.388 185.341C239.56 181.825 238.405 179.664 237.945 178.904L236.161 179.834ZM239.547 186.169C241.408 189.659 243.474 193.279 245.743 197.029L247.527 196.098C245.274 192.376 243.226 188.787 241.384 185.332L239.547 186.169ZM245.743 197.029C246.882 198.909 247.874 200.423 248.717 201.56C249.535 202.664 250.286 203.513 250.955 203.958L252.117 202.384C251.781 202.16 251.211 201.574 250.397 200.475C249.606 199.409 248.65 197.954 247.527 196.098L245.743 197.029ZM251.036 204.007C251.124 204.055 251.143 204.087 251.145 204.091L252.928 203.161C252.711 202.801 252.396 202.53 252.036 202.335L251.036 204.007ZM251.145 204.091C251.075 203.976 251.065 203.841 251.09 203.745C251.108 203.682 251.125 203.695 251.04 203.785C250.864 203.971 250.477 204.251 249.781 204.614L250.81 206.314C251.56 205.923 252.187 205.52 252.591 205.093C252.985 204.677 253.405 203.948 252.928 203.161L251.145 204.091ZM249.781 204.614C248.496 205.284 246.953 205.665 245.123 205.729L245.246 207.665C247.339 207.593 249.203 207.152 250.81 206.314L249.781 204.614ZM245.123 205.729C245.271 205.724 245.276 205.8 245.109 205.652C244.947 205.508 244.724 205.238 244.452 204.789L242.668 205.719C242.989 206.249 243.333 206.709 243.713 207.046C244.087 207.379 244.608 207.688 245.246 207.665L245.123 205.729Z" fill="#EA7AFC"/>
<path d="M261.226 198.252C258.669 194.369 255.186 190.043 250.777 185.277C246.368 180.51 243.357 177.535 241.745 176.351C241.365 175.941 241.673 175.341 242.667 174.55C244.192 173.338 245.715 173.087 247.234 173.797C247.355 173.865 247.481 173.846 247.614 173.741C247.747 173.636 247.817 173.525 247.825 173.409C247.918 171.582 249.042 169.812 251.197 168.1C253.352 166.387 255.541 165.551 257.765 165.591C259.988 165.632 262.02 166.646 263.859 168.635C264.969 169.835 266.429 171.632 268.241 174.026C270.086 176.394 271.505 178.114 272.498 179.188C274.863 181.745 277.019 183.236 278.965 183.661C279.244 183.713 279.456 183.818 279.602 183.976C279.982 184.386 279.707 184.961 278.779 185.698C274.668 188.966 271.007 188.863 267.795 185.39C266.568 184.065 265.175 181.968 263.615 179.099C262.055 176.231 260.706 174.181 259.567 172.95C257.231 170.425 254.969 170.032 252.781 171.771C251.72 172.614 251.185 173.559 251.176 174.607C251.201 175.628 251.545 176.56 252.208 177.402C252.843 178.212 254.153 179.691 256.138 181.837C259.175 185.12 261.933 187.885 264.414 190.131L265.477 191.094C266.295 191.978 266.309 193.144 265.52 194.593C264.794 196.046 263.983 197.129 263.088 197.84C262.226 198.525 261.605 198.663 261.226 198.252Z" fill="white"/>
<path d="M261.226 198.252L260.347 198.74L260.392 198.809L260.449 198.87L261.226 198.252ZM241.745 176.351L240.968 176.969L241.036 177.042L241.117 177.102L241.745 176.351ZM247.234 173.797L247.755 172.977L247.717 172.956L247.679 172.937L247.234 173.797ZM247.825 173.409L248.858 173.496L248.859 173.488L248.859 173.48L247.825 173.409ZM257.765 165.591L257.772 166.555L257.772 166.555L257.765 165.591ZM268.241 174.026L267.4 174.567L267.404 174.572L267.409 174.578L268.241 174.026ZM278.965 183.661L278.754 184.599L278.77 184.602L278.786 184.605L278.965 183.661ZM263.615 179.099L264.536 178.682L264.536 178.682L263.615 179.099ZM251.176 174.607L250.141 174.574L250.141 174.588L250.141 174.603L251.176 174.607ZM252.208 177.402L253.039 176.848L253.037 176.845L252.208 177.402ZM264.414 190.131L265.126 189.449L265.126 189.449L264.414 190.131ZM265.477 191.094L266.254 190.477L266.223 190.443L266.189 190.412L265.477 191.094ZM265.52 194.593L264.594 194.139L264.586 194.153L264.579 194.167L265.52 194.593ZM262.105 197.765C259.509 193.822 255.988 189.453 251.554 184.659L250 185.894C254.384 190.634 257.829 194.915 260.347 198.74L262.105 197.765ZM251.554 184.659C247.161 179.91 244.082 176.855 242.373 175.601L241.117 177.102C242.633 178.214 245.575 181.11 250 185.894L251.554 184.659ZM242.522 175.734C242.569 175.785 242.615 175.871 242.622 175.97C242.628 176.052 242.602 176.077 242.628 176.027C242.69 175.905 242.887 175.66 243.352 175.29L241.983 173.81C241.453 174.231 240.999 174.681 240.754 175.16C240.626 175.41 240.532 175.712 240.556 176.046C240.581 176.398 240.731 176.713 240.968 176.969L242.522 175.734ZM243.352 175.29C244.019 174.759 244.622 174.49 245.16 174.402C245.682 174.316 246.215 174.387 246.789 174.656L247.679 172.937C246.734 172.496 245.746 172.339 244.746 172.504C243.761 172.666 242.841 173.129 241.983 173.81L243.352 175.29ZM246.713 174.616C246.968 174.76 247.279 174.834 247.606 174.786C247.911 174.742 248.141 174.605 248.298 174.481L246.93 173.001C246.954 172.982 247.055 172.908 247.232 172.882C247.433 172.852 247.621 172.901 247.755 172.977L246.713 174.616ZM248.298 174.481C248.551 174.28 248.827 173.956 248.858 173.496L246.791 173.323C246.807 173.094 246.942 172.991 246.93 173.001L248.298 174.481ZM248.859 173.48C248.934 172.013 249.84 170.462 251.882 168.839L250.513 167.36C248.244 169.163 246.902 171.151 246.79 173.338L248.859 173.48ZM251.882 168.839C253.905 167.231 255.864 166.52 257.772 166.555L257.758 164.628C255.219 164.582 252.799 165.543 250.513 167.36L251.882 168.839ZM257.772 166.555C259.623 166.589 261.387 167.42 263.082 169.253L264.636 168.018C262.652 165.873 260.354 164.675 257.758 164.628L257.772 166.555ZM263.082 169.253C264.157 170.415 265.594 172.181 267.4 174.567L269.083 173.485C267.264 171.082 265.78 169.254 264.636 168.018L263.082 169.253ZM267.409 174.578C269.257 176.95 270.697 178.699 271.721 179.805L273.275 178.57C272.313 177.53 270.916 175.837 269.074 173.474L267.409 174.578ZM271.721 179.805C274.13 182.41 276.473 184.1 278.754 184.599L279.176 182.723C277.565 182.371 275.596 181.08 273.275 178.57L271.721 179.805ZM278.786 184.605C278.814 184.61 278.834 184.616 278.847 184.62C278.86 184.624 278.866 184.627 278.866 184.627C278.866 184.627 278.861 184.624 278.852 184.618C278.844 184.612 278.834 184.604 278.825 184.594L280.379 183.358C280.039 182.99 279.589 182.8 279.144 182.716L278.786 184.605ZM278.825 184.594C278.789 184.555 278.744 184.48 278.734 184.385C278.725 184.302 278.75 184.268 278.733 184.303C278.715 184.341 278.667 184.419 278.557 184.539C278.45 184.656 278.299 184.796 278.095 184.958L279.463 186.438C279.963 186.041 280.4 185.604 280.629 185.125C280.749 184.874 280.83 184.574 280.794 184.244C280.758 183.903 280.605 183.602 280.379 183.358L278.825 184.594ZM278.095 184.958C276.138 186.514 274.431 187.15 272.953 187.108C271.508 187.068 270.049 186.371 268.572 184.773L267.018 186.008C268.752 187.883 270.73 188.973 272.946 189.035C275.13 189.096 277.309 188.15 279.463 186.438L278.095 184.958ZM268.572 184.773C267.431 183.54 266.084 181.528 264.536 178.682L262.694 179.516C264.266 182.407 265.706 184.59 267.018 186.008L268.572 184.773ZM264.536 178.682C262.968 175.798 261.571 173.659 260.344 172.333L258.79 173.568C259.84 174.704 261.142 176.664 262.694 179.516L264.536 178.682ZM260.344 172.333C259.099 170.987 257.75 170.069 256.282 169.814C254.766 169.551 253.354 170.031 252.096 171.031L253.465 172.511C254.396 171.771 255.209 171.579 255.955 171.709C256.749 171.847 257.699 172.388 258.79 173.568L260.344 172.333ZM252.096 171.031C250.875 172.002 250.153 173.185 250.141 174.574L252.212 174.64C252.218 173.934 252.565 173.226 253.465 172.511L252.096 171.031ZM250.141 174.603C250.17 175.827 250.588 176.954 251.379 177.959L253.037 176.845C252.502 176.166 252.231 175.43 252.211 174.611L250.141 174.603ZM251.377 177.956C252.041 178.804 253.379 180.312 255.361 182.455L256.915 181.22C254.926 179.069 253.644 177.621 253.039 176.848L251.377 177.956ZM255.361 182.455C258.412 185.753 261.193 188.541 263.702 190.813L265.126 189.449C262.674 187.229 259.938 184.488 256.915 181.22L255.361 182.455ZM263.702 190.813L264.765 191.776L266.189 190.412L265.126 189.449L263.702 190.813ZM264.7 191.712C265.121 192.167 265.289 192.862 264.594 194.139L266.446 195.046C267.329 193.426 267.468 191.789 266.254 190.477L264.7 191.712ZM264.579 194.167C263.888 195.551 263.152 196.506 262.404 197.1L263.772 198.58C264.814 197.752 265.7 196.542 266.461 195.018L264.579 194.167ZM262.404 197.1C262.218 197.248 262.064 197.351 261.939 197.42C261.813 197.49 261.738 197.513 261.711 197.519C261.689 197.524 261.736 197.51 261.823 197.533C261.916 197.559 261.978 197.608 262.003 197.635L260.449 198.87C260.663 199.102 260.945 199.288 261.289 199.382C261.625 199.473 261.953 199.459 262.241 199.395C262.785 199.275 263.302 198.954 263.772 198.58L262.404 197.1Z" fill="#EA7AFC"/>
<path d="M275.487 154.628C275.531 154.856 275.645 155.031 275.827 155.151C275.973 155.246 276.347 155.045 276.95 154.545C277.579 154.013 278.5 153.598 279.715 153.302C280.931 153.006 282.061 152.928 283.106 153.068C285.134 153.357 286.739 153.84 287.92 154.518L288.669 154.936C293.063 157.577 296.526 158.785 299.059 158.559C299.442 158.562 299.687 158.599 299.797 158.671C300.198 158.935 300.043 159.53 299.332 160.456C297.198 163.235 295.201 164.585 293.341 164.507C292.526 164.568 290.787 163.723 288.125 161.971L286.758 161.072C283.366 158.841 280.722 157.674 278.825 157.571C277.901 157.56 277.21 157.853 276.753 158.448C276.321 159.011 276.429 159.978 277.077 161.35C277.688 162.699 278.377 163.625 279.143 164.128C282.206 166.143 284.39 167.481 285.695 168.14C287 168.799 287.67 169.141 287.707 169.165C288.764 169.861 289.077 171.062 288.644 172.769C288.237 174.443 287.589 175.859 286.7 177.017C286.37 177.447 285.913 177.47 285.33 177.086L285.111 176.942C281.236 173.198 274.466 168.147 264.803 161.79C261.63 159.703 258.899 158.006 256.61 156.699L255.44 156.078C254.368 155.473 253.34 155.095 252.357 154.946C251.399 154.764 250.696 154.75 250.249 154.904L249.671 155.121C249.347 155.257 249.094 155.265 248.912 155.145C248.328 154.761 248.281 153.535 248.771 151.467C249.261 149.399 249.95 147.787 250.839 146.629C251.282 146.123 251.717 145.986 252.143 146.217C253.729 147.011 256.801 148.908 261.359 151.906C265.881 154.881 269.415 157.355 271.961 159.329C272.398 159.617 272.668 159.694 272.769 159.562C272.871 159.43 272.823 159.099 272.625 158.571C272.416 157.985 272.122 157.045 271.744 155.751C271.391 154.423 271.07 152.768 270.781 150.785C270.517 148.77 270.665 147.398 271.224 146.67C271.808 145.909 272.58 145.297 273.54 144.833C274.499 144.369 275.162 144.257 275.526 144.497L275.49 145.295C274.808 147.684 274.807 150.795 275.487 154.628Z" fill="white"/>
<path d="M275.487 154.628L274.459 154.765L274.46 154.772L274.462 154.779L275.487 154.628ZM276.95 154.545L277.655 155.262L277.664 155.255L276.95 154.545ZM279.715 153.302L279.431 152.376L279.431 152.376L279.715 153.302ZM283.106 153.068L283.246 152.122L283.237 152.12L283.106 153.068ZM287.92 154.518L287.381 155.328L287.392 155.334L287.92 154.518ZM288.669 154.936L289.228 154.137L289.213 154.128L289.197 154.119L288.669 154.936ZM299.059 158.559L299.047 157.602L298.993 157.601L298.939 157.606L299.059 158.559ZM293.341 164.507L293.369 163.55L293.303 163.547L293.237 163.552L293.341 164.507ZM278.825 157.571L278.867 156.615L278.843 156.614L278.819 156.614L278.825 157.571ZM277.077 161.35L278.037 160.996L278.034 160.989L278.031 160.983L277.077 161.35ZM285.695 168.14L285.207 168.977L285.207 168.977L285.695 168.14ZM288.644 172.769L287.63 172.535L287.628 172.543L288.644 172.769ZM285.111 176.942L284.363 177.596L284.433 177.663L284.516 177.718L285.111 176.942ZM256.61 156.699L257.147 155.887L257.132 155.879L257.117 155.871L256.61 156.699ZM255.44 156.078L254.907 156.892L254.919 156.899L254.932 156.906L255.44 156.078ZM252.357 154.946L252.165 155.884L252.186 155.888L252.207 155.891L252.357 154.946ZM250.249 154.904L249.868 154.006L249.854 154.011L249.84 154.016L250.249 154.904ZM249.671 155.121L249.261 154.233L249.243 154.24L249.224 154.248L249.671 155.121ZM248.771 151.467L249.789 151.688L248.771 151.467ZM250.839 146.629L250.023 146.019L250.003 146.042L249.985 146.067L250.839 146.629ZM252.143 146.217L251.628 147.04L251.643 147.048L251.659 147.056L252.143 146.217ZM271.961 159.329L271.298 160.056L271.331 160.081L271.365 160.104L271.961 159.329ZM272.625 158.571L271.636 158.854L271.638 158.86L271.641 158.867L272.625 158.571ZM271.744 155.751L270.732 155.961L270.735 155.972L270.738 155.983L271.744 155.751ZM270.781 150.785L269.747 150.882L269.749 150.895L270.781 150.785ZM273.54 144.833L274.038 145.683L274.038 145.683L273.54 144.833ZM275.526 144.497L276.567 144.555L276.591 144.03L276.122 143.721L275.526 144.497ZM275.49 145.295L276.498 145.554L276.526 145.455L276.531 145.353L275.49 145.295ZM274.462 154.779C274.548 155.222 274.792 155.637 275.232 155.926L276.422 154.375C276.449 154.393 276.476 154.419 276.496 154.45C276.515 154.478 276.515 154.493 276.512 154.477L274.462 154.779ZM275.232 155.926C275.613 156.177 276.015 156.144 276.222 156.102C276.437 156.058 276.621 155.973 276.756 155.9C277.034 155.75 277.339 155.524 277.655 155.262L276.245 153.828C275.959 154.065 275.775 154.19 275.678 154.242C275.626 154.271 275.651 154.248 275.736 154.231C275.813 154.216 276.113 154.172 276.422 154.375L275.232 155.926ZM277.664 155.255C278.128 154.862 278.876 154.502 280 154.228L279.431 152.376C278.124 152.694 277.03 153.163 276.236 153.835L277.664 155.255ZM280 154.228C281.107 153.959 282.094 153.898 282.975 154.016L283.237 152.12C282.028 151.958 280.755 152.054 279.431 152.376L280 154.228ZM282.966 154.014C284.915 154.292 286.366 154.745 287.381 155.327L288.459 153.708C287.112 152.935 285.353 152.422 283.246 152.122L282.966 154.014ZM287.392 155.334L288.142 155.752L289.197 154.119L288.448 153.701L287.392 155.334ZM288.111 155.734C292.531 158.391 296.263 159.772 299.179 159.513L298.939 157.606C296.79 157.797 293.595 156.763 289.228 154.137L288.111 155.734ZM299.072 159.517C299.15 159.518 299.215 159.52 299.269 159.523C299.322 159.527 299.359 159.531 299.38 159.534C299.403 159.538 299.399 159.538 299.376 159.531C299.363 159.527 299.342 159.52 299.314 159.508C299.286 159.495 299.246 159.476 299.202 159.446L300.392 157.896C300.134 157.726 299.848 157.67 299.681 157.644C299.483 157.614 299.267 157.603 299.047 157.602L299.072 159.517ZM299.202 159.446C299.103 159.382 299.02 159.276 298.987 159.158C298.959 159.064 298.982 159.023 298.968 159.075C298.937 159.196 298.811 159.459 298.477 159.894L300.186 161.019C300.564 160.527 300.871 160.029 300.995 159.555C301.058 159.31 301.089 159.013 301 158.704C300.905 158.372 300.691 158.092 300.392 157.896L299.202 159.446ZM298.477 159.894C297.445 161.238 296.486 162.183 295.607 162.778C294.732 163.369 293.994 163.576 293.369 163.55L293.313 165.463C294.549 165.516 295.739 165.087 296.861 164.329C297.979 163.573 299.085 162.454 300.186 161.019L298.477 159.894ZM293.237 163.552C293.243 163.552 293.217 163.554 293.149 163.543C293.083 163.533 292.991 163.512 292.869 163.475C292.624 163.399 292.303 163.27 291.899 163.074C291.09 162.681 290.034 162.06 288.72 161.196L287.53 162.747C288.878 163.634 290.022 164.311 290.953 164.764C291.418 164.99 291.851 165.17 292.244 165.29C292.623 165.407 293.04 165.492 293.445 165.461L293.237 163.552ZM288.72 161.196L287.353 160.297L286.162 161.847L287.53 162.747L288.72 161.196ZM287.353 160.297C283.95 158.058 281.089 156.736 278.867 156.615L278.784 158.527C280.355 158.613 282.783 159.624 286.162 161.847L287.353 160.297ZM278.819 156.614C277.617 156.6 276.581 156.997 275.898 157.886L277.607 159.011C277.839 158.709 278.185 158.521 278.832 158.529L278.819 156.614ZM275.898 157.886C275.492 158.415 275.404 159.053 275.474 159.675C275.543 160.296 275.776 160.983 276.123 161.718L278.031 160.983C277.73 160.345 277.585 159.863 277.546 159.516C277.507 159.17 277.582 159.044 277.607 159.011L275.898 157.886ZM276.117 161.704C276.758 163.118 277.543 164.243 278.547 164.904L279.738 163.353C279.211 163.006 278.619 162.279 278.037 160.996L276.117 161.704ZM278.547 164.904C281.609 166.918 283.84 168.287 285.207 168.977L286.183 167.303C284.94 166.675 282.803 165.369 279.738 163.353L278.547 164.904ZM285.207 168.977C285.859 169.307 286.351 169.556 286.685 169.726C286.852 169.812 286.978 169.876 287.063 169.92C287.106 169.942 287.137 169.958 287.156 169.968C287.204 169.994 287.161 169.973 287.112 169.94L288.302 168.39C288.244 168.351 288.171 168.314 288.171 168.314C288.141 168.298 288.103 168.278 288.058 168.255C287.966 168.207 287.836 168.141 287.668 168.055C287.331 167.883 286.836 167.632 286.183 167.303L285.207 168.977ZM287.112 169.94C287.657 170.299 288.021 170.993 287.63 172.535L289.659 173.003C290.133 171.131 289.872 169.422 288.302 168.39L287.112 169.94ZM287.628 172.543C287.244 174.12 286.643 175.416 285.846 176.455L287.555 177.579C288.536 176.302 289.23 174.766 289.661 172.995L287.628 172.543ZM285.846 176.455C285.823 176.484 285.826 176.471 285.864 176.449C285.884 176.437 285.91 176.426 285.942 176.416C285.973 176.407 286.005 176.402 286.033 176.401C286.091 176.398 286.116 176.41 286.095 176.403C286.072 176.395 286.016 176.371 285.925 176.311L284.735 177.862C285.12 178.115 285.62 178.342 286.187 178.313C286.808 178.282 287.262 177.961 287.555 177.579L285.846 176.455ZM285.925 176.311L285.707 176.167L284.516 177.718L284.735 177.862L285.925 176.311ZM285.859 176.289C281.909 172.473 275.07 167.377 265.398 161.014L264.207 162.565C273.862 168.917 280.562 173.923 284.363 177.596L285.859 176.289ZM265.398 161.014C262.214 158.92 259.463 157.21 257.147 155.887L256.073 157.51C258.336 158.802 261.046 160.486 264.207 162.565L265.398 161.014ZM257.117 155.871L255.947 155.251L254.932 156.906L256.102 157.526L257.117 155.871ZM255.972 155.265C254.812 154.609 253.655 154.175 252.507 154.001L252.207 155.891C253.025 156.015 253.923 156.336 254.907 156.892L255.972 155.265ZM252.549 154.009C251.56 153.821 250.606 153.752 249.868 154.006L250.63 155.802C250.787 155.748 251.238 155.708 252.165 155.884L252.549 154.009ZM249.84 154.016L249.261 154.233L250.08 156.009L250.658 155.792L249.84 154.016ZM249.224 154.248C249.138 154.284 249.13 154.273 249.183 154.271C249.214 154.271 249.263 154.273 249.325 154.289C249.388 154.305 249.451 154.332 249.507 154.369L248.317 155.92C248.962 156.345 249.675 156.18 250.117 155.994L249.224 154.248ZM249.507 154.369C249.647 154.461 249.501 154.481 249.48 153.922C249.461 153.426 249.551 152.692 249.789 151.688L247.753 151.246C247.501 152.31 247.37 153.223 247.398 153.953C247.424 154.62 247.593 155.444 248.317 155.92L249.507 154.369ZM249.789 151.688C250.263 149.689 250.912 148.209 251.694 147.191L249.985 146.067C248.989 147.364 248.259 149.11 247.753 151.246L249.789 151.688ZM251.655 147.238C251.731 147.152 251.789 147.101 251.828 147.072C251.867 147.044 251.875 147.046 251.852 147.053C251.825 147.062 251.777 147.07 251.719 147.064C251.663 147.058 251.631 147.042 251.628 147.04L252.659 145.394C252.199 145.145 251.666 145.075 251.142 145.24C250.671 145.389 250.305 145.698 250.023 146.019L251.655 147.238ZM251.659 147.056C253.177 147.816 256.195 149.676 260.764 152.682L261.954 151.131C257.406 148.139 254.281 146.206 252.628 145.378L251.659 147.056ZM260.764 152.682C265.275 155.65 268.783 158.107 271.298 160.056L272.623 158.601C270.046 156.603 266.486 154.112 261.954 151.131L260.764 152.682ZM271.365 160.104C271.609 160.264 271.897 160.43 272.197 160.516C272.469 160.595 273.178 160.706 273.624 160.124L271.915 159C272.057 158.814 272.271 158.707 272.478 158.676C272.65 158.651 272.768 158.684 272.785 158.69C272.815 158.698 272.75 158.681 272.556 158.553L271.365 160.104ZM273.624 160.124C273.917 159.743 273.87 159.299 273.842 159.106C273.804 158.849 273.718 158.565 273.609 158.274L271.641 158.867C271.684 158.982 271.716 159.078 271.738 159.158C271.761 159.238 271.772 159.292 271.777 159.324C271.782 159.361 271.777 159.349 271.782 159.307C271.786 159.269 271.806 159.141 271.915 159L273.624 160.124ZM273.614 158.288C273.414 157.729 273.127 156.811 272.749 155.519L270.738 155.983C271.117 157.279 271.417 158.241 271.636 158.854L273.614 158.288ZM272.755 155.54C272.414 154.257 272.099 152.639 271.813 150.676L269.749 150.895C270.041 152.897 270.368 154.589 270.732 155.961L272.755 155.54ZM271.815 150.689C271.688 149.721 271.667 148.95 271.73 148.357C271.795 147.754 271.941 147.411 272.078 147.232L270.369 146.108C269.947 146.657 269.74 147.364 269.657 148.133C269.574 148.912 269.61 149.834 269.747 150.882L271.815 150.689ZM272.078 147.232C272.564 146.6 273.21 146.083 274.038 145.683L273.041 143.983C271.95 144.511 271.052 145.218 270.369 146.108L272.078 147.232ZM274.038 145.683C274.475 145.471 274.777 145.375 274.963 145.343C275.159 145.31 275.08 145.37 274.931 145.272L276.122 143.721C275.608 143.383 275.015 143.38 274.549 143.459C274.073 143.539 273.564 143.731 273.041 143.983L274.038 145.683ZM274.486 144.439L274.45 145.236L276.531 145.353L276.567 144.555L274.486 144.439ZM274.482 145.035C273.749 147.605 273.768 150.866 274.459 154.765L276.515 154.492C275.847 150.725 275.868 147.763 276.498 145.554L274.482 145.035Z" fill="#EA7AFC"/>
<path d="M301.739 130.918C303.51 131.59 304.911 132.496 305.944 133.637C306.993 134.74 307.651 135.805 307.916 136.832C308.182 137.859 308.257 138.989 308.141 140.224C307.999 141.846 307.667 143.241 307.148 144.411C306.059 146.864 304.639 148.707 302.889 149.939C301.098 151.156 299.05 151.327 296.744 150.453C295.385 149.937 294.425 149.176 293.862 148.169C293.055 146.628 292.978 145.122 293.632 143.651C293.833 143.198 294.16 143.057 294.613 143.229C294.654 143.245 294.941 143.464 295.475 143.887C295.984 144.256 296.692 144.613 297.598 144.956C298.503 145.3 299.449 145.283 300.434 144.907C301.435 144.493 302.145 143.815 302.564 142.871C302.983 141.928 303.154 141.111 303.076 140.42C302.957 139.713 302.68 139.145 302.245 138.716C301.655 138.095 301.03 137.66 300.372 137.41C299.178 136.957 297.905 137.114 296.555 137.881C295.204 138.647 293.989 139.597 292.908 140.731C291.827 141.864 290.468 142.759 288.829 143.417C287.19 144.074 285.506 144.075 283.777 143.419C280.813 142.295 278.966 140.603 278.238 138.342C277.527 136.045 277.825 133.424 279.132 130.48C279.702 129.197 280.503 127.936 281.535 126.696C282.542 125.402 283.519 124.935 284.466 125.294C285.372 125.638 286.149 126.109 286.797 126.707C287.462 127.268 287.702 127.756 287.518 128.171C287.417 128.397 287.268 128.517 287.07 128.53C286.831 128.527 286.545 128.574 286.215 128.669C285.884 128.764 285.374 129.099 284.685 129.676C283.955 130.237 283.472 130.781 283.238 131.31C283.02 131.8 282.89 132.148 282.847 132.352C282.78 132.503 282.716 132.809 282.655 133.271C282.553 133.718 282.53 134.15 282.585 134.567C282.735 135.638 283.324 136.369 284.353 136.759C285.012 137.009 285.565 137.064 286.011 136.925C286.417 136.77 286.736 136.648 286.967 136.56C287.199 136.471 287.522 136.285 287.937 136.002C288.31 135.702 288.572 135.493 288.721 135.373C288.87 135.253 289.207 134.984 289.729 134.565C290.211 134.13 290.526 133.853 290.676 133.733C294.511 130.514 298.199 129.576 301.739 130.918Z" fill="white"/>
<path d="M305.944 133.637L305.144 134.246L305.152 134.256L305.161 134.264L305.944 133.637ZM307.916 136.832L306.903 137.048L306.903 137.048L307.916 136.832ZM308.141 140.224L307.103 140.137L307.103 140.142L308.141 140.224ZM302.889 149.939L303.512 150.71L303.519 150.705L303.526 150.7L302.889 149.939ZM293.862 148.169L292.924 148.58L292.929 148.591L292.936 148.602L293.862 148.169ZM295.475 143.887L294.797 144.61L294.814 144.624L294.832 144.637L295.475 143.887ZM300.434 144.907L300.838 145.791L300.852 145.786L300.865 145.781L300.434 144.907ZM303.076 140.42L304.112 140.326L304.109 140.302L304.105 140.279L303.076 140.42ZM302.245 138.716L301.462 139.343L301.473 139.355L301.484 139.366L302.245 138.716ZM296.555 137.881L296.004 137.066L296.004 137.066L296.555 137.881ZM292.908 140.731L292.123 140.098L292.123 140.098L292.908 140.731ZM288.829 143.417L289.25 144.294L289.25 144.294L288.829 143.417ZM278.238 138.342L277.236 138.599L277.24 138.609L278.238 138.342ZM281.535 126.696L282.364 127.28L282.374 127.268L282.383 127.256L281.535 126.696ZM286.797 126.707L286.061 127.38L286.077 127.396L286.095 127.41L286.797 126.707ZM287.07 128.53L287.064 129.487L287.107 129.488L287.15 129.485L287.07 128.53ZM286.215 128.669L285.899 127.755L285.899 127.755L286.215 128.669ZM284.685 129.676L285.356 130.412L285.373 130.399L285.389 130.385L284.685 129.676ZM282.847 132.352L283.812 132.718L283.851 132.63L283.87 132.537L282.847 132.352ZM282.655 133.271L283.675 133.473L283.684 133.433L283.69 133.392L282.655 133.271ZM282.585 134.567L281.551 134.677L281.551 134.684L282.585 134.567ZM286.011 136.925L286.351 137.832L286.384 137.821L286.416 137.809L286.011 136.925ZM286.967 136.56L287.372 137.444L287.372 137.444L286.967 136.56ZM287.937 136.002L288.562 136.77L288.594 136.749L288.624 136.724L287.937 136.002ZM288.721 135.373L289.408 136.096L289.408 136.096L288.721 135.373ZM289.729 134.565L290.417 135.288L290.44 135.269L290.462 135.25L289.729 134.565ZM290.676 133.733L291.363 134.456L291.372 134.449L291.381 134.442L290.676 133.733ZM301.347 131.803C302.988 132.425 304.24 133.247 305.144 134.246L306.743 133.028C305.583 131.745 304.031 130.754 302.132 130.034L301.347 131.803ZM305.161 134.264C306.139 135.293 306.689 136.221 306.903 137.048L308.93 136.616C308.612 135.39 307.847 134.188 306.727 133.01L305.161 134.264ZM306.903 137.048C307.138 137.96 307.211 138.986 307.103 140.137L309.179 140.312C309.303 138.993 309.225 137.758 308.93 136.616L306.903 137.048ZM307.103 140.142C306.966 141.692 306.653 142.987 306.183 144.045L308.113 144.777C308.682 143.495 309.031 141.999 309.18 140.307L307.103 140.142ZM306.183 144.045C305.142 146.389 303.819 148.075 302.252 149.178L303.526 150.7C305.459 149.338 306.975 147.339 308.113 144.777L306.183 144.045ZM302.267 149.168C300.806 150.16 299.151 150.332 297.137 149.568L296.351 151.337C298.948 152.322 301.39 152.151 303.512 150.71L302.267 149.168ZM297.137 149.568C295.962 149.123 295.216 148.501 294.788 147.736L292.936 148.602C293.633 149.851 294.809 150.752 296.351 151.337L297.137 149.568ZM294.8 147.758C294.111 146.442 294.063 145.219 294.597 144.017L292.667 143.285C291.893 145.026 291.999 146.815 292.924 148.58L294.8 147.758ZM294.597 144.017C294.645 143.908 294.636 144.003 294.474 144.073C294.392 144.108 294.314 144.117 294.257 144.115C294.207 144.113 294.192 144.103 294.22 144.113L295.005 142.345C294.608 142.194 294.092 142.119 293.582 142.338C293.092 142.549 292.82 142.94 292.667 143.285L294.597 144.017ZM294.22 144.113C294.141 144.084 294.086 144.052 294.077 144.047C294.058 144.036 294.046 144.028 294.043 144.026C294.036 144.021 294.038 144.023 294.053 144.033C294.081 144.053 294.127 144.088 294.196 144.14C294.332 144.244 294.532 144.4 294.797 144.61L296.153 143.163C295.884 142.951 295.673 142.786 295.522 142.67C295.447 142.613 295.381 142.563 295.326 142.525C295.3 142.506 295.269 142.484 295.236 142.463C295.236 142.462 295.135 142.394 295.005 142.345L294.22 144.113ZM294.832 144.637C295.446 145.082 296.25 145.479 297.205 145.841L297.99 144.072C297.134 143.747 296.523 143.431 296.118 143.137L294.832 144.637ZM297.205 145.841C298.392 146.291 299.625 146.255 300.838 145.791L300.029 144.023C299.273 144.312 298.615 144.309 297.99 144.072L297.205 145.841ZM300.865 145.781C302.112 145.266 303.011 144.404 303.529 143.237L301.599 142.505C301.28 143.225 300.759 143.721 300.002 144.034L300.865 145.781ZM303.529 143.237C303.985 142.212 304.214 141.23 304.112 140.326L302.04 140.513C302.094 140.991 301.982 141.644 301.599 142.505L303.529 143.237ZM304.105 140.279C303.961 139.425 303.613 138.665 303.006 138.066L301.484 139.366C301.747 139.625 301.952 140.002 302.046 140.561L304.105 140.279ZM303.028 138.088C302.358 137.384 301.606 136.845 300.764 136.526L299.979 138.295C300.454 138.475 300.952 138.807 301.462 139.343L303.028 138.088ZM300.764 136.526C299.188 135.928 297.563 136.181 296.004 137.066L297.106 138.696C298.248 138.048 299.168 137.987 299.979 138.295L300.764 136.526ZM296.004 137.066C294.563 137.884 293.269 138.896 292.123 140.098L293.693 141.364C294.708 140.299 295.846 139.411 297.106 138.696L296.004 137.066ZM292.123 140.098C291.151 141.117 289.919 141.933 288.408 142.539L289.25 144.294C291.016 143.586 292.504 142.611 293.693 141.364L292.123 140.098ZM288.408 142.539C287.039 143.088 285.649 143.096 284.17 142.534L283.384 144.303C285.363 145.054 287.341 145.06 289.25 144.294L288.408 142.539ZM284.17 142.534C281.418 141.491 279.853 139.988 279.237 138.076L277.24 138.609C278.08 141.217 280.207 143.098 283.384 144.303L284.17 142.534ZM279.24 138.085C278.611 136.053 278.849 133.658 280.097 130.846L278.167 130.114C276.802 133.189 276.443 136.036 277.237 138.599L279.24 138.085ZM280.097 130.846C280.628 129.65 281.381 128.461 282.364 127.28L280.706 126.112C279.625 127.41 278.776 128.744 278.167 130.114L280.097 130.846ZM282.383 127.256C282.841 126.668 283.223 126.361 283.508 126.225C283.75 126.109 283.91 126.116 284.073 126.179L284.859 124.41C284.076 124.113 283.274 124.174 282.538 124.526C281.846 124.857 281.236 125.43 280.686 126.136L282.383 127.256ZM284.073 126.179C284.859 126.477 285.517 126.878 286.061 127.38L287.534 126.034C286.781 125.339 285.885 124.799 284.859 124.41L284.073 126.179ZM286.095 127.41C286.374 127.646 286.489 127.805 286.527 127.884C286.544 127.917 286.538 127.919 286.537 127.895C286.535 127.867 286.54 127.833 286.553 127.805L288.483 128.537C288.942 127.503 288.197 126.592 287.499 126.004L286.095 127.41ZM286.553 127.805C286.544 127.826 286.562 127.773 286.643 127.708C286.738 127.632 286.864 127.584 286.99 127.575L287.15 129.485C287.877 129.437 288.293 128.965 288.483 128.537L286.553 127.805ZM287.076 127.573C286.69 127.569 286.291 127.642 285.899 127.755L286.531 129.582C286.8 129.505 286.971 129.486 287.064 129.487L287.076 127.573ZM285.899 127.755C285.575 127.848 285.258 128.026 284.974 128.213C284.675 128.41 284.342 128.664 283.981 128.967L285.389 130.385C285.716 130.111 285.984 129.91 286.194 129.771C286.299 129.702 286.382 129.654 286.444 129.622C286.509 129.588 286.536 129.581 286.531 129.582L285.899 127.755ZM284.014 128.94C283.217 129.552 282.596 130.215 282.273 130.944L284.203 131.676C284.349 131.347 284.692 130.921 285.356 130.412L284.014 128.94ZM282.273 130.944C282.057 131.43 281.888 131.858 281.824 132.167L283.87 132.537C283.891 132.437 283.983 132.17 284.203 131.676L282.273 130.944ZM281.882 131.986C281.754 132.274 281.68 132.706 281.621 133.151L283.69 133.392C283.718 133.173 283.746 133.004 283.772 132.88C283.801 132.744 283.818 132.704 283.812 132.718L281.882 131.986ZM281.636 133.07C281.512 133.609 281.481 134.147 281.551 134.677L283.619 134.458C283.579 134.153 283.594 133.826 283.675 133.473L281.636 133.07ZM281.551 134.684C281.746 136.073 282.56 137.112 283.961 137.644L284.746 135.875C284.088 135.625 283.723 135.203 283.618 134.451L281.551 134.684ZM283.961 137.644C284.739 137.939 285.571 138.075 286.351 137.832L285.672 136.018C285.559 136.054 285.285 136.079 284.746 135.875L283.961 137.644ZM286.416 137.809C286.822 137.654 287.14 137.533 287.372 137.444L286.563 135.676C286.331 135.764 286.012 135.886 285.607 136.041L286.416 137.809ZM287.372 137.444C287.728 137.308 288.135 137.062 288.562 136.77L287.311 135.233C286.909 135.508 286.67 135.635 286.563 135.676L287.372 137.444ZM288.624 136.724C288.998 136.425 289.259 136.216 289.408 136.096L288.034 134.65C287.884 134.77 287.623 134.98 287.249 135.279L288.624 136.724ZM289.408 136.096C289.558 135.976 289.894 135.707 290.417 135.288L289.042 133.842C288.524 134.257 288.178 134.534 288.034 134.65L289.408 136.096ZM290.462 135.25C290.949 134.81 291.241 134.554 291.363 134.456L289.988 133.011C289.812 133.152 289.473 133.451 288.997 133.88L290.462 135.25ZM291.381 134.442C295.045 131.365 298.316 130.653 301.347 131.803L302.132 130.034C298.082 128.498 293.976 129.663 289.971 133.025L291.381 134.442Z" fill="#EA7AFC"/>
</g>
<defs>
<filter id="filter0_d_9_58" x="24.1513" y="59.9499" width="283.471" height="186.203" filterUnits="userSpaceOnUse" color-interpolation-filters="sRGB">
<feFlood flood-opacity="0" result="BackgroundImageFix"/>
<feColorMatrix in="SourceAlpha" type="matrix" values="0 0 0 0 0 0 0 0 0 0 0 0 0 0 0 0 0 0 127 0" result="hardAlpha"/>
<feOffset dy="4"/>
<feGaussianBlur stdDeviation="2"/>
<feComposite in2="hardAlpha" operator="out"/>
<feColorMatrix type="matrix" values="0 0 0 0 0 0 0 0 0 0 0 0 0 0 0 0 0 0 0.25 0"/>
<feBlend mode="normal" in2="BackgroundImageFix" result="effect1_dropShadow_9_58"/>
<feBlend mode="normal" in="SourceGraphic" in2="effect1_dropShadow_9_58" result="shape"/>
</filter>
<filter id="filter1_d_9_58" x="142.027" y="13.4376" width="104.18" height="157.985" filterUnits="userSpaceOnUse" color-interpolation-filters="sRGB">
<feFlood flood-opacity="0" result="BackgroundImageFix"/>
<feColorMatrix in="SourceAlpha" type="matrix" values="0 0 0 0 0 0 0 0 0 0 0 0 0 0 0 0 0 0 127 0" result="hardAlpha"/>
<feOffset dy="6"/>
<feGaussianBlur stdDeviation="2"/>
<feComposite in2="hardAlpha" operator="out"/>
<feColorMatrix type="matrix" values="0 0 0 0 0 0 0 0 0 0 0 0 0 0 0 0 0 0 0.5 0"/>
<feBlend mode="normal" in2="BackgroundImageFix" result="effect1_dropShadow_9_58"/>
<feBlend mode="normal" in="SourceGraphic" in2="effect1_dropShadow_9_58" result="shape"/>
</filter>
<filter id="filter2_d_9_58" x="17.4459" y="58.4645" width="110.809" height="92.0841" filterUnits="userSpaceOnUse" color-interpolation-filters="sRGB">
<feFlood flood-opacity="0" result="BackgroundImageFix"/>
<feColorMatrix in="SourceAlpha" type="matrix" values="0 0 0 0 0 0 0 0 0 0 0 0 0 0 0 0 0 0 127 0" result="hardAlpha"/>
<feOffset dy="4"/>
<feGaussianBlur stdDeviation="2"/>
<feComposite in2="hardAlpha" operator="out"/>
<feColorMatrix type="matrix" values="0 0 0 0 0 0 0 0 0 0 0 0 0 0 0 0 0 0 0.5 0"/>
<feBlend mode="normal" in2="BackgroundImageFix" result="effect1_dropShadow_9_58"/>
<feBlend mode="normal" in="SourceGraphic" in2="effect1_dropShadow_9_58" result="shape"/>
</filter>
<filter id="filter3_d_9_58" x="82.3226" y="113.814" width="66.0718" height="78.9525" filterUnits="userSpaceOnUse" color-interpolation-filters="sRGB">
<feFlood flood-opacity="0" result="BackgroundImageFix"/>
<feColorMatrix in="SourceAlpha" type="matrix" values="0 0 0 0 0 0 0 0 0 0 0 0 0 0 0 0 0 0 127 0" result="hardAlpha"/>
<feOffset dy="4"/>
<feGaussianBlur stdDeviation="2"/>
<feComposite in2="hardAlpha" operator="out"/>
<feColorMatrix type="matrix" values="0 0 0 0 0 0 0 0 0 0 0 0 0 0 0 0 0 0 0.5 0"/>
<feBlend mode="normal" in2="BackgroundImageFix" result="effect1_dropShadow_9_58"/>
<feBlend mode="normal" in="SourceGraphic" in2="effect1_dropShadow_9_58" result="shape"/>
</filter>
<filter id="filter4_d_9_58" x="167.865" y="123.518" width="147.632" height="106.756" filterUnits="userSpaceOnUse" color-interpolation-filters="sRGB">
<feFlood flood-opacity="0" result="BackgroundImageFix"/>
<feColorMatrix in="SourceAlpha" type="matrix" values="0 0 0 0 0 0 0 0 0 0 0 0 0 0 0 0 0 0 127 0" result="hardAlpha"/>
<feOffset dy="4"/>
<feGaussianBlur stdDeviation="2"/>
<feComposite in2="hardAlpha" operator="out"/>
<feColorMatrix type="matrix" values="0 0 0 0 0 0 0 0 0 0 0 0 0 0 0 0 0 0 0.25 0"/>
<feBlend mode="normal" in2="BackgroundImageFix" result="effect1_dropShadow_9_58"/>
<feBlend mode="normal" in="SourceGraphic" in2="effect1_dropShadow_9_58" result="shape"/>
</filter>
</defs>
</svg>
