<svg width="258" height="212" viewBox="0 0 258 212" fill="none" xmlns="http://www.w3.org/2000/svg">
<g filter="url(#filter0_d_13_91)">
<ellipse cx="129" cy="73.5" rx="126" ry="72.5" fill="#FDFDFD" shape-rendering="crispEdges"/>
<path d="M129 146.25C163.83 146.25 195.374 138.127 218.22 124.982C241.059 111.84 255.25 93.6479 255.25 73.5C255.25 53.3521 241.059 35.1596 218.22 22.0181C195.374 8.87264 163.83 0.75 129 0.75C94.1703 0.75 62.6257 8.87264 39.7799 22.0181C16.9408 35.1596 2.75 53.3521 2.75 73.5C2.75 93.6479 16.9408 111.84 39.7799 124.982C62.6257 138.127 94.1703 146.25 129 146.25Z" stroke="#8C8C8C" stroke-opacity="0.78" stroke-width="0.5" shape-rendering="crispEdges"/>
</g>
<path d="M130.033 113.758C155.472 113.758 178.527 108.906 195.242 101.038C211.917 93.1891 222.451 82.2469 222.451 69.9919C222.451 57.7369 211.917 46.7948 195.242 38.9458C178.527 31.0783 155.472 26.2258 130.033 26.2258C104.594 26.2258 81.5382 31.0783 64.824 38.9458C48.1489 46.7948 37.6148 57.7369 37.6148 69.9919C37.6148 82.2469 48.1489 93.1891 64.824 101.038C81.5382 108.906 104.594 113.758 130.033 113.758Z" stroke="#C7C5C5"/>
<g filter="url(#filter1_d_13_91)">
<ellipse cx="129.5" cy="66" rx="94.5" ry="58" fill="#FFC122"/>
</g>
<path d="M44.1111 64.8404V45.9754C44.1111 43.09 45.9589 40.5289 48.6971 39.6192L56.4338 37.0488C59.9183 35.8912 62.7786 33.3602 64.3519 30.0426C66.5798 25.3445 71.3144 22.3498 76.514 22.3498H84.6841C89.3749 22.3498 93.9536 20.9155 97.8061 18.2392L101.087 15.9599C106.539 12.1728 113.361 10.9257 119.8 12.5391L136.914 16.8275C138.742 17.2856 140.62 17.5172 142.504 17.5172H166.459C171.767 17.5172 176.911 19.3529 181.02 22.713L196.333 35.2365L205.676 41.7196C213.166 46.9167 216.879 56.0469 215.143 64.9963L213.522 73.354C213.175 75.1412 212.618 76.881 211.861 78.5367L207.058 89.0407C204.143 95.4172 198.479 100.116 191.673 101.802L159.111 109.872L130.174 117.666C126.913 118.545 123.498 118.694 120.172 118.104L105.376 115.477C100.582 114.626 96.1829 112.276 92.8101 108.766L90.3435 106.198C86.0068 101.684 80.0175 99.133 73.7579 99.133H68.322C64.114 99.133 59.9867 97.9786 56.3893 95.7955L50.4659 92.2007C43.2239 87.8057 40.106 78.8992 43.0256 70.9469C43.7436 68.9911 44.1111 66.9239 44.1111 64.8404Z" fill="#FD5555" stroke="#F5F5F5" stroke-opacity="0.75"/>
<path d="M213 65C190.5 104 158 117 124 104C68 118 48 91.5097 48 65C48 38.4903 84.9365 17 130.5 17C174 26.5 213 33.5 213 65Z" fill="#FFE58A"/>
<path d="M90.75 55.5C90.75 61.1501 85.9481 65.75 80 65.75C74.0519 65.75 69.25 61.1501 69.25 55.5C69.25 49.8499 74.0519 45.25 80 45.25C85.9481 45.25 90.75 49.8499 90.75 55.5Z" fill="#CB1B1B" stroke="#9C0000" stroke-width="0.5"/>
<path d="M139.75 34.5C139.75 40.1501 134.948 44.75 129 44.75C123.052 44.75 118.25 40.1501 118.25 34.5C118.25 28.8499 123.052 24.25 129 24.25C134.948 24.25 139.75 28.8499 139.75 34.5Z" fill="#CB1B1B" stroke="#9C0000" stroke-width="0.5"/>
<path d="M175.75 73.5C175.75 79.1501 170.948 83.75 165 83.75C159.052 83.75 154.25 79.1501 154.25 73.5C154.25 67.8499 159.052 63.25 165 63.25C170.948 63.25 175.75 67.8499 175.75 73.5Z" fill="#CB1B1B" stroke="#9C0000" stroke-width="0.5"/>
<path d="M121.75 88.5C121.75 94.1501 116.948 98.75 111 98.75C105.052 98.75 100.25 94.1501 100.25 88.5C100.25 82.8499 105.052 78.25 111 78.25C116.948 78.25 121.75 82.8499 121.75 88.5Z" fill="#CB1B1B" stroke="#9C0000" stroke-width="0.5"/>
<path d="M65 82.0142V85.25C65 87.0449 66.4551 88.5 68.25 88.5C70.0449 88.5 71.5 87.0449 71.5 85.25V83.8647C71.5 82.109 72.492 80.504 74.0623 79.7188L77.1549 78.1726C77.9793 77.7604 78.5 76.9178 78.5 75.9961C78.5 74.3013 76.8108 73.1256 75.2215 73.7143L69.2332 75.9322C66.6889 76.8745 65 79.301 65 82.0142Z" fill="#699A00" stroke="#4A6D00"/>
<path d="M162.766 41.5291L160.569 43.9049C159.351 45.2228 159.431 47.279 160.749 48.4976C162.067 49.7162 164.123 49.6357 165.342 48.3178L166.282 47.3007C167.474 46.0117 169.292 45.5067 170.978 45.9963L174.299 46.9605C175.184 47.2176 176.138 46.9525 176.764 46.2757C177.914 45.0314 177.472 43.0214 175.906 42.3746L170.003 39.9375C167.495 38.902 164.608 39.537 162.766 41.5291Z" fill="#699A00" stroke="#4A6D00"/>
<path d="M143.905 82.084L140.764 81.3052C139.022 80.8732 137.259 81.9353 136.827 83.6775C136.395 85.4197 137.458 87.1822 139.2 87.6142L140.544 87.9475C142.248 88.3701 143.568 89.7192 143.952 91.4323L144.708 94.8062C144.91 95.7055 145.602 96.4137 146.497 96.6355C148.142 97.0434 149.69 95.6868 149.501 94.0026L148.789 87.6565C148.487 84.9602 146.538 82.737 143.905 82.084Z" fill="#699A00" stroke="#4A6D00"/>
<path d="M127.89 56.1144L126.811 53.0639C126.212 51.3718 124.355 50.4853 122.663 51.084C120.971 51.6827 120.084 53.5398 120.683 55.2319L121.145 56.5378C121.731 58.193 121.331 60.037 120.112 61.301L117.713 63.7902C117.073 64.4537 116.863 65.4218 117.171 66.2907C117.736 67.8884 119.72 68.4333 121.022 67.3483L125.928 63.2601C128.012 61.5231 128.795 58.6722 127.89 56.1144Z" fill="#699A00" stroke="#4A6D00"/>
<path d="M102.275 29.982L100.61 31.1924C99.9136 31.6992 99.0149 31.8383 98.1975 31.5658C96.1823 30.8941 94.2285 32.732 94.7758 34.7844L95.3681 37.0054C95.4557 37.3337 95.5 37.6721 95.5 38.0119V38.0793C95.5 40.5208 97.5098 42.5 99.9513 42.5C101.78 42.5 103.445 41.3866 104.125 39.6887L104.46 38.8511C104.81 37.9755 105.442 37.242 106.257 36.7668L106.581 36.5776C108.815 35.2747 109.211 32.2111 107.383 30.3828C106.011 29.0106 103.844 28.8406 102.275 29.982Z" fill="#FBFBF1" stroke="#F7F9B5"/>
<path d="M145.3 52.269L144.844 54.276C144.653 55.1163 144.069 55.8127 143.274 56.1459C141.315 56.9673 141.055 59.6371 142.818 60.8213L144.727 62.1028C145.009 62.2922 145.265 62.5177 145.489 62.7734L145.533 62.8241C147.141 64.6616 149.957 64.8277 151.794 63.22C153.17 62.0158 153.691 60.0812 153.084 58.3562L152.784 57.5051C152.471 56.6156 152.464 55.647 152.764 54.753L152.884 54.397C153.707 51.9458 151.988 49.3791 149.408 49.2071C147.472 49.078 145.729 50.3767 145.3 52.269Z" fill="#FBFBF1" stroke="#F7F9B5"/>
<path d="M198.323 58.6346L196.442 57.7996C195.654 57.45 195.084 56.7416 194.911 55.8976C194.484 53.8169 191.915 53.0453 190.412 54.5465L188.786 56.1709C188.545 56.4111 188.274 56.6188 187.98 56.7889L187.922 56.8226C185.808 58.0447 185.101 60.7753 186.323 62.8889C187.238 64.472 189.036 65.3565 190.846 65.0946L191.738 64.9653C192.672 64.8303 193.623 65.0107 194.443 65.4781L194.769 65.6642C197.015 66.9455 199.865 65.7552 200.533 63.2572C201.034 61.3825 200.097 59.4219 198.323 58.6346Z" fill="#FBFBF1" stroke="#F7F9B5"/>
<path d="M104.187 68.9063L102.846 67.3453C102.284 66.6918 102.073 65.8073 102.278 64.9705C102.785 62.9077 100.795 61.1089 98.7936 61.8204L96.6277 62.5904C96.3075 62.7042 95.9739 62.7758 95.6351 62.8033L95.568 62.8087C93.1345 63.0062 91.3243 65.1695 91.5218 67.6029C91.6697 69.4257 92.9141 70.9955 94.6614 71.5351L95.5234 71.8013C96.4245 72.0796 97.2068 72.6508 97.7463 73.4242L97.9611 73.7322C99.4403 75.853 102.526 76.0002 104.2 74.03C105.457 72.5514 105.451 70.3782 104.187 68.9063Z" fill="#FBFBF1" stroke="#F7F9B5"/>
<g filter="url(#filter2_d_13_91)">
<path d="M88.608 183.48L88.992 172.152H84.704C84.3627 172.152 84.192 172.024 84.192 171.768C84.192 171 84.5547 170.125 85.28 169.144C86.0053 168.12 86.7947 167.608 87.648 167.608H88.992C88.9067 164.28 88.8213 161.891 88.736 160.44C88.5653 157.837 88.1387 155.832 87.456 154.424L87.136 153.784C86.9653 153.571 86.88 153.315 86.88 153.016C86.88 152.717 87.1147 152.461 87.584 152.248C88.0533 152.035 88.736 151.779 89.632 151.48C90.5707 151.181 92.5333 150.797 95.52 150.328C98.5067 149.816 101.749 149.56 105.248 149.56C108.789 149.56 110.709 149.816 111.008 150.328C111.349 150.84 111.52 151.651 111.52 152.76C111.52 153.827 111.371 154.36 111.072 154.36C111.029 154.36 110.88 154.339 110.624 154.296C109.941 154.125 108.896 154.04 107.488 154.04C106.08 154.04 104.565 154.168 102.944 154.424C101.323 154.68 100.085 154.936 99.232 155.192L98.016 155.64C97.6747 155.725 97.4187 156.024 97.248 156.536C96.9067 159.053 96.736 162.744 96.736 167.608H107.104C107.488 167.608 107.68 167.736 107.68 167.992C107.68 168.76 107.339 169.656 106.656 170.68C105.973 171.704 105.205 172.216 104.352 172.216L96.736 172.152L97.184 191.352C97.184 192.291 97.0347 192.973 96.736 193.4C95.9253 194.467 94.5387 195.256 92.576 195.768C90.656 196.323 89.056 196.6 87.776 196.6C87.4347 196.6 87.264 196.387 87.264 195.96C87.264 195.747 87.2853 195.576 87.328 195.448C87.84 194.723 88.2667 190.733 88.608 183.48ZM114.442 170.872C113.333 170.915 112.522 170.957 112.01 171C111.541 171 111.306 170.872 111.306 170.616C111.306 170.36 111.434 170.104 111.69 169.848C114.421 167.331 119.029 166.072 125.514 166.072C127.733 166.072 129.482 166.264 130.762 166.648L131.402 166.84C131.914 167.053 132.17 167.288 132.17 167.544C132.17 167.757 132.021 167.928 131.722 168.056C130.57 168.397 129.461 168.952 128.394 169.72C127.327 170.445 126.794 170.957 126.794 171.256L127.178 171.704C128.543 172.472 129.589 173.688 130.314 175.352C131.082 177.016 131.509 178.488 131.594 179.768L131.722 181.752C131.722 185.976 130.549 189.453 128.202 192.184C125.855 194.915 122.655 196.28 118.602 196.28C116.554 196.28 114.783 195.917 113.29 195.192C111.797 194.467 110.687 193.656 109.962 192.76C109.279 191.821 108.725 190.776 108.298 189.624C107.786 188.045 107.53 186.424 107.53 184.76C107.53 183.053 107.807 181.347 108.362 179.64C108.959 177.933 109.621 176.675 110.346 175.864C111.114 175.053 111.967 174.392 112.906 173.88C114.101 173.24 115.061 172.92 115.786 172.92C116.511 172.92 116.874 173.069 116.874 173.368L116.49 174.008C115.551 175.117 114.869 176.568 114.442 178.36C114.058 180.152 113.866 181.752 113.866 183.16C113.866 184.525 114.037 185.891 114.378 187.256C114.719 188.621 115.103 189.645 115.53 190.328C115.957 190.968 116.447 191.459 117.002 191.8C117.813 192.312 118.666 192.568 119.562 192.568C120.458 192.568 121.333 192.227 122.186 191.544C123.039 190.819 123.658 189.88 124.042 188.728C124.81 186.595 125.194 184.397 125.194 182.136C125.194 178.552 124.277 175.779 122.442 173.816C120.65 171.853 117.983 170.872 114.442 170.872ZM141.317 170.872C140.208 170.915 139.397 170.957 138.885 171C138.416 171 138.181 170.872 138.181 170.616C138.181 170.36 138.309 170.104 138.565 169.848C141.296 167.331 145.904 166.072 152.389 166.072C154.608 166.072 156.357 166.264 157.637 166.648L158.277 166.84C158.789 167.053 159.045 167.288 159.045 167.544C159.045 167.757 158.896 167.928 158.597 168.056C157.445 168.397 156.336 168.952 155.269 169.72C154.202 170.445 153.669 170.957 153.669 171.256L154.053 171.704C155.418 172.472 156.464 173.688 157.189 175.352C157.957 177.016 158.384 178.488 158.469 179.768L158.597 181.752C158.597 185.976 157.424 189.453 155.077 192.184C152.73 194.915 149.53 196.28 145.477 196.28C143.429 196.28 141.658 195.917 140.165 195.192C138.672 194.467 137.562 193.656 136.837 192.76C136.154 191.821 135.6 190.776 135.173 189.624C134.661 188.045 134.405 186.424 134.405 184.76C134.405 183.053 134.682 181.347 135.237 179.64C135.834 177.933 136.496 176.675 137.221 175.864C137.989 175.053 138.842 174.392 139.781 173.88C140.976 173.24 141.936 172.92 142.661 172.92C143.386 172.92 143.749 173.069 143.749 173.368L143.365 174.008C142.426 175.117 141.744 176.568 141.317 178.36C140.933 180.152 140.741 181.752 140.741 183.16C140.741 184.525 140.912 185.891 141.253 187.256C141.594 188.621 141.978 189.645 142.405 190.328C142.832 190.968 143.322 191.459 143.877 191.8C144.688 192.312 145.541 192.568 146.437 192.568C147.333 192.568 148.208 192.227 149.061 191.544C149.914 190.819 150.533 189.88 150.917 188.728C151.685 186.595 152.069 184.397 152.069 182.136C152.069 178.552 151.152 175.779 149.317 173.816C147.525 171.853 144.858 170.872 141.317 170.872ZM174.72 166.264C175.488 166.264 176.171 166.371 176.768 166.584C177.408 166.755 177.749 166.84 177.792 166.84L178.176 166.52L177.92 159.544C177.835 158.349 177.579 157.325 177.152 156.472C176.725 155.619 176.341 155.064 176 154.808L175.424 154.488C175.168 154.317 175.04 154.125 175.04 153.912C175.04 153.272 176.021 152.525 177.984 151.672C179.989 150.819 181.547 150.392 182.656 150.392C183.765 150.392 184.363 150.627 184.448 151.096C184.661 152.547 184.768 155.32 184.768 159.416C184.768 163.469 184.661 167.459 184.448 171.384C184.277 175.309 184.192 179.768 184.192 184.76C184.192 189.709 184.512 192.824 185.152 194.104C185.323 194.403 185.408 194.68 185.408 194.936C185.408 195.576 184.491 195.896 182.656 195.896C179.157 195.896 177.408 195.064 177.408 193.4C177.323 192.717 177.28 191.672 177.28 190.264C177.28 188.813 177.408 186.147 177.664 182.264C177.963 178.339 178.112 175.331 178.112 173.24C178.112 171.107 177.045 170.04 174.912 170.04C172.821 170.04 171.221 171.277 170.112 173.752C169.003 176.227 168.448 178.701 168.448 181.176C168.448 186.424 169.771 189.048 172.416 189.048C172.8 189.048 173.163 188.984 173.504 188.856C173.888 188.685 174.123 188.6 174.208 188.6C174.549 188.6 174.805 188.813 174.976 189.24C175.189 189.667 175.296 190.093 175.296 190.52C175.296 191.971 174.72 193.208 173.568 194.232C172.416 195.213 171.008 195.704 169.344 195.704C166.784 195.704 164.843 194.595 163.52 192.376C162.24 190.115 161.6 187.32 161.6 183.992C161.6 179.768 162.603 175.843 164.608 172.216C165.632 170.424 167.019 168.995 168.768 167.928C170.517 166.819 172.501 166.264 174.72 166.264Z" fill="white"/>
<path d="M88.608 183.48L89.607 183.527L89.6074 183.514L88.608 183.48ZM88.992 172.152L89.9914 172.186L90.0265 171.152H88.992V172.152ZM85.28 169.144L86.0842 169.738L86.0902 169.73L86.096 169.722L85.28 169.144ZM88.992 167.608V168.608H90.018L89.9917 167.582L88.992 167.608ZM88.736 160.44L89.7343 160.381L89.7339 160.375L88.736 160.44ZM87.456 154.424L88.3559 153.988L88.3504 153.977L87.456 154.424ZM87.136 153.784L88.0304 153.337L87.983 153.242L87.9169 153.159L87.136 153.784ZM87.584 152.248L87.1702 151.338L87.584 152.248ZM89.632 151.48L89.3288 150.527L89.3158 150.531L89.632 151.48ZM95.52 150.328L95.6753 151.316L95.689 151.314L95.52 150.328ZM111.008 150.328L110.144 150.832L110.159 150.858L110.176 150.883L111.008 150.328ZM110.624 154.296L110.381 155.266L110.42 155.276L110.46 155.282L110.624 154.296ZM102.944 154.424L103.1 155.412L103.1 155.412L102.944 154.424ZM99.232 155.192L98.9447 154.234L98.9152 154.243L98.8863 154.254L99.232 155.192ZM98.016 155.64L98.2585 156.61L98.311 156.597L98.3617 156.578L98.016 155.64ZM97.248 156.536L96.2993 156.22L96.2697 156.309L96.2571 156.402L97.248 156.536ZM96.736 167.608H95.736V168.608H96.736V167.608ZM106.656 170.68L105.824 170.125L105.824 170.125L106.656 170.68ZM104.352 172.216L104.344 173.216H104.352V172.216ZM96.736 172.152L96.7444 171.152L95.7122 171.143L95.7363 172.175L96.736 172.152ZM97.184 191.352H98.184V191.34L98.1837 191.329L97.184 191.352ZM96.736 193.4L97.5322 194.005L97.544 193.989L97.5552 193.973L96.736 193.4ZM92.576 195.768L92.3236 194.8L92.311 194.804L92.2985 194.807L92.576 195.768ZM87.328 195.448L86.511 194.871L86.426 194.992L86.3793 195.132L87.328 195.448ZM89.6074 183.514L89.9914 172.186L87.9926 172.118L87.6086 183.446L89.6074 183.514ZM88.992 171.152H84.704V173.152H88.992V171.152ZM84.704 171.152C84.6295 171.152 84.7559 171.133 84.92 171.256C85.0116 171.325 85.0887 171.419 85.1378 171.53C85.1843 171.634 85.192 171.722 85.192 171.768H83.192C83.192 172.14 83.3312 172.564 83.72 172.856C84.0547 173.107 84.4372 173.152 84.704 173.152V171.152ZM85.192 171.768C85.192 171.307 85.4166 170.642 86.0842 169.738L84.4758 168.55C83.6927 169.609 83.192 170.693 83.192 171.768H85.192ZM86.096 169.722C86.727 168.831 87.2522 168.608 87.648 168.608V166.608C86.3372 166.608 85.2837 167.409 84.464 168.566L86.096 169.722ZM87.648 168.608H88.992V166.608H87.648V168.608ZM89.9917 167.582C89.9063 164.254 89.8207 161.85 89.7343 160.381L87.7377 160.499C87.822 161.931 87.907 164.306 87.9923 167.634L89.9917 167.582ZM89.7339 160.375C89.5596 157.718 89.1201 155.564 88.3558 153.988L86.5562 154.86C87.1572 156.1 87.571 157.957 87.7381 160.505L89.7339 160.375ZM88.3504 153.977L88.0304 153.337L86.2416 154.231L86.5616 154.871L88.3504 153.977ZM87.9169 153.159C87.9015 153.14 87.88 153.11 87.88 153.016H85.88C85.88 153.519 86.0291 154.001 86.3551 154.409L87.9169 153.159ZM87.88 153.016C87.88 153.076 87.8673 153.137 87.845 153.19C87.8236 153.24 87.8 153.268 87.7932 153.276C87.7872 153.282 87.7956 153.271 87.8307 153.248C87.8655 153.225 87.9193 153.194 87.9978 153.158L87.1702 151.338C86.6202 151.588 85.88 152.093 85.88 153.016H87.88ZM87.9978 153.158C88.4193 152.967 89.063 152.724 89.9482 152.429L89.3158 150.531C88.409 150.834 87.6874 151.103 87.1702 151.338L87.9978 153.158ZM89.9352 152.433C90.7887 152.161 92.6745 151.787 95.6752 151.316L95.3648 149.34C92.3921 149.807 90.3526 150.201 89.3288 150.527L89.9352 152.433ZM95.689 151.314C98.6121 150.813 101.797 150.56 105.248 150.56V148.56C101.701 148.56 98.4013 148.819 95.351 149.342L95.689 151.314ZM105.248 150.56C107.004 150.56 108.318 150.624 109.212 150.743C109.662 150.803 109.966 150.872 110.153 150.937C110.394 151.02 110.262 151.035 110.144 150.832L111.872 149.824C111.604 149.365 111.121 149.156 110.807 149.047C110.439 148.92 109.986 148.829 109.476 148.761C108.45 148.624 107.033 148.56 105.248 148.56V150.56ZM110.176 150.883C110.351 151.145 110.52 151.711 110.52 152.76H112.52C112.52 151.591 112.348 150.535 111.84 149.773L110.176 150.883ZM110.52 152.76C110.52 153.27 110.482 153.559 110.445 153.69C110.426 153.759 110.428 153.705 110.502 153.617C110.545 153.566 110.616 153.499 110.723 153.444C110.833 153.388 110.954 153.36 111.072 153.36V155.36C111.493 155.36 111.823 155.154 112.034 154.903C112.22 154.682 112.315 154.428 112.371 154.23C112.483 153.828 112.52 153.317 112.52 152.76H110.52ZM111.072 153.36C111.103 153.36 111.125 153.362 111.128 153.362C111.134 153.362 111.135 153.363 111.13 153.362C111.121 153.361 111.101 153.359 111.069 153.354C111.006 153.345 110.913 153.33 110.788 153.31L110.46 155.282C110.591 155.304 110.701 155.322 110.787 155.334C110.841 155.342 110.965 155.36 111.072 155.36V153.36ZM110.867 153.326C110.06 153.124 108.913 153.04 107.488 153.04V155.04C108.879 155.04 109.823 155.126 110.381 155.266L110.867 153.326ZM107.488 153.04C106.02 153.04 104.453 153.173 102.788 153.436L103.1 155.412C104.678 155.163 106.14 155.04 107.488 155.04V153.04ZM102.788 153.436C101.153 153.694 99.8629 153.959 98.9447 154.234L99.5193 156.15C100.308 155.913 101.493 155.666 103.1 155.412L102.788 153.436ZM98.8863 154.254L97.6703 154.702L98.3617 156.578L99.5777 156.13L98.8863 154.254ZM97.7735 154.67C96.9487 154.876 96.517 155.567 96.2993 156.22L98.1967 156.852C98.2553 156.676 98.3085 156.601 98.3273 156.579C98.3348 156.57 98.3321 156.575 98.3168 156.585C98.3006 156.596 98.28 156.605 98.2585 156.61L97.7735 154.67ZM96.2571 156.402C95.9065 158.987 95.736 162.732 95.736 167.608H97.736C97.736 162.756 97.9068 159.12 98.2389 156.67L96.2571 156.402ZM96.736 168.608H107.104V166.608H96.736V168.608ZM107.104 168.608C107.216 168.608 107.126 168.632 106.981 168.536C106.896 168.479 106.809 168.39 106.75 168.271C106.692 168.156 106.68 168.054 106.68 167.992H108.68C108.68 167.573 108.499 167.144 108.091 166.872C107.754 166.648 107.376 166.608 107.104 166.608V168.608ZM106.68 167.992C106.68 168.476 106.457 169.175 105.824 170.125L107.488 171.235C108.22 170.137 108.68 169.044 108.68 167.992H106.68ZM105.824 170.125C105.239 171.003 104.738 171.216 104.352 171.216V173.216C105.672 173.216 106.708 172.405 107.488 171.235L105.824 170.125ZM104.36 171.216L96.7444 171.152L96.7276 173.152L104.344 173.216L104.36 171.216ZM95.7363 172.175L96.1843 191.375L98.1837 191.329L97.7357 172.129L95.7363 172.175ZM96.184 191.352C96.184 192.229 96.036 192.656 95.9168 192.827L97.5552 193.973C98.0333 193.29 98.184 192.352 98.184 191.352H96.184ZM95.9398 192.795C95.3187 193.612 94.1756 194.317 92.3236 194.8L92.8284 196.736C94.9017 196.195 96.5319 195.321 97.5322 194.005L95.9398 192.795ZM92.2985 194.807C90.4242 195.349 88.9249 195.6 87.776 195.6V197.6C89.1871 197.6 90.8878 197.297 92.8535 196.729L92.2985 194.807ZM87.776 195.6C87.7931 195.6 87.8541 195.603 87.9366 195.637C88.0252 195.674 88.109 195.735 88.1729 195.815C88.2897 195.961 88.264 196.066 88.264 195.96H86.264C86.264 196.28 86.3237 196.705 86.6111 197.065C86.9327 197.467 87.3846 197.6 87.776 197.6V195.6ZM88.264 195.96C88.264 195.885 88.2678 195.832 88.2723 195.796C88.2769 195.759 88.2809 195.751 88.2767 195.764L86.3793 195.132C86.2888 195.403 86.264 195.694 86.264 195.96H88.264ZM88.145 196.025C88.2979 195.808 88.3976 195.55 88.4689 195.326C88.5455 195.086 88.6139 194.803 88.6768 194.487C88.8025 193.856 88.9183 193.029 89.0263 192.018C89.2428 189.994 89.4359 187.16 89.6069 183.527L87.6091 183.433C87.4388 187.053 87.2479 189.84 87.0377 191.806C86.9324 192.79 86.8242 193.55 86.7152 194.097C86.6607 194.371 86.6092 194.575 86.5631 194.72C86.5118 194.881 86.4861 194.907 86.511 194.871L88.145 196.025ZM114.442 170.872V169.872H114.423L114.404 169.873L114.442 170.872ZM112.01 171V172H112.052L112.093 171.997L112.01 171ZM111.69 169.848L111.012 169.113L110.997 169.127L110.983 169.141L111.69 169.848ZM130.762 166.648L130.475 167.606L130.475 167.606L130.762 166.648ZM131.402 166.84L131.787 165.917L131.739 165.897L131.689 165.882L131.402 166.84ZM131.722 168.056L132.006 169.015L132.062 168.998L132.116 168.975L131.722 168.056ZM128.394 169.72L128.956 170.547L128.967 170.539L128.978 170.532L128.394 169.72ZM126.794 171.256H125.794V171.626L126.035 171.907L126.794 171.256ZM127.178 171.704L126.419 172.355L126.534 172.489L126.688 172.576L127.178 171.704ZM130.314 175.352L129.397 175.752L129.402 175.761L129.406 175.771L130.314 175.352ZM131.594 179.768L132.592 179.704L132.592 179.701L131.594 179.768ZM131.722 181.752H132.722V181.72L132.72 181.688L131.722 181.752ZM128.202 192.184L127.444 191.532L127.444 191.532L128.202 192.184ZM113.29 195.192L113.727 194.292L113.727 194.292L113.29 195.192ZM109.962 192.76L109.153 193.348L109.168 193.369L109.185 193.389L109.962 192.76ZM108.298 189.624L107.347 189.933L107.353 189.952L107.36 189.971L108.298 189.624ZM108.362 179.64L107.418 179.31L107.414 179.32L107.411 179.331L108.362 179.64ZM110.346 175.864L109.62 175.176L109.61 175.187L109.601 175.197L110.346 175.864ZM112.906 173.88L112.434 172.998L112.427 173.002L112.906 173.88ZM116.874 173.368L117.731 173.882L117.874 173.645V173.368H116.874ZM116.49 174.008L117.253 174.654L117.306 174.592L117.347 174.522L116.49 174.008ZM114.442 178.36L113.469 178.128L113.467 178.139L113.464 178.15L114.442 178.36ZM115.53 190.328L114.682 190.858L114.69 190.87L114.698 190.883L115.53 190.328ZM117.002 191.8L117.536 190.954L117.526 190.948L117.002 191.8ZM122.186 191.544L122.811 192.325L122.822 192.316L122.834 192.306L122.186 191.544ZM124.042 188.728L123.101 188.389L123.097 188.4L123.093 188.412L124.042 188.728ZM122.442 173.816L121.703 174.49L121.711 174.499L122.442 173.816ZM114.404 169.873C113.292 169.915 112.463 169.959 111.927 170.003L112.093 171.997C112.581 171.956 113.373 171.914 114.48 171.871L114.404 169.873ZM112.01 170C111.935 170 111.895 169.995 111.881 169.992C111.865 169.989 111.9 169.993 111.961 170.026C112.027 170.062 112.125 170.135 112.203 170.263C112.283 170.392 112.306 170.522 112.306 170.616H110.306C110.306 170.838 110.359 171.08 110.497 171.305C110.633 171.529 110.82 171.682 111.003 171.782C111.34 171.966 111.717 172 112.01 172V170ZM112.306 170.616C112.306 170.636 112.303 170.654 112.3 170.667C112.297 170.679 112.294 170.683 112.296 170.679C112.302 170.669 112.326 170.626 112.397 170.555L110.983 169.141C110.618 169.506 110.306 170.001 110.306 170.616H112.306ZM112.368 170.583C114.818 168.325 119.108 167.072 125.514 167.072V165.072C118.949 165.072 114.024 166.337 111.012 169.113L112.368 170.583ZM125.514 167.072C127.69 167.072 129.329 167.262 130.475 167.606L131.049 165.69C129.635 165.266 127.775 165.072 125.514 165.072V167.072ZM130.475 167.606L131.115 167.798L131.689 165.882L131.049 165.69L130.475 167.606ZM131.017 167.763C131.114 167.803 131.185 167.839 131.234 167.868C131.285 167.897 131.303 167.914 131.302 167.913C131.302 167.912 131.269 167.883 131.235 167.819C131.199 167.749 131.17 167.654 131.17 167.544H133.17C133.17 167.046 132.912 166.675 132.654 166.439C132.405 166.211 132.094 166.045 131.787 165.917L131.017 167.763ZM131.17 167.544C131.17 167.478 131.182 167.405 131.21 167.334C131.238 167.263 131.274 167.21 131.305 167.173C131.362 167.108 131.395 167.108 131.328 167.137L132.116 168.975C132.563 168.784 133.17 168.351 133.17 167.544H131.17ZM131.438 167.097C130.169 167.473 128.959 168.081 127.81 168.908L128.978 170.532C129.962 169.823 130.971 169.321 132.006 169.015L131.438 167.097ZM127.832 168.893C127.281 169.268 126.828 169.614 126.501 169.927C126.339 170.082 126.182 170.255 126.059 170.442C125.945 170.614 125.794 170.899 125.794 171.256H127.794C127.794 171.464 127.709 171.572 127.729 171.542C127.74 171.526 127.782 171.47 127.887 171.369C128.094 171.17 128.441 170.898 128.956 170.547L127.832 168.893ZM126.035 171.907L126.419 172.355L127.937 171.053L127.553 170.605L126.035 171.907ZM126.688 172.576C127.834 173.22 128.745 174.254 129.397 175.752L131.231 174.952C130.433 173.122 129.252 171.724 127.668 170.832L126.688 172.576ZM129.406 175.771C130.143 177.368 130.522 178.717 130.596 179.835L132.592 179.701C132.496 178.259 132.021 176.664 131.222 174.933L129.406 175.771ZM130.596 179.832L130.724 181.816L132.72 181.688L132.592 179.704L130.596 179.832ZM130.722 181.752C130.722 185.781 129.608 189.014 127.444 191.532L128.96 192.836C131.489 189.893 132.722 186.171 132.722 181.752H130.722ZM127.444 191.532C125.312 194.013 122.405 195.28 118.602 195.28V197.28C122.906 197.28 126.399 195.817 128.96 192.836L127.444 191.532ZM118.602 195.28C116.671 195.28 115.056 194.938 113.727 194.292L112.853 196.092C114.511 196.897 116.437 197.28 118.602 197.28V195.28ZM113.727 194.292C112.312 193.605 111.341 192.874 110.739 192.131L109.185 193.389C110.034 194.438 111.282 195.328 112.853 196.092L113.727 194.292ZM110.771 192.172C110.145 191.311 109.632 190.348 109.236 189.277L107.36 189.971C107.817 191.204 108.414 192.331 109.153 193.348L110.771 192.172ZM109.249 189.315C108.77 187.837 108.53 186.32 108.53 184.76H106.53C106.53 186.528 106.802 188.254 107.347 189.933L109.249 189.315ZM108.53 184.76C108.53 183.164 108.789 181.561 109.313 179.949L107.411 179.331C106.826 181.132 106.53 182.943 106.53 184.76H108.53ZM109.306 179.97C109.885 178.316 110.493 177.2 111.091 176.531L109.601 175.197C108.748 176.15 108.034 177.55 107.418 179.31L109.306 179.97ZM111.072 176.552C111.771 175.814 112.542 175.218 113.385 174.758L112.427 173.002C111.393 173.566 110.457 174.293 109.62 175.176L111.072 176.552ZM113.378 174.761C114.533 174.143 115.314 173.92 115.786 173.92V171.92C114.807 171.92 113.668 172.337 112.434 172.999L113.378 174.761ZM115.786 173.92C115.935 173.92 116.047 173.928 116.126 173.939C116.209 173.95 116.233 173.962 116.221 173.957C116.21 173.952 116.12 173.914 116.029 173.801C115.924 173.672 115.874 173.513 115.874 173.368H117.874C117.874 173.073 117.778 172.784 117.583 172.543C117.401 172.318 117.175 172.186 116.983 172.107C116.618 171.957 116.187 171.92 115.786 171.92V173.92ZM116.017 172.854L115.633 173.494L117.347 174.522L117.731 173.882L116.017 172.854ZM115.727 173.362C114.663 174.619 113.923 176.224 113.469 178.128L115.415 178.592C115.815 176.912 116.44 175.616 117.253 174.654L115.727 173.362ZM113.464 178.15C113.07 179.992 112.866 181.664 112.866 183.16H114.866C114.866 181.84 115.046 180.312 115.42 178.57L113.464 178.15ZM112.866 183.16C112.866 184.61 113.047 186.056 113.408 187.499L115.348 187.013C115.026 185.725 114.866 184.441 114.866 183.16H112.866ZM113.408 187.499C113.759 188.902 114.173 190.044 114.682 190.858L116.378 189.798C116.033 189.247 115.68 188.341 115.348 187.013L113.408 187.499ZM114.698 190.883C115.19 191.621 115.78 192.222 116.478 192.652L117.526 190.948C117.115 190.695 116.723 190.315 116.362 189.773L114.698 190.883ZM116.468 192.645C117.427 193.251 118.464 193.568 119.562 193.568V191.568C118.868 191.568 118.199 191.373 117.536 190.955L116.468 192.645ZM119.562 193.568C120.732 193.568 121.82 193.117 122.811 192.325L121.561 190.763C120.845 191.336 120.184 191.568 119.562 191.568V193.568ZM122.834 192.306C123.838 191.452 124.554 190.354 124.991 189.044L123.093 188.412C122.762 189.406 122.241 190.185 121.538 190.782L122.834 192.306ZM124.983 189.067C125.79 186.825 126.194 184.513 126.194 182.136H124.194C124.194 184.282 123.83 186.364 123.101 188.389L124.983 189.067ZM126.194 182.136C126.194 178.385 125.232 175.336 123.173 173.133L121.711 174.499C123.322 176.221 124.194 178.719 124.194 182.136H126.194ZM123.18 173.142C121.142 170.909 118.166 169.872 114.442 169.872V171.872C117.8 171.872 120.158 172.798 121.704 174.49L123.18 173.142ZM141.317 170.872V169.872H141.298L141.279 169.873L141.317 170.872ZM138.885 171V172H138.927L138.968 171.997L138.885 171ZM138.565 169.848L137.887 169.113L137.872 169.127L137.858 169.141L138.565 169.848ZM157.637 166.648L157.35 167.606L157.35 167.606L157.637 166.648ZM158.277 166.84L158.662 165.917L158.614 165.897L158.564 165.882L158.277 166.84ZM158.597 168.056L158.881 169.015L158.937 168.998L158.991 168.975L158.597 168.056ZM155.269 169.72L155.831 170.547L155.842 170.539L155.853 170.532L155.269 169.72ZM153.669 171.256H152.669V171.626L152.91 171.907L153.669 171.256ZM154.053 171.704L153.294 172.355L153.409 172.489L153.563 172.576L154.053 171.704ZM157.189 175.352L156.272 175.752L156.277 175.761L156.281 175.771L157.189 175.352ZM158.469 179.768L159.467 179.704L159.467 179.701L158.469 179.768ZM158.597 181.752H159.597V181.72L159.595 181.688L158.597 181.752ZM155.077 192.184L154.319 191.532L154.319 191.532L155.077 192.184ZM140.165 195.192L140.602 194.292L140.602 194.292L140.165 195.192ZM136.837 192.76L136.028 193.348L136.043 193.369L136.06 193.389L136.837 192.76ZM135.173 189.624L134.222 189.933L134.228 189.952L134.235 189.971L135.173 189.624ZM135.237 179.64L134.293 179.31L134.289 179.32L134.286 179.331L135.237 179.64ZM137.221 175.864L136.495 175.176L136.485 175.187L136.476 175.197L137.221 175.864ZM139.781 173.88L139.309 172.998L139.302 173.002L139.781 173.88ZM143.749 173.368L144.606 173.882L144.749 173.645V173.368H143.749ZM143.365 174.008L144.128 174.654L144.181 174.592L144.222 174.522L143.365 174.008ZM141.317 178.36L140.344 178.128L140.342 178.139L140.339 178.15L141.317 178.36ZM142.405 190.328L141.557 190.858L141.565 190.87L141.573 190.883L142.405 190.328ZM143.877 191.8L144.411 190.954L144.401 190.948L143.877 191.8ZM149.061 191.544L149.686 192.325L149.697 192.316L149.709 192.306L149.061 191.544ZM150.917 188.728L149.976 188.389L149.972 188.4L149.968 188.412L150.917 188.728ZM149.317 173.816L148.578 174.49L148.586 174.499L149.317 173.816ZM141.279 169.873C140.167 169.915 139.338 169.959 138.802 170.003L138.968 171.997C139.456 171.956 140.248 171.914 141.355 171.871L141.279 169.873ZM138.885 170C138.81 170 138.77 169.995 138.756 169.992C138.74 169.989 138.775 169.993 138.836 170.026C138.902 170.062 139 170.135 139.078 170.263C139.158 170.392 139.181 170.522 139.181 170.616H137.181C137.181 170.838 137.234 171.08 137.372 171.305C137.508 171.529 137.695 171.682 137.878 171.782C138.215 171.966 138.592 172 138.885 172V170ZM139.181 170.616C139.181 170.636 139.178 170.654 139.175 170.667C139.172 170.679 139.169 170.683 139.171 170.679C139.177 170.669 139.201 170.626 139.272 170.555L137.858 169.141C137.493 169.506 137.181 170.001 137.181 170.616H139.181ZM139.243 170.583C141.693 168.325 145.983 167.072 152.389 167.072V165.072C145.824 165.072 140.899 166.337 137.887 169.113L139.243 170.583ZM152.389 167.072C154.565 167.072 156.204 167.262 157.35 167.606L157.924 165.69C156.51 165.266 154.65 165.072 152.389 165.072V167.072ZM157.35 167.606L157.99 167.798L158.564 165.882L157.924 165.69L157.35 167.606ZM157.892 167.763C157.989 167.803 158.06 167.839 158.109 167.868C158.16 167.897 158.178 167.914 158.177 167.913C158.177 167.912 158.144 167.883 158.11 167.819C158.074 167.749 158.045 167.654 158.045 167.544H160.045C160.045 167.046 159.787 166.675 159.529 166.439C159.28 166.211 158.969 166.045 158.662 165.917L157.892 167.763ZM158.045 167.544C158.045 167.478 158.057 167.405 158.085 167.334C158.113 167.263 158.149 167.21 158.18 167.173C158.237 167.108 158.27 167.108 158.203 167.137L158.991 168.975C159.438 168.784 160.045 168.351 160.045 167.544H158.045ZM158.313 167.097C157.044 167.473 155.834 168.081 154.685 168.908L155.853 170.532C156.837 169.823 157.846 169.321 158.881 169.015L158.313 167.097ZM154.707 168.893C154.156 169.268 153.703 169.614 153.376 169.927C153.214 170.082 153.057 170.255 152.934 170.442C152.82 170.614 152.669 170.899 152.669 171.256H154.669C154.669 171.464 154.584 171.572 154.604 171.542C154.615 171.526 154.657 171.47 154.762 171.369C154.969 171.17 155.316 170.898 155.831 170.547L154.707 168.893ZM152.91 171.907L153.294 172.355L154.812 171.053L154.428 170.605L152.91 171.907ZM153.563 172.576C154.709 173.22 155.62 174.254 156.272 175.752L158.106 174.952C157.308 173.122 156.127 171.724 154.543 170.832L153.563 172.576ZM156.281 175.771C157.018 177.368 157.397 178.717 157.471 179.835L159.467 179.701C159.371 178.259 158.896 176.664 158.097 174.933L156.281 175.771ZM157.471 179.832L157.599 181.816L159.595 181.688L159.467 179.704L157.471 179.832ZM157.597 181.752C157.597 185.781 156.483 189.014 154.319 191.532L155.835 192.836C158.364 189.893 159.597 186.171 159.597 181.752H157.597ZM154.319 191.532C152.187 194.013 149.28 195.28 145.477 195.28V197.28C149.781 197.28 153.274 195.817 155.835 192.836L154.319 191.532ZM145.477 195.28C143.546 195.28 141.931 194.938 140.602 194.292L139.728 196.092C141.386 196.897 143.312 197.28 145.477 197.28V195.28ZM140.602 194.292C139.187 193.605 138.216 192.874 137.614 192.131L136.06 193.389C136.909 194.438 138.157 195.328 139.728 196.092L140.602 194.292ZM137.646 192.172C137.02 191.311 136.507 190.348 136.111 189.277L134.235 189.971C134.692 191.204 135.289 192.331 136.028 193.348L137.646 192.172ZM136.124 189.315C135.645 187.837 135.405 186.32 135.405 184.76H133.405C133.405 186.528 133.677 188.254 134.222 189.933L136.124 189.315ZM135.405 184.76C135.405 183.164 135.664 181.561 136.188 179.949L134.286 179.331C133.701 181.132 133.405 182.943 133.405 184.76H135.405ZM136.181 179.97C136.76 178.316 137.368 177.2 137.966 176.531L136.476 175.197C135.623 176.15 134.909 177.55 134.293 179.31L136.181 179.97ZM137.947 176.552C138.646 175.814 139.417 175.218 140.26 174.758L139.302 173.002C138.268 173.566 137.332 174.293 136.495 175.176L137.947 176.552ZM140.253 174.761C141.408 174.143 142.189 173.92 142.661 173.92V171.92C141.682 171.92 140.543 172.337 139.309 172.999L140.253 174.761ZM142.661 173.92C142.81 173.92 142.922 173.928 143.001 173.939C143.084 173.95 143.108 173.962 143.096 173.957C143.085 173.952 142.995 173.914 142.904 173.801C142.799 173.672 142.749 173.513 142.749 173.368H144.749C144.749 173.073 144.653 172.784 144.458 172.543C144.276 172.318 144.05 172.186 143.858 172.107C143.493 171.957 143.062 171.92 142.661 171.92V173.92ZM142.892 172.854L142.508 173.494L144.222 174.522L144.606 173.882L142.892 172.854ZM142.602 173.362C141.538 174.619 140.798 176.224 140.344 178.128L142.29 178.592C142.69 176.912 143.315 175.616 144.128 174.654L142.602 173.362ZM140.339 178.15C139.945 179.992 139.741 181.664 139.741 183.16H141.741C141.741 181.84 141.921 180.312 142.295 178.57L140.339 178.15ZM139.741 183.16C139.741 184.61 139.922 186.056 140.283 187.499L142.223 187.013C141.901 185.725 141.741 184.441 141.741 183.16H139.741ZM140.283 187.499C140.634 188.902 141.048 190.044 141.557 190.858L143.253 189.798C142.908 189.247 142.555 188.341 142.223 187.013L140.283 187.499ZM141.573 190.883C142.065 191.621 142.655 192.222 143.353 192.652L144.401 190.948C143.99 190.695 143.598 190.315 143.237 189.773L141.573 190.883ZM143.343 192.645C144.302 193.251 145.339 193.568 146.437 193.568V191.568C145.743 191.568 145.074 191.373 144.411 190.955L143.343 192.645ZM146.437 193.568C147.607 193.568 148.695 193.117 149.686 192.325L148.436 190.763C147.72 191.336 147.059 191.568 146.437 191.568V193.568ZM149.709 192.306C150.713 191.452 151.429 190.354 151.866 189.044L149.968 188.412C149.637 189.406 149.116 190.185 148.413 190.782L149.709 192.306ZM151.858 189.067C152.665 186.825 153.069 184.513 153.069 182.136H151.069C151.069 184.282 150.705 186.364 149.976 188.389L151.858 189.067ZM153.069 182.136C153.069 178.385 152.107 175.336 150.048 173.133L148.586 174.499C150.197 176.221 151.069 178.719 151.069 182.136H153.069ZM150.055 173.142C148.017 170.909 145.041 169.872 141.317 169.872V171.872C144.675 171.872 147.033 172.798 148.579 174.49L150.055 173.142ZM176.768 166.584L176.432 167.526L176.47 167.54L176.51 167.55L176.768 166.584ZM177.792 166.84V167.84H178.154L178.432 167.608L177.792 166.84ZM178.176 166.52L178.816 167.288L179.193 166.974L179.175 166.483L178.176 166.52ZM177.92 159.544L178.919 159.507L178.919 159.49L178.917 159.473L177.92 159.544ZM176 154.808L176.6 154.008L176.545 153.967L176.486 153.934L176 154.808ZM175.424 154.488L174.869 155.32L174.903 155.342L174.938 155.362L175.424 154.488ZM177.984 151.672L177.592 150.752L177.585 150.755L177.984 151.672ZM184.448 151.096L185.437 150.951L185.435 150.934L185.432 150.917L184.448 151.096ZM184.448 171.384L183.449 171.33L183.449 171.341L184.448 171.384ZM185.152 194.104L184.258 194.551L184.27 194.576L184.284 194.6L185.152 194.104ZM177.408 193.4H178.408V193.338L178.4 193.276L177.408 193.4ZM177.664 182.264L176.667 182.188L176.666 182.198L177.664 182.264ZM173.504 188.856L173.855 189.792L173.883 189.782L173.91 189.77L173.504 188.856ZM174.976 189.24L174.048 189.611L174.063 189.65L174.082 189.687L174.976 189.24ZM173.568 194.232L174.216 194.993L174.224 194.986L174.232 194.979L173.568 194.232ZM163.52 192.376L162.65 192.869L162.655 192.878L162.661 192.888L163.52 192.376ZM164.608 172.216L163.74 171.72L163.733 171.732L164.608 172.216ZM168.768 167.928L169.289 168.782L169.296 168.777L169.304 168.773L168.768 167.928ZM174.72 167.264C175.397 167.264 175.962 167.358 176.432 167.526L177.104 165.642C176.379 165.383 175.579 165.264 174.72 165.264V167.264ZM176.51 167.55C176.832 167.636 177.083 167.702 177.261 167.746C177.35 167.768 177.426 167.787 177.487 167.8C177.517 167.807 177.55 167.814 177.583 167.82C177.587 167.821 177.683 167.84 177.792 167.84V165.84C177.857 165.84 177.905 165.847 177.913 165.848C177.929 165.85 177.939 165.852 177.941 165.852C177.944 165.853 177.939 165.852 177.921 165.848C177.886 165.84 177.829 165.826 177.747 165.806C177.584 165.765 177.344 165.703 177.026 165.618L176.51 167.55ZM178.432 167.608L178.816 167.288L177.536 165.752L177.152 166.072L178.432 167.608ZM179.175 166.483L178.919 159.507L176.921 159.581L177.177 166.557L179.175 166.483ZM178.917 159.473C178.825 158.179 178.545 157.021 178.046 156.025L176.258 156.919C176.613 157.629 176.844 158.519 176.923 159.615L178.917 159.473ZM178.046 156.025C177.616 155.164 177.145 154.417 176.6 154.008L175.4 155.608C175.537 155.711 175.835 156.074 176.258 156.919L178.046 156.025ZM176.486 153.934L175.91 153.614L174.938 155.362L175.514 155.682L176.486 153.934ZM175.979 153.656C175.926 153.621 175.939 153.617 175.968 153.661C175.984 153.685 176.003 153.72 176.018 153.767C176.032 153.814 176.04 153.864 176.04 153.912H174.04C174.04 154.592 174.467 155.052 174.869 155.32L175.979 153.656ZM176.04 153.912C176.04 154.099 175.927 154.014 176.382 153.668C176.778 153.366 177.43 153.003 178.383 152.589L177.585 150.755C176.576 151.194 175.755 151.631 175.17 152.076C174.644 152.477 174.04 153.085 174.04 153.912H176.04ZM178.376 152.592C180.353 151.751 181.757 151.392 182.656 151.392V149.392C181.337 149.392 179.625 149.887 177.592 150.752L178.376 152.592ZM182.656 151.392C183.163 151.392 183.443 151.449 183.57 151.499C183.626 151.521 183.61 151.525 183.57 151.484C183.522 151.434 183.479 151.358 183.464 151.275L185.432 150.917C185.307 150.228 184.798 149.832 184.302 149.637C183.831 149.452 183.258 149.392 182.656 149.392V151.392ZM183.459 151.241C183.66 152.609 183.768 155.312 183.768 159.416H185.768C185.768 155.328 185.663 152.484 185.437 150.951L183.459 151.241ZM183.768 159.416C183.768 163.452 183.662 167.423 183.449 171.33L185.447 171.438C185.661 167.494 185.768 163.487 185.768 159.416H183.768ZM183.449 171.341C183.278 175.284 183.192 179.757 183.192 184.76H185.192C185.192 179.779 185.277 175.335 185.447 171.427L183.449 171.341ZM183.192 184.76C183.192 187.252 183.272 189.305 183.437 190.91C183.598 192.479 183.85 193.736 184.258 194.551L186.046 193.657C185.814 193.192 185.586 192.252 185.427 190.706C185.272 189.196 185.192 187.218 185.192 184.76H183.192ZM184.284 194.6C184.397 194.798 184.408 194.904 184.408 194.936H186.408C186.408 194.456 186.249 194.008 186.02 193.608L184.284 194.6ZM184.408 194.936C184.408 194.828 184.457 194.723 184.513 194.665C184.546 194.63 184.535 194.662 184.391 194.712C184.094 194.815 183.542 194.896 182.656 194.896V196.896C183.604 196.896 184.429 196.817 185.049 196.6C185.664 196.386 186.408 195.894 186.408 194.936H184.408ZM182.656 194.896C180.954 194.896 179.822 194.689 179.15 194.369C178.827 194.215 178.651 194.055 178.555 193.918C178.465 193.79 178.408 193.63 178.408 193.4H176.408C176.408 194.002 176.57 194.57 176.917 195.066C177.258 195.553 177.739 195.913 178.29 196.175C179.368 196.687 180.859 196.896 182.656 196.896V194.896ZM178.4 193.276C178.323 192.658 178.28 191.664 178.28 190.264H176.28C176.28 191.68 176.322 192.777 176.416 193.524L178.4 193.276ZM178.28 190.264C178.28 188.851 178.406 186.215 178.662 182.33L176.666 182.198C176.41 186.078 176.28 188.776 176.28 190.264H178.28ZM178.661 182.34C178.96 178.407 179.112 175.369 179.112 173.24H177.112C177.112 175.292 176.965 178.27 176.667 182.188L178.661 182.34ZM179.112 173.24C179.112 172.019 178.806 170.92 178.019 170.133C177.232 169.346 176.133 169.04 174.912 169.04V171.04C175.825 171.04 176.325 171.267 176.605 171.547C176.885 171.827 177.112 172.327 177.112 173.24H179.112ZM174.912 169.04C173.653 169.04 172.514 169.418 171.532 170.177C170.565 170.925 169.799 172.005 169.199 173.343L171.025 174.161C171.534 173.025 172.123 172.249 172.756 171.759C173.374 171.281 174.08 171.04 174.912 171.04V169.04ZM169.199 173.343C168.038 175.934 167.448 178.547 167.448 181.176H169.448C169.448 178.855 169.967 176.52 171.025 174.161L169.199 173.343ZM167.448 181.176C167.448 183.852 167.78 186.008 168.547 187.53C168.938 188.305 169.457 188.946 170.128 189.39C170.806 189.838 171.581 190.048 172.416 190.048V188.048C171.928 188.048 171.546 187.93 171.232 187.722C170.911 187.51 170.604 187.167 170.333 186.63C169.777 185.528 169.448 183.748 169.448 181.176H167.448ZM172.416 190.048C172.913 190.048 173.396 189.965 173.855 189.792L173.153 187.92C172.93 188.003 172.687 188.048 172.416 188.048V190.048ZM173.91 189.77C174.093 189.688 174.224 189.635 174.31 189.604C174.33 189.596 174.346 189.591 174.358 189.587C174.369 189.583 174.374 189.582 174.374 189.582C174.373 189.582 174.37 189.583 174.365 189.584C174.36 189.585 174.352 189.587 174.34 189.589C174.322 189.592 174.274 189.6 174.208 189.6V187.6C174.052 187.6 173.919 187.634 173.858 187.65C173.78 187.671 173.7 187.697 173.626 187.724C173.477 187.778 173.299 187.853 173.098 187.942L173.91 189.77ZM174.208 189.6C174.187 189.6 174.153 189.596 174.112 189.582C174.07 189.567 174.037 189.546 174.016 189.528C173.977 189.496 174.002 189.497 174.048 189.611L175.904 188.869C175.78 188.557 175.591 188.237 175.296 187.992C174.984 187.731 174.606 187.6 174.208 187.6V189.6ZM174.082 189.687C174.234 189.992 174.296 190.266 174.296 190.52H176.296C176.296 189.921 176.145 189.342 175.87 188.793L174.082 189.687ZM174.296 190.52C174.296 191.665 173.857 192.637 172.904 193.485L174.232 194.979C175.583 193.779 176.296 192.276 176.296 190.52H174.296ZM172.92 193.471C171.967 194.282 170.796 194.704 169.344 194.704V196.704C171.22 196.704 172.865 196.144 174.216 194.993L172.92 193.471ZM169.344 194.704C167.14 194.704 165.523 193.783 164.379 191.864L162.661 192.888C164.162 195.406 166.428 196.704 169.344 196.704V194.704ZM164.39 191.883C163.216 189.809 162.6 187.195 162.6 183.992H160.6C160.6 187.445 161.264 190.421 162.65 192.869L164.39 191.883ZM162.6 183.992C162.6 179.934 163.561 176.175 165.483 172.7L163.733 171.732C161.644 175.51 160.6 179.602 160.6 183.992H162.6ZM165.476 172.712C166.417 171.066 167.685 169.76 169.289 168.782L168.247 167.074C166.353 168.229 164.847 169.782 163.74 171.72L165.476 172.712ZM169.304 168.773C170.881 167.772 172.677 167.264 174.72 167.264V165.264C172.326 165.264 170.153 165.865 168.232 167.083L169.304 168.773Z" fill="#EA7AFC"/>
</g>
<defs>
<filter id="filter0_d_13_91" x="0.5" y="0.5" width="257" height="152" filterUnits="userSpaceOnUse" color-interpolation-filters="sRGB">
<feFlood flood-opacity="0" result="BackgroundImageFix"/>
<feColorMatrix in="SourceAlpha" type="matrix" values="0 0 0 0 0 0 0 0 0 0 0 0 0 0 0 0 0 0 127 0" result="hardAlpha"/>
<feOffset dy="4"/>
<feGaussianBlur stdDeviation="1"/>
<feComposite in2="hardAlpha" operator="out"/>
<feColorMatrix type="matrix" values="0 0 0 0 0 0 0 0 0 0 0 0 0 0 0 0 0 0 0.4 0"/>
<feBlend mode="normal" in2="BackgroundImageFix" result="effect1_dropShadow_13_91"/>
<feBlend mode="normal" in="SourceGraphic" in2="effect1_dropShadow_13_91" result="shape"/>
</filter>
<filter id="filter1_d_13_91" x="31" y="8" width="197" height="124" filterUnits="userSpaceOnUse" color-interpolation-filters="sRGB">
<feFlood flood-opacity="0" result="BackgroundImageFix"/>
<feColorMatrix in="SourceAlpha" type="matrix" values="0 0 0 0 0 0 0 0 0 0 0 0 0 0 0 0 0 0 127 0" result="hardAlpha"/>
<feOffset dy="4"/>
<feGaussianBlur stdDeviation="2"/>
<feComposite in2="hardAlpha" operator="out"/>
<feColorMatrix type="matrix" values="0 0 0 0 0 0 0 0 0 0 0 0 0 0 0 0 0 0 0.5 0"/>
<feBlend mode="normal" in2="BackgroundImageFix" result="effect1_dropShadow_13_91"/>
<feBlend mode="normal" in="SourceGraphic" in2="effect1_dropShadow_13_91" result="shape"/>
</filter>
<filter id="filter2_d_13_91" x="80.192" y="149.56" width="109.216" height="55.04" filterUnits="userSpaceOnUse" color-interpolation-filters="sRGB">
<feFlood flood-opacity="0" result="BackgroundImageFix"/>
<feColorMatrix in="SourceAlpha" type="matrix" values="0 0 0 0 0 0 0 0 0 0 0 0 0 0 0 0 0 0 127 0" result="hardAlpha"/>
<feOffset dy="4"/>
<feGaussianBlur stdDeviation="2"/>
<feComposite in2="hardAlpha" operator="out"/>
<feColorMatrix type="matrix" values="0 0 0 0 0 0 0 0 0 0 0 0 0 0 0 0 0 0 0.25 0"/>
<feBlend mode="normal" in2="BackgroundImageFix" result="effect1_dropShadow_13_91"/>
<feBlend mode="normal" in="SourceGraphic" in2="effect1_dropShadow_13_91" result="shape"/>
</filter>
</defs>
</svg>
